<svg viewBox="181.6875 146.1730769230769 605.625 446.9755244755245" fill="none" xmlns="http://www.w3.org/2000/svg" xmlns:xlink="http://www.w3.org/1999/xlink" overflow="visible" width="605.625px" height="446.9755244755245px"><g id="Master/Scenes/Address"><path id="Floor" fill-rule="evenodd" clip-rule="evenodd" d="M785.137 588.345H183.5C183.224 588.345 183 588.121 183 587.845C183 587.569 183.224 587.345 183.5 587.345H785.137C785.413 587.345 785.637 587.569 785.637 587.845C785.637 588.121 785.413 588.345 785.137 588.345" fill="black"/><g id="Address"><path id="Map" fill-rule="evenodd" clip-rule="evenodd" d="M516.065 193.776L516.093 183.776H452.77C452.486 183.776 452.202 183.8 451.921 183.848L354.961 200.539L286.171 169C285.338 171.13 284.865 173.44 284.865 175.865L284.855 179.397L390.615 227.887L284.671 244.564L284.642 254.691L294.957 253.067L384.988 370.967L335.84 342.827L335.817 342.814L284.477 313.419L284.445 324.922L327.384 349.508L312.224 396.972H284.242L284.213 406.972H315.876C318.051 406.972 319.976 405.566 320.638 403.493L336.259 354.589L401.499 391.944C401.517 391.954 401.537 391.962 401.554 391.972C401.647 392.024 401.742 392.068 401.837 392.114C401.892 392.14 401.944 392.171 401.999 392.194L473.819 423.243L462.224 454.649L402.148 425.033C399.826 423.89 397.013 424.705 395.667 426.917L382.47 448.584L334.006 469.81L284.119 440.897L284.086 452.437L331.184 479.733C331.957 480.18 332.822 480.407 333.691 480.407C334.373 480.407 335.056 480.268 335.697 479.987L373.404 463.472L355.674 492.584C355.673 492.584 355.673 492.585 355.673 492.586C355.661 492.606 355.652 492.63 355.64 492.65C355.497 492.893 355.38 493.149 355.281 493.411C355.267 493.446 355.246 493.476 355.233 493.512C355.22 493.548 355.218 493.584 355.207 493.62C355.115 493.896 355.041 494.178 354.999 494.467C354.997 494.481 354.994 494.496 354.992 494.51C354.961 494.733 354.945 494.958 354.945 495.184V541.287H364.945V502.263L474.946 541.287H504.853L367.416 492.529L401.829 436.025L458.742 464.082L451.86 482.721C451.147 484.652 451.691 486.824 453.23 488.191C454.166 489.022 455.352 489.453 456.551 489.453C457.326 489.453 458.104 489.273 458.824 488.906L515.315 460.068L515.347 448.824L465.672 474.182L484.84 422.264C485.76 419.773 484.572 416.997 482.134 415.943L412.734 385.941L496.663 302.266H515.759L515.788 292.266H494.596C493.273 292.266 492.003 292.791 491.066 293.725L404.494 380.035L306.189 251.299L408.542 235.188C410.72 234.845 412.417 233.116 412.717 230.931C413.018 228.747 411.853 226.623 409.848 225.704L371.052 207.917L453.197 193.776H516.065Z" fill="#EEF2F8"/><path id="Geolocalization" fill-rule="evenodd" clip-rule="evenodd" d="M400.027 335.285C388.57 335.285 379.284 325.998 379.284 314.542C379.284 303.086 388.57 293.799 400.027 293.799C411.483 293.799 420.77 303.086 420.77 314.542C420.77 325.998 411.483 335.285 400.027 335.285M400.027 272.4C377.186 272.4 358.668 290.917 358.668 313.759C358.668 322.404 361.324 330.427 365.861 337.064C366.014 337.389 366.194 337.711 366.4 338.026L395.779 382.778C397.786 385.836 402.268 385.836 404.276 382.778L434.927 336.086C435.128 335.78 435.291 335.466 435.431 335.148C439.21 328.907 441.386 321.587 441.386 313.759C441.386 290.917 422.869 272.4 400.027 272.4" fill="#FF5613"/><path id="Fill 9" fill-rule="evenodd" clip-rule="evenodd" d="M379.783 314.542C379.783 303.38 388.864 294.299 400.026 294.299C411.188 294.299 420.269 303.38 420.269 314.542C420.269 325.704 411.188 334.785 400.026 334.785C388.864 334.785 379.783 325.704 379.783 314.542V314.542ZM421.269 314.542C421.269 302.829 411.74 293.299 400.026 293.299C388.312 293.299 378.783 302.829 378.783 314.542C378.783 326.255 388.312 335.785 400.026 335.785C411.74 335.785 421.269 326.255 421.269 314.542V314.542ZM400.026 395.412C370.165 395.412 350.105 390.065 350.105 385.071C350.105 380.658 365.785 375.976 390.038 374.945L395.36 383.052C396.395 384.629 398.139 385.571 400.025 385.571H400.026C401.913 385.571 403.657 384.63 404.693 383.052L410.012 374.948C434.264 375.979 449.947 380.659 449.947 385.071C449.947 390.065 429.887 395.412 400.026 395.412V395.412ZM366.817 337.752C366.627 337.461 366.457 337.158 366.273 336.782C361.624 329.981 359.167 322.021 359.167 313.759C359.167 291.229 377.496 272.9 400.026 272.9C422.556 272.9 440.886 291.229 440.886 313.759C440.886 321.225 438.851 328.532 434.973 334.946C434.83 335.27 434.678 335.553 434.509 335.812L403.857 382.503C403.007 383.798 401.575 384.571 400.026 384.571C398.477 384.571 397.046 383.798 396.196 382.503L366.817 337.752ZM450.947 385.071C450.947 378.98 431.874 374.997 410.643 373.988L435.346 336.36C435.545 336.055 435.722 335.725 435.858 335.407C439.802 328.894 441.886 321.408 441.886 313.759C441.886 290.678 423.107 271.9 400.026 271.9C376.945 271.9 358.167 290.678 358.167 313.759C358.167 322.223 360.684 330.379 365.408 337.277C365.572 337.625 365.764 337.97 365.981 338.301L389.409 373.987C368.179 374.995 349.105 378.98 349.105 385.071C349.105 392.17 374.996 396.412 400.026 396.412C425.056 396.412 450.947 392.17 450.947 385.071V385.071ZM437.256 370.074C436.987 370.015 436.72 370.187 436.661 370.458C436.603 370.728 436.775 370.993 437.045 371.051C445.589 372.889 456.947 376.34 456.947 385.071C456.947 393.803 445.589 397.254 437.045 399.091C436.775 399.149 436.603 399.415 436.661 399.685C436.712 399.92 436.919 400.08 437.149 400.08C437.184 400.08 437.22 400.077 437.256 400.069C446.137 398.159 457.947 394.527 457.947 385.071C457.947 375.617 446.137 371.984 437.256 370.074V370.074ZM363.008 399.091C354.464 397.254 343.105 393.803 343.105 385.071C343.105 376.34 354.464 372.889 363.008 371.051C363.277 370.993 363.449 370.728 363.391 370.458C363.333 370.187 363.07 370.015 362.797 370.074C353.915 371.984 342.105 375.617 342.105 385.071C342.105 394.527 353.915 398.159 362.797 400.069C362.833 400.077 362.868 400.08 362.903 400.08C363.134 400.08 363.341 399.92 363.391 399.685C363.449 399.415 363.277 399.149 363.008 399.091V399.091Z" fill="black"/><g id="Device" transform="translate(193.026 60.5713) scale(1 1)"><g id="Device/Internet Window"><g id="Internet Window"><path id="Fill 1" fill-rule="evenodd" clip-rule="evenodd" d="M303.985 95.5H110.48C100.056 95.5 91.6066 103.949 91.6066 114.373L91.5806 123.489H322.832L322.858 114.373C322.858 103.949 314.408 95.5 303.985 95.5" fill="#EEF2F8"/><path id="Fill 3" fill-rule="evenodd" clip-rule="evenodd" d="M112.614 110.957C112.614 114.412 109.812 117.213 106.357 117.213C102.902 117.213 100.101 114.412 100.101 110.957C100.101 107.501 102.902 104.7 106.357 104.7C109.812 104.7 112.614 107.501 112.614 110.957" fill="#FF4200"/><path id="Fill 5" fill-rule="evenodd" clip-rule="evenodd" d="M134.959 110.957C134.959 114.412 132.158 117.213 128.702 117.213C125.247 117.213 122.446 114.412 122.446 110.957C122.446 107.501 125.247 104.7 128.702 104.7C132.158 104.7 134.959 107.501 134.959 110.957" fill="#FFBA00"/><path id="Fill 7" fill-rule="evenodd" clip-rule="evenodd" d="M157.305 110.957C157.305 114.412 154.504 117.213 151.049 117.213C147.594 117.213 144.792 114.412 144.792 110.957C144.792 107.501 147.594 104.7 151.049 104.7C154.504 104.7 157.305 107.501 157.305 110.957" fill="#009E80"/><path id="Fill 9" fill-rule="evenodd" clip-rule="evenodd" d="M151.049 116.713C147.874 116.713 145.292 114.131 145.292 110.957C145.292 107.782 147.874 105.2 151.049 105.2C154.223 105.2 156.805 107.782 156.805 110.957C156.805 114.131 154.223 116.713 151.049 116.713V116.713ZM151.049 104.2C147.323 104.2 144.292 107.232 144.292 110.957C144.292 114.683 147.323 117.713 151.049 117.713C154.775 117.713 157.805 114.683 157.805 110.957C157.805 107.232 154.775 104.2 151.049 104.2V104.2ZM128.702 116.713C125.528 116.713 122.946 114.131 122.946 110.957C122.946 107.782 125.528 105.2 128.702 105.2C131.877 105.2 134.459 107.782 134.459 110.957C134.459 114.131 131.877 116.713 128.702 116.713V116.713ZM128.702 104.2C124.977 104.2 121.946 107.232 121.946 110.957C121.946 114.683 124.977 117.713 128.702 117.713C132.428 117.713 135.459 114.683 135.459 110.957C135.459 107.232 132.428 104.2 128.702 104.2V104.2ZM106.357 116.713C103.183 116.713 100.601 114.131 100.601 110.957C100.601 107.782 103.183 105.2 106.357 105.2C109.531 105.2 112.113 107.782 112.113 110.957C112.113 114.131 109.531 116.713 106.357 116.713V116.713ZM106.357 104.2C102.631 104.2 99.601 107.232 99.601 110.957C99.601 114.683 102.631 117.713 106.357 117.713C110.082 117.713 113.113 114.683 113.113 110.957C113.113 107.232 110.082 104.2 106.357 104.2V104.2ZM92.082 122.989L92.107 114.373C92.107 104.242 100.349 95.9999 110.48 95.9999H303.985C314.115 95.9999 322.358 104.242 322.358 114.372L322.332 122.989H92.082ZM321.251 508.792C321.251 518.923 313.009 527.165 302.878 527.165H109.373C99.242 527.165 91 518.923 91 508.793L92.079 123.989H322.33L321.251 508.792ZM303.985 94.9999H110.48C99.797 94.9999 91.107 103.691 91.107 114.372L91.079 123.989L90 508.792C90 519.475 98.691 528.165 109.373 528.165H302.878C313.561 528.165 322.251 519.475 322.251 508.793L323.358 114.373C323.358 103.691 314.667 94.9999 303.985 94.9999V94.9999Z" fill="black"/></g></g></g></g><g id="Plant" transform="translate(100 220) scale(0.9895104895104895 1.002717391304348)"><g id="Plant/Wavy Leaves"><g id="Wavy Leaves"><path id="Fill 1" fill-rule="evenodd" clip-rule="evenodd" d="M128.89 284.67C128.974 286.581 128.54 288.511 127.872 290.434C126.035 289.31 124.393 288.141 123.98 286.715C123.347 284.529 125.515 281.225 126.813 278.252C127.937 280.42 128.798 282.561 128.89 284.67M198.609 200.455C199.551 193.177 192.069 185.919 192.234 179.944C192.45 172.178 198.058 166.274 198.515 160.754C199.501 148.828 194.632 146.175 190.416 144.399C185.602 142.372 176.64 143.745 172.039 149.616C167.596 155.288 167.111 164.814 162.669 169.934C157.989 175.328 147.46 176.258 143.879 182.083C140.166 188.12 144.105 197.997 141.436 204.34C138.698 210.851 128.922 214.892 127.136 221.552C125.304 228.382 131.756 236.857 130.766 243.66C129.742 250.705 121.171 256.935 120.874 263.745C120.763 266.298 121.707 268.826 122.976 271.325C119.914 270.694 116.244 270.421 114.848 268.67C112.642 265.903 115.751 257.704 112.814 255.304C110.114 253.099 106.858 255.079 103.47 253.263C100.422 251.629 98.3788 241.989 91.2868 244.716C91.3838 244.679 85.6048 249.592 91.8328 258.355C93.4858 260.681 86.3368 264.406 86.5028 268.212C86.6368 271.29 94.8548 274.014 95.2648 277.588C95.6258 280.739 88.2088 285.257 88.8578 288.713C89.4518 291.876 97.9788 293.387 98.8688 296.743C99.7008 299.881 93.0308 305.432 94.1648 308.689C95.2388 311.769 103.897 311.965 105.279 315.109C106.595 318.103 100.877 324.626 102.505 327.641C104.06 330.523 112.637 329.323 114.505 332.193C116.292 334.939 111.714 342.304 113.812 345.011C115.818 347.601 119.687 343.985 121.999 346.516C127.109 344.534 129.793 343.637 130.676 338.903C131.214 336.02 124.267 332.376 124.969 328.362C125.312 326.398 128.308 324.692 130.823 322.856C131.242 323.774 131.576 324.689 131.759 325.608C134.271 338.222 128.075 348.748 134.72 350.499C137.833 351.32 141.307 335.78 144.604 330.235C148.12 324.321 155.76 319.915 158.826 314.26C162.114 308.193 158.038 298.622 160.842 292.857C163.872 286.628 173.906 283.896 176.413 278.023C179.146 271.622 174.142 262.5 176.309 256.528C178.697 249.946 188.358 246.116 190.133 240.062C192.12 233.281 185.999 224.864 187.32 218.756C188.833 211.755 197.82 206.558 198.609 200.455" fill="#FCBD21"/><path id="Fill 3" fill-rule="evenodd" clip-rule="evenodd" d="M198.113 200.39C197.739 203.285 195.378 206.02 192.879 208.916C190.292 211.914 187.616 215.015 186.831 218.65C186.183 221.645 187.209 225.036 188.294 228.626C189.46 232.481 190.665 236.468 189.653 239.921C188.807 242.807 186.046 245.193 183.123 247.719C180.151 250.287 177.077 252.944 175.839 256.357C174.76 259.329 175.359 262.896 175.992 266.671C176.647 270.576 177.325 274.614 175.953 277.826C174.757 280.628 171.737 282.701 168.54 284.894C165.307 287.112 161.965 289.405 160.392 292.638C158.984 295.535 159.24 299.357 159.488 303.053C159.75 306.961 160.022 311.004 158.386 314.021C156.869 316.819 154.223 319.286 151.421 321.898C148.728 324.409 145.943 327.004 144.174 329.979C142.889 332.14 141.575 335.796 140.305 339.332C138.716 343.756 136.56 349.722 135.09 350.012C136.735 311.216 143.983 274.99 156.705 237.453L177.113 177.242C177.201 176.981 177.061 176.697 176.8 176.608C176.538 176.522 176.255 176.66 176.166 176.921L155.758 237.133C143.03 274.685 135.77 310.938 134.102 349.743C131.65 348.609 131.829 345.558 132.386 340.181C132.81 336.082 133.339 330.981 132.249 325.509C132.082 324.674 131.798 323.846 131.444 323.02C133.203 321.703 134.68 320.291 134.831 318.594C135.01 316.583 133.062 314.648 131 312.6C129.187 310.799 127.313 308.938 127.296 307.286C127.28 305.751 129.038 303.904 130.738 302.117C132.728 300.026 134.785 297.864 134.503 295.732C134.225 293.636 131.689 292.129 129.235 290.671C128.981 290.52 128.727 290.369 128.474 290.217C129.086 288.369 129.471 286.507 129.389 284.648C129.297 282.526 128.45 280.369 127.359 278.23C128.115 276.439 128.553 274.729 127.878 273.384C127.162 271.955 125.4 271.327 123.31 270.88C122.132 268.518 121.271 266.131 121.374 263.766C121.521 260.393 123.788 257.164 126.189 253.746C128.43 250.554 130.749 247.253 131.261 243.732C131.744 240.411 130.517 236.708 129.331 233.126C128.031 229.204 126.688 225.15 127.619 221.68C128.521 218.317 131.545 215.654 134.747 212.835C137.603 210.32 140.557 207.719 141.897 204.534C143.176 201.492 142.989 197.665 142.808 193.964C142.604 189.781 142.392 185.454 144.304 182.344C146.123 179.386 149.822 177.744 153.737 176.004C157.198 174.467 160.777 172.877 163.046 170.261C165.371 167.581 166.652 163.701 167.891 159.948C169.076 156.356 170.302 152.643 172.432 149.924C175.687 145.771 181.1 144.041 185.519 144.041C187.324 144.041 188.964 144.329 190.222 144.86C193.726 146.335 199.021 148.565 198.016 160.712C197.822 163.057 196.624 165.554 195.355 168.198C193.716 171.614 191.858 175.485 191.735 179.93C191.656 182.766 193.175 185.781 194.783 188.973C196.663 192.705 198.608 196.566 198.113 200.39V200.39ZM122.693 366.734V359.653C122.693 355.063 122.615 350.836 122.45 346.876L122.646 346.801C127.556 344.902 130.261 343.856 131.168 338.994C131.46 337.425 130.028 335.831 128.51 334.143C126.846 332.29 125.124 330.375 125.461 328.448C125.706 327.045 127.742 325.628 129.711 324.257C130.013 324.047 130.317 323.836 130.616 323.623C130.903 324.321 131.131 325.014 131.268 325.704C132.329 331.029 131.809 336.046 131.391 340.078C130.85 345.301 130.428 349.47 134.057 350.804C133.845 356.063 133.736 361.369 133.729 366.734H122.693ZM127.592 289.671C126.079 288.709 124.786 287.7 124.46 286.575C124.032 285.099 125.15 282.834 126.23 280.645C126.433 280.235 126.633 279.823 126.829 279.411C127.693 281.208 128.315 282.963 128.39 284.691C128.462 286.33 128.127 287.998 127.592 289.671V289.671ZM130.2 322.689C129.85 322.94 129.495 323.19 129.14 323.437C126.904 324.993 124.793 326.463 124.476 328.276C124.055 330.682 126.027 332.876 127.767 334.812C129.114 336.311 130.386 337.727 130.184 338.811C129.387 343.088 127.045 344.027 122.4 345.825C121.153 318.852 115.721 304.108 103.007 269.637L101.748 266.224C101.652 265.964 101.363 265.829 101.106 265.928C100.846 266.023 100.714 266.311 100.809 266.57L102.068 269.984C114.672 304.152 120.096 318.877 121.379 345.438C120.836 345.169 120.26 345.063 119.674 345.063C119.012 345.063 118.342 345.18 117.707 345.291C116.268 345.543 115.025 345.76 114.207 344.703C113.279 343.506 113.941 340.975 114.582 338.528C115.266 335.911 115.913 333.439 114.924 331.92C113.875 330.308 111.15 329.865 108.514 329.435C106.103 329.042 103.61 328.636 102.945 327.403C102.224 326.069 103.291 323.678 104.322 321.366C105.425 318.897 106.465 316.564 105.737 314.908C104.959 313.138 102.332 312.259 99.7923 311.409C97.4833 310.636 95.0953 309.837 94.6373 308.524C94.1333 307.076 95.5683 304.871 96.9553 302.74C98.4253 300.482 99.8123 298.349 99.3523 296.615C98.8493 294.715 96.3623 293.435 93.9573 292.198C91.8153 291.095 89.6003 289.955 89.3493 288.62C89.0573 287.062 90.8273 285.063 92.5393 283.129C94.2983 281.141 95.9603 279.264 95.7613 277.531C95.5263 275.479 93.1843 273.811 90.9183 272.198C89.0203 270.846 87.0573 269.448 87.0023 268.19C86.9293 266.51 88.5893 264.703 90.0533 263.11C91.7273 261.288 93.3083 259.567 92.2403 258.064C87.0763 250.798 90.3803 246.371 91.5723 245.142C95.9333 243.535 98.2113 247.047 100.22 250.151C101.25 251.743 102.14 253.117 103.234 253.703C104.954 254.624 106.66 254.63 108.165 254.635C109.803 254.641 111.218 254.645 112.497 255.69C113.867 256.81 113.72 259.63 113.578 262.357C113.44 265.023 113.309 267.54 114.457 268.981C115.693 270.531 118.397 271.006 121.011 271.465C121.558 271.561 122.106 271.661 122.642 271.767L123.915 272.053C125.357 272.426 126.539 272.944 126.985 273.832C127.403 274.667 127.201 275.808 126.744 277.065L126.255 278.271C125.97 278.908 125.652 279.557 125.334 280.203C124.115 282.672 122.964 285.004 123.499 286.853C123.932 288.347 125.496 289.538 127.261 290.643L128.131 291.176C128.329 291.294 128.527 291.413 128.724 291.531C130.973 292.867 133.298 294.248 133.511 295.863C133.731 297.521 131.842 299.507 130.014 301.427C128.092 303.448 126.276 305.356 126.296 307.295C126.317 309.358 128.34 311.367 130.295 313.309C132.103 315.105 133.972 316.962 133.835 318.506C133.722 319.771 132.509 320.951 131.016 322.087L130.2 322.689ZM195.676 188.523C194.127 185.447 192.663 182.541 192.735 179.957C192.851 175.725 194.66 171.956 196.257 168.63C197.566 165.901 198.803 163.323 199.013 160.794C199.995 148.919 195.19 145.867 190.61 143.938C185.361 141.727 176.282 143.388 171.645 149.307C169.407 152.163 168.154 155.961 166.942 159.634C165.678 163.462 164.484 167.077 162.291 169.606C160.167 172.054 156.692 173.597 153.331 175.09C149.449 176.815 145.434 178.598 143.453 181.821C141.378 185.195 141.597 189.677 141.809 194.013C141.993 197.768 142.167 201.314 140.975 204.145C139.724 207.119 136.858 209.644 134.086 212.084C130.914 214.877 127.634 217.766 126.653 221.42C125.645 225.18 127.036 229.379 128.382 233.441C129.584 237.072 130.72 240.501 130.272 243.587C129.793 246.874 127.545 250.076 125.37 253.171C122.993 256.557 120.534 260.057 120.375 263.723C120.273 266.069 121.021 268.375 122.087 270.641C121.788 270.586 121.488 270.534 121.184 270.48C118.753 270.053 116.238 269.612 115.239 268.358C114.327 267.213 114.454 264.771 114.577 262.41C114.732 259.433 114.892 256.356 113.13 254.916C111.576 253.647 109.844 253.641 108.169 253.635C106.713 253.63 105.207 253.625 103.706 252.822C102.839 252.357 101.975 251.021 101.059 249.608C99.0503 246.503 96.2993 242.253 91.1073 244.248C91.0203 244.283 90.9453 244.339 90.8893 244.412L90.8883 244.411C89.9603 245.356 85.6233 250.48 91.4253 258.644C92.0253 259.487 90.7093 260.918 89.3173 262.433C87.7213 264.17 85.9123 266.139 86.0033 268.233C86.0793 269.979 88.1483 271.453 90.3383 273.012C92.4253 274.498 94.5843 276.036 94.7683 277.644C94.9163 278.935 93.3273 280.73 91.7903 282.466C89.9193 284.58 87.9843 286.766 88.3673 288.805C88.7083 290.62 91.0353 291.819 93.4993 293.086C95.7103 294.225 97.9963 295.401 98.3853 296.87C98.7323 298.176 97.4033 300.219 96.1173 302.194C94.5983 304.528 93.0283 306.942 93.6933 308.853C94.3133 310.629 96.8203 311.469 99.4743 312.357C101.808 313.138 104.222 313.946 104.821 315.31C105.371 316.561 104.374 318.796 103.409 320.958C102.28 323.492 101.111 326.111 102.065 327.877C102.964 329.543 105.582 329.97 108.354 330.422C110.775 330.817 113.278 331.224 114.086 332.465C114.833 333.614 114.214 335.983 113.614 338.275C112.913 340.956 112.187 343.73 113.417 345.317C114.605 346.849 116.344 346.543 117.879 346.277C119.218 346.042 120.485 345.833 121.438 346.681C121.611 350.698 121.693 354.984 121.693 359.653V366.734H106.236C105.959 366.734 105.736 366.957 105.736 367.234C105.736 367.51 105.959 367.734 106.236 367.734H151.781C152.057 367.734 152.281 367.51 152.281 367.234C152.281 366.957 152.057 366.734 151.781 366.734H134.729C134.736 361.442 134.844 356.205 135.051 351.016C137.219 350.868 139.096 345.656 141.246 339.67C142.501 336.179 143.798 332.569 145.033 330.491C146.729 327.638 149.461 325.092 152.103 322.629C154.841 320.078 157.671 317.439 159.265 314.497C161.039 311.226 160.758 307.036 160.486 302.986C160.236 299.256 159.999 295.733 161.292 293.076C162.749 290.08 165.98 287.863 169.105 285.719C172.426 283.441 175.562 281.288 176.873 278.218C178.36 274.737 177.657 270.552 176.978 266.506C176.367 262.864 175.79 259.424 176.779 256.699C177.928 253.53 180.902 250.96 183.777 248.476C186.814 245.851 189.683 243.371 190.613 240.203C191.708 236.463 190.459 232.331 189.251 228.336C188.204 224.873 187.216 221.603 187.808 218.861C188.54 215.475 191.131 212.473 193.636 209.57C196.236 206.556 198.692 203.71 199.105 200.519C199.639 196.389 197.624 192.39 195.676 188.523V188.523Z" fill="black"/></g></g></g><g id="Master/Character/Sitting" transform="translate(363.402 123) scale(1 1)"><g id="Master/Character/Sitting"><g id="Lower Body Sitting" transform="translate(17 227) scale(1 1)"><g id="Lower Body Sitting/Simple Chair"><g id="Simple Chair"><path id="Chair" fill-rule="evenodd" clip-rule="evenodd" d="M238.448 139.834V78.2976C238.448 76.1436 236.701 74.3966 234.547 74.3966H154.652C152.498 74.3966 150.751 76.1436 150.751 78.2976V139.834H146.458C146.458 145.133 150.754 149.428 156.052 149.428H166.983V235.415C166.983 236.554 167.906 237.477 169.046 237.477H174.286C175.425 237.477 176.349 236.554 176.349 235.415V149.428H212.85V235.415C212.85 236.554 213.774 237.477 214.913 237.477H220.154C221.293 237.477 222.216 236.554 222.216 235.415V149.428H233.147C238.446 149.428 242.741 145.133 242.741 139.834H238.448Z" fill="#5D2E00"/><path id="Fill 3" fill-rule="evenodd" clip-rule="evenodd" d="M176.349 148.92H212.85C213.131 148.92 213.359 149.148 213.359 149.428V235.415C213.359 236.272 214.056 236.969 214.913 236.969H220.154C221.011 236.969 221.708 236.272 221.708 235.415V149.428C221.708 149.148 221.935 148.92 222.216 148.92H233.147C237.986 148.92 241.954 145.117 242.219 140.342H238.448C238.167 140.342 237.94 140.115 237.94 139.834V78.2975C237.94 76.4265 236.418 74.9045 234.547 74.9045H154.652C152.782 74.9045 151.26 76.4265 151.26 78.2975V139.834C151.26 140.115 151.032 140.342 150.751 140.342H146.981C147.245 145.117 151.213 148.92 156.053 148.92H166.983C167.264 148.92 167.492 149.148 167.492 149.428V235.415C167.492 236.272 168.189 236.969 169.046 236.969H174.286C175.143 236.969 175.841 236.272 175.841 235.415V149.428C175.841 149.148 176.068 148.92 176.349 148.92M220.154 237.985H214.913C213.495 237.985 212.342 236.832 212.342 235.415V149.937H176.857V235.415C176.857 236.832 175.704 237.985 174.286 237.985H169.046C167.628 237.985 166.475 236.832 166.475 235.415V149.937H156.053C150.482 149.937 145.95 145.405 145.95 139.834C145.95 139.553 146.178 139.326 146.458 139.326H150.243V78.2975C150.243 75.8665 152.221 73.8885 154.652 73.8885H234.547C236.978 73.8885 238.956 75.8665 238.956 78.2975V139.326H242.741C243.022 139.326 243.249 139.553 243.249 139.834C243.249 145.405 238.718 149.937 233.147 149.937H222.724V235.415C222.724 236.832 221.571 237.985 220.154 237.985" fill="black"/><path id="Fill 7" fill-rule="evenodd" clip-rule="evenodd" d="M242.741 140.342H151.751C151.47 140.342 151.243 140.114 151.243 139.834C151.243 139.553 151.47 139.325 151.751 139.325H242.741C243.022 139.325 243.249 139.553 243.249 139.834C243.249 140.114 243.022 140.342 242.741 140.342" fill="black"/><path id="Fill 11" fill-rule="evenodd" clip-rule="evenodd" d="M226.673 149.936H162.526C162.245 149.936 162.018 149.708 162.018 149.428C162.018 149.147 162.245 148.919 162.526 148.919H226.673C226.954 148.919 227.181 149.147 227.181 149.428C227.181 149.708 226.954 149.936 226.673 149.936" fill="black"/><path id="Shoes" fill-rule="evenodd" clip-rule="evenodd" d="M147.012 218.035H88.8725L88.7185 218.174C85.9725 220.644 82.5885 222.294 78.9505 222.933L74.8825 223.648L71.8565 224.18C64.8745 225.407 59.0845 230.283 56.6875 236.954L56.4995 237.477H149.539L147.012 218.035Z" fill="#4B69FD"/><path id="Fill 15" fill-rule="evenodd" clip-rule="evenodd" d="M57.2114 236.977H148.969L146.572 218.535L89.0534 218.545C86.2344 221.082 82.7704 222.769 79.0364 223.426L71.9434 224.673C65.2054 225.856 59.5744 230.565 57.2114 236.977M149.538 237.977H56.4994C56.3364 237.977 56.1844 237.898 56.0904 237.765C55.9974 237.631 55.9744 237.461 56.0294 237.308L56.2174 236.786C58.6694 229.961 64.6284 224.943 71.7704 223.687L78.8634 222.44C82.4124 221.817 85.7044 220.213 88.3834 217.802L88.5374 217.664C88.6294 217.581 88.7484 217.535 88.8724 217.535H147.011C147.263 217.535 147.474 217.722 147.507 217.971L150.034 237.413C150.053 237.555 150.009 237.699 149.914 237.807C149.819 237.915 149.682 237.977 149.538 237.977" fill="black"/><path id="Skin" fill-rule="evenodd" clip-rule="evenodd" d="M138.764 185.884C139.48 174.997 130.842 165.297 119.436 165.297C119.406 165.297 119.377 165.3 119.347 165.3C119.318 165.3 119.29 165.297 119.262 165.297C116.744 165.297 114.36 165.805 112.191 166.713C106.903 168.849 102.688 173.261 100.933 178.951L88.8726 218.035H147.012L138.764 185.884Z" fill="#fbefe3"/><path id="Fill 19" fill-rule="evenodd" clip-rule="evenodd" d="M89.5499 217.535H146.367L138.279 186.008C138.266 185.957 138.261 185.904 138.265 185.851C138.604 180.698 136.754 175.557 133.188 171.75C129.593 167.911 124.709 165.797 119.436 165.797L119.274 165.798H119.268C116.877 165.798 114.565 166.261 112.383 167.174C107.086 169.314 103.089 173.66 101.41 179.098L89.5499 217.535ZM147.012 218.535H88.8729C88.7139 218.535 88.5639 218.46 88.4699 218.332C88.3759 218.204 88.3479 218.039 88.3949 217.888L100.455 178.804C102.222 173.077 106.431 168.5 112.003 166.249C114.304 165.286 116.748 164.797 119.261 164.797L119.391 165.299L119.362 164.799H119.372C124.995 164.799 130.134 167.025 133.918 171.066C137.653 175.056 139.601 180.435 139.268 185.837L147.496 217.911C147.535 218.06 147.502 218.22 147.407 218.342C147.312 218.464 147.166 218.535 147.012 218.535V218.535Z" fill="black"/><path id="Fill 21" fill-rule="evenodd" clip-rule="evenodd" d="M125.157 226.099C125.157 227.647 123.902 228.902 122.354 228.902C120.806 228.902 119.552 227.647 119.552 226.099C119.552 224.551 120.806 223.296 122.354 223.296C123.902 223.296 125.157 224.551 125.157 226.099" fill="#EFF2F7"/><path id="Fill 23" fill-rule="evenodd" clip-rule="evenodd" d="M122.355 223.796C121.085 223.796 120.052 224.829 120.052 226.099C120.052 227.368 121.085 228.401 122.355 228.401C123.625 228.401 124.658 227.368 124.658 226.099C124.658 224.829 123.625 223.796 122.355 223.796M122.355 229.401C120.534 229.401 119.052 227.92 119.052 226.099C119.052 224.277 120.534 222.796 122.355 222.796C124.176 222.796 125.658 224.277 125.658 226.099C125.658 227.92 124.176 229.401 122.355 229.401" fill="black"/><path id="Fill 25" fill-rule="evenodd" clip-rule="evenodd" d="M144.272 226.099C144.272 227.647 143.017 228.902 141.469 228.902C139.921 228.902 138.667 227.647 138.667 226.099C138.667 224.551 139.921 223.296 141.469 223.296C143.017 223.296 144.272 224.551 144.272 226.099" fill="#EFF2F7"/><path id="Fill 27" fill-rule="evenodd" clip-rule="evenodd" d="M141.469 223.796C140.199 223.796 139.166 224.829 139.166 226.099C139.166 227.368 140.199 228.401 141.469 228.401C142.739 228.401 143.772 227.368 143.772 226.099C143.772 224.829 142.739 223.796 141.469 223.796M141.469 229.401C139.648 229.401 138.166 227.92 138.166 226.099C138.166 224.277 139.648 222.796 141.469 222.796C143.29 222.796 144.772 224.277 144.772 226.099C144.772 227.92 143.29 229.401 141.469 229.401" fill="black"/><path id="Fill 29" fill-rule="evenodd" clip-rule="evenodd" d="M130.826 237.977C130.55 237.977 130.326 237.753 130.326 237.477V218.535H88.8726C88.5966 218.535 88.3726 218.311 88.3726 218.035C88.3726 217.759 88.5966 217.535 88.8726 217.535H130.826C131.102 217.535 131.326 217.759 131.326 218.035V237.477C131.326 237.753 131.102 237.977 130.826 237.977" fill="black"/><path id="Fill 31" fill-rule="evenodd" clip-rule="evenodd" d="M130.826 218.535C130.784 218.535 130.743 218.53 130.701 218.519C130.433 218.45 130.272 218.178 130.341 217.91L137.701 189.371C137.771 189.104 138.044 188.944 138.311 189.012C138.578 189.081 138.739 189.354 138.67 189.621L131.31 218.16C131.251 218.386 131.049 218.535 130.826 218.535" fill="black"/><path id="Pants" fill-rule="evenodd" clip-rule="evenodd" d="M158.434 140.775L202.488 140.292H205.425C227.952 140.292 245.35 120.498 242.46 98.157L236.753 69.5H157.79L156.582 89.795L120.367 97.799C104.884 101.222 94.3066 115.551 95.5986 131.356L98.5186 167.077L85.0386 211.518L136.667 216.007L138.605 209.947H147.217L143.626 195.805L158.434 140.775Z" fill="#409B81"/><g id="Group 37"><path id="Fill 35" fill-rule="evenodd" clip-rule="evenodd" d="M85.6962 211.073L136.312 215.474L138.129 209.794C138.195 209.587 138.388 209.447 138.605 209.447H146.574L143.141 195.928C143.12 195.845 143.121 195.758 143.143 195.675L157.951 140.645C158.009 140.428 158.204 140.277 158.428 140.275L202.482 139.791H205.425C216.018 139.791 226.104 135.228 233.098 127.272C240.091 119.315 243.323 108.727 241.963 98.2214L236.313 70.0004H158.261L157.081 89.8244C157.067 90.0484 156.908 90.2354 156.689 90.2834L120.475 98.2874C105.312 101.639 94.8322 115.838 96.0972 131.315L99.0172 167.036C99.0222 167.099 99.0152 167.162 98.9972 167.222L85.6962 211.073ZM136.623 216.505L84.9952 212.016C84.8452 212.003 84.7092 211.923 84.6242 211.798C84.5402 211.673 84.5162 211.517 84.5602 211.373L98.0122 167.023L95.1002 131.396C93.7952 115.423 104.611 100.77 120.259 97.3114L156.105 89.3884L157.29 69.4704C157.306 69.2064 157.525 69.0004 157.79 69.0004H236.752C237.004 69.0004 237.216 69.1864 237.248 69.4364L242.956 98.0934C244.351 108.884 241.032 119.76 233.849 127.932C226.665 136.104 216.306 140.791 205.425 140.791H202.487L158.818 141.27L144.142 195.809L147.702 209.823C147.739 209.973 147.706 210.132 147.611 210.254C147.517 210.375 147.371 210.447 147.217 210.447H138.97L137.143 216.159C137.077 216.368 136.883 216.507 136.667 216.507C136.653 216.507 136.638 216.507 136.623 216.505Z" fill="black"/></g><path id="Fill 38" fill-rule="evenodd" clip-rule="evenodd" d="M98.5181 167.577C98.4641 167.577 98.4081 167.568 98.3531 167.549C98.0931 167.458 97.9551 167.173 98.0461 166.912L113.668 122.065C116.875 112.86 124.462 106.066 133.965 103.891L187.676 91.5983C187.942 91.5353 188.214 91.7043 188.275 91.9743C188.337 92.2443 188.169 92.5123 187.899 92.5733L134.187 104.866C125.023 106.963 117.705 113.516 114.613 122.394L98.9901 167.242C98.9181 167.448 98.7251 167.577 98.5181 167.577" fill="black"/><path id="Fill 40" fill-rule="evenodd" clip-rule="evenodd" d="M149.207 91.9248C148.979 91.9248 148.773 91.7678 148.72 91.5368C148.658 91.2678 148.826 90.9998 149.096 90.9378L159.191 88.6158C159.462 88.5548 159.729 88.7218 159.79 88.9908C159.853 89.2598 159.685 89.5288 159.415 89.5908L149.32 91.9118C149.282 91.9208 149.244 91.9248 149.207 91.9248" fill="black"/><path id="Fill 42" fill-rule="evenodd" clip-rule="evenodd" d="M136.667 216.508C136.617 216.508 136.565 216.501 136.515 216.484C136.251 216.4 136.106 216.119 136.191 215.856L145.795 185.821C145.879 185.558 146.159 185.411 146.424 185.497C146.687 185.581 146.832 185.862 146.748 186.126L137.143 216.16C137.075 216.373 136.879 216.508 136.667 216.508" fill="black"/><path id="Fill 44" fill-rule="evenodd" clip-rule="evenodd" d="M156.105 149.927C156.062 149.927 156.019 149.922 155.975 149.91C155.709 149.839 155.55 149.565 155.622 149.298L160.757 130.11C160.829 129.844 161.104 129.686 161.37 129.756C161.636 129.827 161.794 130.101 161.723 130.368L156.587 149.556C156.528 149.78 156.326 149.927 156.105 149.927" fill="black"/><path id="Fill 46" fill-rule="evenodd" clip-rule="evenodd" d="M56.6875 236.954L56.4995 237.476H76.0655C76.3855 236.076 76.5995 234.569 76.5995 233.001C76.5995 226.153 74.8825 223.647 74.8825 223.647L71.8565 224.18C64.8745 225.407 59.0845 230.282 56.6875 236.954" fill="#EFF2F7"/><path id="Fill 48" fill-rule="evenodd" clip-rule="evenodd" d="M57.2119 236.976H75.6639C75.9529 235.601 76.0999 234.266 76.0999 233.001C76.0999 227.648 75.0239 225.005 74.6199 224.201L71.9439 224.672C65.2059 225.856 59.5749 230.564 57.2119 236.976V236.976ZM76.0659 237.976H56.4999C56.3369 237.976 56.1849 237.897 56.0909 237.764C55.9979 237.631 55.9749 237.46 56.0299 237.308L56.2179 236.785C58.6689 229.961 64.6289 224.942 71.7709 223.687L74.7959 223.155C74.9899 223.122 75.1839 223.204 75.2949 223.365C75.3689 223.472 77.0999 226.078 77.0999 233.001C77.0999 234.459 76.9159 236.002 76.5529 237.588C76.5009 237.815 76.2989 237.976 76.0659 237.976V237.976Z" fill="black"/><path id="Fill 50" fill-rule="evenodd" clip-rule="evenodd" d="M137.868 212.752C137.853 212.752 137.837 212.752 137.822 212.75L86.2194 207.972C85.9444 207.946 85.7414 207.703 85.7674 207.428C85.7924 207.153 86.0344 206.946 86.3114 206.976L137.913 211.754C138.189 211.78 138.391 212.023 138.366 212.298C138.341 212.557 138.123 212.752 137.868 212.752" fill="black"/><path id="Fill 52" fill-rule="evenodd" clip-rule="evenodd" d="M146.242 207.38H139.833C139.557 207.38 139.333 207.156 139.333 206.88C139.333 206.604 139.557 206.38 139.833 206.38H146.242C146.518 206.38 146.742 206.604 146.742 206.88C146.742 207.156 146.518 207.38 146.242 207.38" fill="black"/><path id="Fill 54" fill-rule="evenodd" clip-rule="evenodd" d="M58.641 233.001C57.856 234.23 57.192 235.549 56.687 236.954L56.5 237.477H149.539V233.001H58.641Z" fill="#EFF2F7"/><path id="Fill 56" fill-rule="evenodd" clip-rule="evenodd" d="M57.2114 236.977H149.039V233.501H58.9174C58.2234 234.62 57.6504 235.787 57.2114 236.977M149.539 237.977H56.5004C56.3374 237.977 56.1844 237.898 56.0914 237.765C55.9974 237.632 55.9744 237.461 56.0294 237.308L56.2164 236.786C56.7174 235.392 57.3914 234.028 58.2194 232.732C58.3114 232.588 58.4704 232.501 58.6414 232.501H149.539C149.815 232.501 150.039 232.725 150.039 233.001V237.477C150.039 237.753 149.815 237.977 149.539 237.977" fill="black"/><path id="Fill 58" fill-rule="evenodd" clip-rule="evenodd" d="M86.2656 220.052L90.0376 222.933Z" fill="#EFF2F7"/><path id="Fill 60" fill-rule="evenodd" clip-rule="evenodd" d="M90.0371 223.433C89.9311 223.433 89.8241 223.4 89.7341 223.33L85.9621 220.45C85.7421 220.282 85.7001 219.968 85.8681 219.748C86.0361 219.53 86.3501 219.487 86.5691 219.655L90.3411 222.536C90.5601 222.703 90.6021 223.017 90.4351 223.237C90.3361 223.365 90.1871 223.433 90.0371 223.433" fill="black"/><path id="Fill 62" fill-rule="evenodd" clip-rule="evenodd" d="M82.1167 222.207L85.8887 225.088Z" fill="#EFF2F7"/><path id="Fill 64" fill-rule="evenodd" clip-rule="evenodd" d="M85.8884 225.588C85.7824 225.588 85.6754 225.555 85.5854 225.485L81.8134 222.605C81.5944 222.437 81.5524 222.123 81.7194 221.903C81.8874 221.684 82.2004 221.641 82.4204 221.81L86.1924 224.691C86.4114 224.859 86.4534 225.172 86.2864 225.392C86.1874 225.52 86.0384 225.588 85.8884 225.588" fill="black"/></g></g></g><g id="Head" transform="translate(193 182) scale(1 1)"><g id="Head/Relax"><path id="Path 2" fill-rule="evenodd" clip-rule="evenodd" d="M12.5 43.7363C12.5 43.7363 16.0343 41.1592 15.4058 30.5163C15.4058 30.5163 20.9953 33.4358 27.0934 28.4994L28.5 43.6134C28.5 43.6134 24.2721 48.9732 19.8389 48.4534C15.4058 47.9337 12.5 43.7363 12.5 43.7363Z" fill="#fbefe3"/><path id="Path 2 Copy" fill-rule="evenodd" clip-rule="evenodd" d="M15.6185 29.1575C19.1685 31.0897 22.873 30.4235 26.799 27.1117C27.1106 26.8489 27.5511 27.076 27.5907 27.5201L28.9973 43.2699C29.0117 43.4301 28.9677 43.5899 28.876 43.711C25.9592 47.5642 22.9235 49.332 19.7865 48.9487C16.6923 48.5707 14.1229 46.8497 12.1037 43.8105C11.9264 43.5435 11.9825 43.1583 12.2257 42.9735C14.3851 41.3327 15.3152 36.9233 14.9069 29.7193C14.882 29.2794 15.274 28.9699 15.6185 29.1575ZM27.8541 43.348L26.5503 29L26.2853 29.199C22.7217 31.8029 19.2465 32.4147 15.9004 31.0061L15.7525 30.9417L15.7761 31.5369C15.9754 37.6673 15.094 41.732 13.0614 43.7146L13 43.7713L13.1374 43.9575C14.8463 46.2141 16.9214 47.5258 19.3801 47.9095L19.7177 47.956C22.5083 48.2909 25.2631 46.7152 28 43.1638L27.8541 43.348Z" fill="black"/><g id="Relax"><path id="Skin" fill-rule="evenodd" clip-rule="evenodd" d="M19.7155 31.4076C12.9695 31.4076 7.50049 25.6076 7.50049 18.4536C7.50049 11.2996 12.9695 5.49963 19.7155 5.49963C26.4605 5.49963 31.9295 11.2996 31.9295 18.4536C31.9295 25.6076 26.4605 31.4076 19.7155 31.4076Z" fill="#fbefe3"/><path id="Fill 119" fill-rule="evenodd" clip-rule="evenodd" d="M19.715 6C13.256 6 8 11.586 8 18.454C8 25.321 13.256 30.907 19.715 30.907C26.174 30.907 31.429 25.321 31.429 18.454C31.429 11.586 26.174 6 19.715 6M19.715 31.907C12.704 31.907 7 25.872 7 18.454C7 11.035 12.704 5 19.715 5C26.726 5 32.429 11.035 32.429 18.454C32.429 25.872 26.726 31.907 19.715 31.907" fill="black"/><path id="Fill 125" fill-rule="evenodd" clip-rule="evenodd" d="M16.2932 22.6103C16.2732 22.6103 16.2532 22.6093 16.2322 22.6073L14.1902 22.3593C14.0462 22.3413 13.9182 22.2633 13.8362 22.1433C13.7552 22.0243 13.7302 21.8753 13.7672 21.7353L14.3852 19.3833C14.4562 19.1173 14.7312 18.9613 14.9962 19.0273C15.2632 19.0983 15.4222 19.3713 15.3522 19.6383L14.8792 21.4353L16.3532 21.6133C16.6272 21.6473 16.8222 21.8963 16.7892 22.1703C16.7582 22.4243 16.5432 22.6103 16.2932 22.6103" fill="black"/><path id="Fill 127" fill-rule="evenodd" clip-rule="evenodd" d="M19.9589 16.7226C19.4339 16.7226 18.7539 16.6316 18.0459 16.2916C17.7969 16.1726 17.6919 15.8746 17.8119 15.6246C17.9309 15.3766 18.2289 15.2696 18.4789 15.3906C19.6129 15.9336 20.6709 15.6446 20.6819 15.6416C20.9449 15.5706 21.2229 15.7196 21.2989 15.9846C21.3759 16.2486 21.2259 16.5246 20.9609 16.6016C20.9309 16.6116 20.5399 16.7226 19.9589 16.7226" fill="black"/><path id="Fill 129" fill-rule="evenodd" clip-rule="evenodd" d="M10.6998 16.9062C10.5728 16.9062 10.4458 16.8582 10.3488 16.7622C10.1518 16.5682 10.1498 16.2512 10.3438 16.0552C11.5068 14.8772 12.9228 14.7812 12.9828 14.7772C13.2578 14.7712 13.4938 14.9712 13.5108 15.2472C13.5268 15.5222 13.3178 15.7582 13.0438 15.7752C13.0258 15.7772 11.9368 15.8642 11.0558 16.7572C10.9578 16.8562 10.8288 16.9062 10.6998 16.9062" fill="black"/><path id="Fill 131" fill-rule="evenodd" clip-rule="evenodd" d="M15.8408 26.9321C14.9598 26.9321 14.3598 26.1921 14.2938 26.1061C14.1238 25.8891 14.1638 25.5741 14.3828 25.4051C14.5998 25.2361 14.9138 25.2761 15.0818 25.4921C15.1828 25.6181 15.5378 25.9551 15.8558 25.9321C16.1038 25.9261 16.3608 25.7391 16.6178 25.3771C16.7778 25.1521 17.0898 25.1001 17.3158 25.2601C17.5408 25.4201 17.5928 25.7331 17.4328 25.9571C16.9808 26.5921 16.4558 26.9201 15.8728 26.9321H15.8408Z" fill="black"/><path id="Fill 265" fill-rule="evenodd" clip-rule="evenodd" d="M19.6171 20.9062C18.9541 20.9062 18.3621 20.6222 18.0401 20.3772C17.8201 20.2102 17.7771 19.8962 17.9441 19.6772C18.1111 19.4582 18.4231 19.4132 18.6431 19.5792C18.7451 19.6552 19.6321 20.2712 20.4141 19.5992C20.6231 19.4202 20.9391 19.4432 21.1191 19.6532C21.2991 19.8632 21.2751 20.1782 21.0651 20.3582C20.5951 20.7622 20.0881 20.9062 19.6171 20.9062" fill="black"/><path id="Fill 267" fill-rule="evenodd" clip-rule="evenodd" d="M12.245 20.9062C11.582 20.9062 10.99 20.6222 10.668 20.3772C10.448 20.2102 10.405 19.8962 10.572 19.6772C10.739 19.4582 11.051 19.4132 11.271 19.5792C11.373 19.6552 12.26 20.2712 13.042 19.5992C13.251 19.4202 13.567 19.4432 13.747 19.6532C13.927 19.8632 13.903 20.1782 13.693 20.3582C13.223 20.7622 12.716 20.9062 12.245 20.9062" fill="black"/></g></g></g><g id="Upper Body" transform="translate(58 111) scale(1 1)"><g id="Upper Body/Phone"><g id="Phone"><path id="Skin" fill-rule="evenodd" clip-rule="evenodd" d="M223.817 153.607L197.084 161.31L198.783 165.292C198.783 165.292 180.904 153.211 175.427 148.541C169.951 143.87 166.085 131.467 163.508 127.601C160.931 123.735 155.454 124.057 154.005 125.709C152.555 127.36 153.682 128.567 153.682 128.567C153.682 128.567 144.823 123.252 141.602 127.118C138.38 130.983 144.018 134.849 144.018 134.849C144.018 134.849 134.837 130.822 133.375 135.171C131.913 139.521 137.414 141.937 137.414 141.937C136.528 141.715 135.631 142.115 134.919 142.613C133.825 143.378 133.072 144.592 133.011 145.925C132.828 150 138.326 151.128 139.99 151.376C136.376 150.993 135.481 154.902 135.481 154.902C134.918 160.46 141.28 160.138 141.28 160.138C154.73 158.93 163.025 165.775 163.025 165.775C163.025 165.775 183.481 200.406 209.092 197.185C234.702 193.963 223.817 153.607 223.817 153.607M97.3074 148.057C95.6964 154.661 95.5624 156.511 95.5624 156.511L85.4064 153.219C85.4064 153.219 61.5484 186.554 81.3604 198.957C101.172 211.359 116.474 161.749 116.474 161.749C116.474 161.749 119.842 158.848 122.83 154.907L126.974 138.433C126.515 137.26 125.978 136.782 125.978 136.782C125.978 136.782 126.488 137.105 127.218 137.461L129.314 129.128C127.312 127.781 124.264 126.552 119.696 125.668C104.716 122.769 98.9184 141.453 97.3074 148.057" fill="#fbefe3"/><path id="Tshirt" fill-rule="evenodd" clip-rule="evenodd" d="M118.419 159.919L118.032 162.811L113.938 186.791H180.941C170.02 177.603 163.024 165.776 163.024 165.776C163.024 165.776 154.729 158.93 141.279 160.138C141.279 160.138 134.917 160.461 135.481 154.902C135.481 154.902 136.375 150.993 139.99 151.377C138.325 151.128 132.827 150.001 133.011 145.925C133.071 144.592 133.825 143.378 134.918 142.613C135.63 142.115 136.527 141.715 137.414 141.937C137.414 141.937 131.912 139.521 133.375 135.172C134.836 130.823 144.018 134.85 144.018 134.85C144.018 134.85 138.38 130.984 141.602 127.118C144.823 123.252 153.682 128.568 153.682 128.568C153.682 128.568 152.554 127.361 154.004 125.71C155.454 124.058 160.93 123.736 163.507 127.602C166.085 131.467 169.95 143.87 175.427 148.541C178.761 151.385 186.686 156.971 192.381 160.909L190.736 148.617L196.019 161.617L197.083 161.31L223.816 153.607L226.045 152.966L216.474 139.007C205.527 123.043 187.415 113.5 168.057 113.5H163.36C162.102 116.149 158.988 118.029 155.334 118.041C151.679 118.029 148.565 116.149 147.308 113.5H142.61C123.253 113.5 103.098 122.751 92.1516 138.715L83.3066 152.539L94.1146 156.043L95.5616 156.511C95.5616 156.511 95.6946 154.662 97.3056 148.058C98.9166 141.454 104.715 122.769 119.695 125.669C134.675 128.568 133.375 135.172 132.098 137.517C130.822 139.861 125.977 136.783 125.977 136.783C125.977 136.783 128.715 139.199 127.105 146.599C125.969 151.815 121.163 157.191 118.419 159.919" fill="#EFF2F7"/><path id="Phone_2" fill-rule="evenodd" clip-rule="evenodd" d="M141.279 160.138C141.279 160.138 134.917 160.46 135.48 154.902C135.48 154.902 136.375 150.993 139.989 151.376C138.325 151.128 132.827 150 133.01 145.925C133.071 144.592 133.824 143.378 134.918 142.613C135.63 142.115 136.527 141.715 137.413 141.937C137.413 141.937 131.912 139.521 133.374 135.172C134.836 130.823 144.017 134.849 144.017 134.849C144.017 134.849 138.38 130.984 141.601 127.118C144.393 123.767 151.411 127.309 153.235 128.314L153.337 127.909C153.201 127.436 153.208 126.739 153.838 125.918L154.423 123.59C154.773 122.199 153.929 120.788 152.539 120.439L135.268 116.095C133.878 115.745 132.467 116.589 132.117 117.979L122.731 155.297C122.382 156.687 123.225 158.098 124.615 158.448L141.886 162.791C143.277 163.141 144.687 162.298 145.037 160.907L145.259 160.023C143.985 159.992 142.667 160.013 141.279 160.138" fill="#FF5613"/><path id="Fill 7" fill-rule="evenodd" clip-rule="evenodd" d="M134.21 120.503C134.009 121.301 134.493 122.11 135.291 122.311C136.088 122.511 136.898 122.027 137.098 121.23C137.299 120.432 136.815 119.623 136.017 119.422C135.22 119.222 134.411 119.706 134.21 120.503" fill="#EFF2F7"/><path id="Fill 9" fill-rule="evenodd" clip-rule="evenodd" d="M134.694 120.625C134.561 121.154 134.883 121.692 135.412 121.826C135.669 121.89 135.934 121.851 136.161 121.715C136.388 121.58 136.548 121.364 136.612 121.107C136.677 120.852 136.638 120.585 136.502 120.359C136.367 120.132 136.151 119.972 135.894 119.907C135.365 119.771 134.827 120.096 134.694 120.625M135.657 122.856C135.494 122.856 135.33 122.836 135.168 122.795C134.104 122.528 133.457 121.445 133.724 120.381C133.992 119.317 135.074 118.668 136.139 118.938C136.654 119.067 137.088 119.39 137.361 119.846C137.633 120.301 137.712 120.836 137.582 121.352C137.453 121.867 137.13 122.301 136.674 122.574C136.362 122.761 136.012 122.856 135.657 122.856" fill="black"/><path id="Fill 11" fill-rule="evenodd" clip-rule="evenodd" d="M180.356 186.291H114.531L118.528 162.877L119.003 159.328C118.577 159.765 118.181 160.16 117.839 160.489L117.54 162.727L113.445 186.707C113.42 186.852 113.461 187.001 113.556 187.113C113.651 187.226 113.791 187.291 113.938 187.291H181.534C181.134 186.962 180.746 186.626 180.356 186.291" fill="black"/><path id="Fill 13" fill-rule="evenodd" clip-rule="evenodd" d="M226.457 152.683L216.886 138.725C205.842 122.617 187.588 113 168.057 113H163.359C163.166 113 162.991 113.112 162.908 113.286C161.686 115.86 158.712 117.531 155.335 117.541C151.955 117.531 148.981 115.86 147.759 113.286C147.677 113.112 147.501 113 147.308 113H142.61C122.301 113 102.333 122.983 91.7303 138.446L82.8853 152.27C82.8023 152.4 82.7833 152.562 82.8363 152.708C82.8883 152.854 83.0053 152.967 83.1523 153.015L85.1073 153.649C85.2973 153.37 85.4053 153.22 85.4053 153.22L95.5613 156.512C95.5613 156.512 95.5733 156.359 95.6243 156.006L84.0773 152.264L92.5643 138.998C102.977 123.813 122.621 114 142.61 114H146.999C148.462 116.758 151.693 118.53 155.335 118.541C158.974 118.53 162.205 116.758 163.668 114H168.057C187.258 114 205.203 123.454 216.061 139.29L225.24 152.677L196.312 161.012L191.199 148.429C191.104 148.195 190.849 148.069 190.608 148.134C190.364 148.199 190.207 148.434 190.24 148.683L191.825 160.525C192.205 160.787 192.576 161.044 192.937 161.293L191.753 152.449L195.555 161.805C195.651 162.043 195.91 162.168 196.157 162.098L197.281 161.774L197.083 161.31L223.816 153.608C223.816 153.608 223.862 153.778 223.94 154.093L226.183 153.446C226.337 153.402 226.461 153.286 226.516 153.135C226.569 152.983 226.548 152.815 226.457 152.683" fill="black"/><path id="Fill 16" fill-rule="evenodd" clip-rule="evenodd" d="M96.821 147.939C96.113 150.842 95.689 152.828 95.436 154.151C95.321 154.726 95.205 155.288 95.087 155.832L85.56 152.744C85.352 152.676 85.126 152.751 85 152.928C84.963 152.979 81.324 158.091 78.096 164.949C75.103 171.309 71.857 180.522 73.395 188.301C74.332 193.041 76.923 196.769 81.095 199.381C83.293 200.757 85.531 201.446 87.787 201.446C89.164 201.446 90.548 201.189 91.932 200.674C98.079 198.387 104.161 191.153 110.011 179.171C114.037 170.924 116.554 163.153 116.909 162.034C117.497 161.519 120.128 159.146 122.663 155.953C122.661 155.736 122.677 155.517 122.732 155.297L123.16 153.597C120.088 157.943 116.208 161.319 116.149 161.37C116.077 161.431 116.025 161.512 115.997 161.602C115.895 161.93 105.708 194.483 91.583 199.737C88.238 200.98 84.888 200.575 81.626 198.533C77.697 196.073 75.258 192.566 74.376 188.109C71.717 174.659 83.85 156.364 85.604 153.809L94.868 156.812C91.868 169.967 88.013 173.564 87.956 173.616C87.75 173.797 87.729 174.112 87.91 174.32C88.009 174.433 88.148 174.491 88.287 174.491C88.404 174.491 88.521 174.45 88.616 174.367C88.797 174.209 92.789 170.574 95.879 156.885C95.98 156.799 96.05 156.682 96.06 156.548C96.061 156.537 96.124 155.794 96.547 153.691C96.55 153.677 96.552 153.663 96.555 153.648C96.813 152.368 97.204 150.591 97.793 148.176C99.63 140.643 105.437 123.418 119.601 126.159C123.796 126.971 127.026 128.156 129.183 129.65L129.444 128.611C127.186 127.136 123.965 125.985 119.791 125.178C104.779 122.272 98.726 140.127 96.821 147.939M126.244 136.36L122.414 133.915C122.354 133.876 122.289 133.854 122.222 133.843C118.525 130.862 112.823 130.429 112.481 130.406C112.202 130.402 111.968 130.596 111.949 130.871C111.93 131.147 112.138 131.385 112.414 131.404C112.526 131.411 123.607 132.252 124.312 139.469C124.983 146.325 123.77 148.174 122.988 148.666C122.336 149.076 121.403 148.918 120.216 148.202C120.429 145.942 119.799 143.019 118.308 139.437C116.08 134.081 108.545 135.484 108.224 135.547C107.954 135.6 107.777 135.862 107.83 136.133C107.883 136.404 108.142 136.581 108.416 136.528C108.486 136.516 115.47 135.219 117.391 139.836C120.189 146.561 119.836 150.716 116.384 152.172C115.765 152.366 114.012 152.705 113.349 151.938C113.347 151.936 113.344 151.935 113.342 151.933C114.155 149.522 114.26 146.367 113.949 144.197C113.227 139.158 105.531 139.663 105.203 139.685C104.928 139.705 104.721 139.944 104.741 140.219C104.761 140.495 105 140.71 105.276 140.682C105.346 140.675 112.369 140.219 112.96 144.338C113.411 147.487 112.891 152.776 110.771 154.103C109.954 154.613 108.919 154.452 107.695 153.624C104.196 151.255 107.514 145.222 107.549 145.161C107.683 144.92 107.597 144.616 107.356 144.481C107.116 144.346 106.811 144.431 106.676 144.672C106.623 144.768 106.169 145.601 105.758 146.762C105.323 146.567 105.185 145.462 105.228 144.768C105.246 144.493 105.037 144.255 104.761 144.237C104.486 144.212 104.249 144.427 104.23 144.703C104.214 144.954 104.106 147.173 105.392 147.696C105.414 147.705 105.437 147.703 105.459 147.709C104.851 149.919 104.691 152.798 107.134 154.452C108.167 155.151 109.038 155.394 109.75 155.394C110.398 155.394 110.914 155.193 111.301 154.951C111.995 154.517 112.537 153.791 112.956 152.902C113.484 153.28 114.156 153.41 114.794 153.41C115.767 153.41 116.641 153.138 116.729 153.109C118.509 152.36 119.615 151.069 120.05 149.25C120.828 149.668 121.541 149.891 122.176 149.891C122.669 149.891 123.118 149.765 123.52 149.512C125.258 148.42 125.859 145.008 125.307 139.372C125.195 138.224 124.86 137.227 124.374 136.352L125.664 137.176C125.763 137.277 126.345 137.922 126.742 139.356L127.343 136.965C126.885 136.738 126.491 136.516 126.246 136.36C126.245 136.36 126.245 136.36 126.244 136.36M221.33 189.445C218.558 193.574 214.42 196.011 209.029 196.689C184.042 199.826 163.658 165.865 163.455 165.522C163.426 165.472 163.388 165.427 163.343 165.39C163.027 165.129 156.052 159.492 144.502 159.492C143.457 159.492 142.373 159.539 141.256 159.639C141.225 159.644 138.382 159.758 136.88 158.174C136.143 157.398 135.841 156.314 135.968 155.014C136.002 154.869 136.779 151.675 139.736 151.847C140.121 151.908 140.374 151.933 140.428 151.939C140.474 151.943 140.517 151.933 140.561 151.925C142.976 152.338 146.964 153.087 149.429 153.909C149.482 153.926 149.535 153.935 149.588 153.935C149.797 153.935 149.992 153.802 150.062 153.593C150.149 153.331 150.008 153.047 149.746 152.96C146.047 151.727 139.28 150.696 138.699 150.609C136.579 150.087 133.382 148.823 133.511 145.948C133.562 144.823 134.195 143.73 135.205 143.023C135.99 142.474 136.693 142.273 137.293 142.422C137.309 142.426 137.325 142.422 137.342 142.425C137.358 142.427 137.371 142.436 137.387 142.437C137.415 142.438 138.551 142.51 140.415 142.876L148.921 145.535C149.945 145.974 151.003 146.47 152.09 147.041C152.164 147.08 152.243 147.099 152.322 147.099C152.502 147.099 152.675 147.002 152.764 146.831C152.893 146.587 152.799 146.285 152.554 146.156C144.748 142.052 138.379 141.501 137.538 141.444C136.899 141.145 132.621 138.985 133.849 135.331C134.059 134.705 134.465 134.267 135.088 133.991C137.901 132.744 143.759 135.282 143.817 135.308C143.829 135.313 143.842 135.312 143.854 135.316C143.865 135.32 143.873 135.328 143.884 135.332C143.923 135.342 146.076 135.948 148.716 137.064L151.609 138.427C152.808 139.058 153.991 139.776 155.028 140.579C155.119 140.649 155.227 140.683 155.334 140.683C155.483 140.683 155.631 140.616 155.73 140.489C155.899 140.271 155.859 139.957 155.64 139.788C151.387 136.497 145.026 134.617 144.239 134.393C143.835 134.099 141.438 132.271 141.138 130.092C141.009 129.147 141.286 128.279 141.986 127.439C144.897 123.943 153.341 128.945 153.426 128.997C153.433 129.002 153.443 129.002 153.451 129.006C153.458 129.01 153.463 129.017 153.471 129.021C153.505 129.037 156.919 130.651 160.079 133.607C160.175 133.698 160.298 133.742 160.42 133.742C160.553 133.742 160.687 133.689 160.785 133.584C160.974 133.382 160.964 133.066 160.761 132.877C157.747 130.056 154.602 128.459 154 128.166C153.84 127.949 153.397 127.16 154.381 126.039C154.976 125.361 156.461 124.955 157.999 125.06C160.135 125.201 161.992 126.229 163.092 127.879C163.927 129.132 164.92 131.348 166.069 133.913C168.429 139.179 171.366 145.733 175.103 148.921C179.715 152.855 193.215 162.108 197.309 164.896C197.382 164.947 197.469 165.006 197.576 165.078C198.143 165.463 198.48 165.69 198.503 165.707C198.562 165.747 198.632 165.75 198.698 165.761C200.282 166.65 202.86 167.794 205.629 167.794C205.882 167.794 206.137 167.784 206.393 167.764C206.668 167.742 206.874 167.501 206.852 167.226C206.83 166.951 206.591 166.752 206.314 166.767C205.798 166.808 205.283 166.797 204.776 166.751L199.399 164.996C199.308 164.947 199.223 164.899 199.138 164.851L197.765 161.634L223.459 154.231C224.299 157.674 228.867 178.218 221.33 189.445M226.44 166.921C225.907 159.5 224.316 153.537 224.3 153.477C224.265 153.348 224.179 153.238 224.063 153.172C223.945 153.106 223.807 153.088 223.678 153.127L196.945 160.83C196.807 160.869 196.694 160.966 196.632 161.096C196.571 161.225 196.568 161.375 196.624 161.506L197.654 163.921C193.325 160.971 180.248 151.995 175.752 148.161C172.186 145.119 169.301 138.679 166.982 133.503C165.814 130.897 164.806 128.647 163.924 127.324C162.65 125.413 160.514 124.224 158.065 124.062C156.186 123.94 154.441 124.455 153.629 125.379C152.952 126.15 152.744 126.884 152.766 127.496C150.165 126.158 143.97 123.498 141.218 126.798C140.339 127.853 139.979 129.008 140.148 130.231C140.324 131.506 141.053 132.642 141.808 133.51C139.691 132.852 136.653 132.205 134.683 133.076C133.801 133.466 133.202 134.118 132.901 135.013C131.899 137.995 133.884 140.304 135.772 141.588C135.401 141.727 135.02 141.932 134.632 142.204C133.369 143.086 132.577 144.47 132.512 145.903C132.369 149.065 135.19 150.601 137.506 151.326C136.012 152.127 135.231 153.746 134.984 154.852C134.815 156.519 135.21 157.869 136.157 158.866C137.98 160.783 141.17 160.643 141.325 160.636C153.791 159.516 161.851 165.496 162.643 166.111C163.732 167.908 182.301 197.894 205.754 197.894C206.875 197.894 208.011 197.825 209.154 197.681C214.845 196.965 219.221 194.381 222.162 190.001C226.593 183.397 226.934 173.805 226.44 166.921" fill="black"/><path id="Fill 19" fill-rule="evenodd" clip-rule="evenodd" d="M144.72 160.015L144.528 160.779C144.393 161.315 144.057 161.767 143.582 162.051C143.107 162.335 142.55 162.417 142.014 162.282L124.744 157.938C124.207 157.803 123.756 157.467 123.471 156.993C123.187 156.518 123.105 155.961 123.24 155.424L132.627 118.107C132.863 117.168 133.709 116.54 134.636 116.54C134.803 116.54 134.971 116.561 135.14 116.603L152.411 120.948C152.947 121.082 153.399 121.418 153.683 121.893C153.967 122.368 154.049 122.925 153.914 123.461L152.758 128.058C153.331 128.359 153.681 128.567 153.681 128.567C153.681 128.567 152.554 127.36 154.004 125.709C154.144 125.549 154.331 125.407 154.54 125.274L154.932 123.717C155.136 122.909 155.012 122.069 154.584 121.354C154.156 120.639 153.475 120.133 152.667 119.929L135.396 115.585C133.727 115.164 132.028 116.182 131.608 117.851L122.222 155.168C122.019 155.977 122.142 156.816 122.57 157.532C122.998 158.247 123.679 158.753 124.488 158.956L141.758 163.3C142.012 163.364 142.269 163.396 142.525 163.396C143.082 163.396 143.631 163.245 144.121 162.952C144.837 162.524 145.343 161.843 145.546 161.035L145.799 160.029C145.447 160.015 145.081 160.018 144.72 160.015" fill="black"/></g></g></g><g id="Accesories" transform="translate(193 182) scale(39 49)"><g id="Accesories/No Accesory" stroke="none" stroke-width="1" fill="none" fill-rule="evenodd" fill-opacity="0"/></g><g id="Hair" transform="translate(143 149) scale(1 1)"><g id="Hair/Short Messy"><g id="Short Messy"><path id="Hair" fill-rule="evenodd" clip-rule="evenodd" d="M77.1663 33.2827C69.4923 27.0117 62.7262 35.0567 62.7262 35.0567L56.4892 34.5637C56.4772 34.5637 56.4702 34.5777 56.4792 34.5867L59.4253 37.7217L54.5082 39.5817C54.4973 39.5867 54.4973 39.6027 54.5082 39.6067L58.9763 41.2247L54.5192 44.8407C54.5072 44.8487 54.5162 44.8667 54.5302 44.8637L61.7362 43.2667H74.2342C75.4422 43.2667 76.4572 44.1727 76.5942 45.3727L77.2232 50.8817C77.8702 50.7597 78.5893 50.8377 79.4503 51.8487C79.7703 52.2227 79.9963 52.6987 79.9923 53.1897C79.9833 54.4717 78.9412 55.5087 77.6572 55.5087C77.5792 55.5087 77.5062 55.4927 77.4312 55.4857L77.6882 61.2137C87.1222 61.0897 89.0713 47.8967 89.0713 47.8967C91.9583 30.4857 77.1663 33.2827 77.1663 33.2827" fill="#4b2500"/><path id="Fill 3" fill-rule="evenodd" clip-rule="evenodd" d="M77.9546 55.9933L78.1656 60.6943C86.6496 60.1363 88.5586 47.9493 88.5766 47.8233C89.4806 42.3733 88.7216 38.4243 86.3236 36.0743C82.9356 32.7563 77.3146 33.7643 77.2586 33.7743C77.1126 33.8013 76.9636 33.7633 76.8506 33.6703C69.6536 27.7883 63.3726 35.0663 63.1086 35.3793C63.0056 35.5023 62.8496 35.5713 62.6866 35.5553L57.7056 35.1613L59.7896 37.3803C59.9046 37.5013 59.9506 37.6723 59.9126 37.8353C59.8756 37.9973 59.7586 38.1313 59.6026 38.1903L55.9146 39.5843L59.1466 40.7543C59.3156 40.8163 59.4386 40.9643 59.4696 41.1413C59.4986 41.3193 59.4316 41.4993 59.2906 41.6133L56.4356 43.9303L61.6276 42.7793C61.6636 42.7713 61.6996 42.7673 61.7366 42.7673H74.2346C75.6976 42.7673 76.9256 43.8633 77.0916 45.3163L77.6646 50.3383C78.2626 50.3403 79.0176 50.5693 79.8316 51.5243C80.2626 52.0303 80.4966 52.6233 80.4926 53.1943C80.4826 54.6453 79.3696 55.8443 77.9546 55.9933V55.9933ZM77.6886 61.7133C77.4216 61.7133 77.2016 61.5033 77.1886 61.2363L76.9316 55.5083C76.9256 55.3633 76.9816 55.2233 77.0866 55.1233C77.1916 55.0243 77.3356 54.9743 77.4796 54.9883L77.6576 55.0093C78.6626 55.0093 79.4856 54.1913 79.4926 53.1863C79.4956 52.8553 79.3456 52.4953 79.0706 52.1733C78.3046 51.2743 77.7636 51.2883 77.3166 51.3723C77.1806 51.3993 77.0386 51.3673 76.9266 51.2843C76.8146 51.2013 76.7426 51.0763 76.7266 50.9383L76.0986 45.4293C75.9896 44.4823 75.1886 43.7673 74.2346 43.7673H61.7906L54.6386 45.3523C54.4026 45.4033 54.1616 45.2803 54.0626 45.0683C53.9636 44.8573 54.0276 44.5903 54.2106 44.4473L57.9746 41.3933L54.3386 40.0773C54.1436 40.0063 54.0036 39.8113 53.9996 39.6043C53.9966 39.3923 54.1346 39.1883 54.3326 39.1143L58.5486 37.5193L56.1146 34.9293C55.9756 34.7813 55.9376 34.5493 56.0216 34.3653C56.1056 34.1803 56.3066 34.0483 56.5096 34.0643L62.5206 34.5393C63.6606 33.3233 70.1126 27.0643 77.3056 32.7533C78.4726 32.5793 83.6226 32.0363 87.0176 35.3553C89.6676 37.9453 90.5236 42.1923 89.5646 47.9783C89.5456 48.1053 87.4416 61.5853 77.6946 61.7133H77.6886Z" fill="black"/></g></g></g><g id="Facial Hair" transform="translate(193 182) scale(1 1)"><g id="Facial Hair/Mustache and Beard"><g id="Bear and mustache"><path id="Mustache and Beard" fill-rule="evenodd" clip-rule="evenodd" d="M16.0954 28.1784C15.8484 28.1864 15.6544 28.1864 15.4054 28.1784C15.2804 28.1744 15.1624 28.1714 15.0514 28.1714C14.1284 28.1714 13.6734 28.3414 13.5144 29.0554C13.2364 30.3034 14.6584 32.0584 15.7484 33.1014C16.8394 32.0584 18.2594 30.3044 17.9824 29.0554C17.8044 28.2564 17.2514 28.1354 16.0954 28.1784M18.8084 24.2834C17.8204 23.9174 16.7834 23.7344 15.7484 23.7344C14.7124 23.7344 13.6754 23.9174 12.6894 24.2834C12.4114 24.3864 12.1564 24.4784 11.9194 24.5624C12.5504 24.5124 13.2914 24.6404 14.2574 24.4324C15.2184 24.2274 16.1894 24.2274 17.1454 24.4324C18.1124 24.6404 18.9454 24.5124 19.5774 24.5624C19.3414 24.4784 19.0854 24.3864 18.8084 24.2834" fill="#4b2500"/><path id="Fill 3" fill-rule="evenodd" clip-rule="evenodd" d="M15.7488 32.7932C14.7948 31.8802 13.5508 30.3452 13.7938 29.2532C13.9328 28.6282 14.3308 28.4792 15.1388 28.4792C15.2358 28.4792 15.3388 28.4812 15.4478 28.4852C15.6658 28.4922 15.8358 28.4922 16.0518 28.4852C17.0638 28.4482 17.5478 28.5532 17.7028 29.2532C17.9458 30.3462 16.7028 31.8812 15.7488 32.7932M16.0178 27.4862L15.7488 27.4922L15.4818 27.4862C14.7438 27.4602 13.1808 27.4062 12.8168 29.0362C12.3998 30.9122 14.4838 33.0052 15.2888 33.7302C15.3458 33.8242 15.4358 33.8982 15.5418 33.9432C15.5998 33.9672 15.6618 33.9792 15.7248 33.9792C15.7538 33.9792 15.7818 33.9772 15.8108 33.9722C15.8588 33.9662 15.9078 33.9542 15.9558 33.9362C16.0428 33.9022 16.1168 33.8402 16.1728 33.7632C16.9488 33.0692 19.1028 30.9412 18.6798 29.0362C18.3168 27.4092 16.7648 27.4572 16.0178 27.4862M16.9818 24.1882C16.1648 24.0132 15.3358 24.0122 14.5148 24.1882C13.6888 24.3662 13.0168 24.4602 12.4778 24.5022C12.6788 24.4312 12.8968 24.3522 13.1348 24.2642C13.9778 23.9512 14.8628 23.7952 15.7488 23.7952C16.6338 23.7952 17.5198 23.9512 18.3628 24.2642C18.6008 24.3522 18.8188 24.4312 19.0198 24.5022C18.4798 24.4602 17.8088 24.3662 16.9818 24.1882M21.1818 24.3532C21.1748 24.3512 20.4778 24.1992 18.6388 23.5182C16.7738 22.8272 14.7218 22.8282 12.8588 23.5182C11.0198 24.1992 10.3218 24.3512 10.3148 24.3532C10.1508 24.3882 10.0258 24.5222 10.0038 24.6882C9.98076 24.8542 10.0648 25.0172 10.2138 25.0942C10.2828 25.1302 10.7128 25.3302 11.7528 25.3302C12.4378 25.3302 13.3918 25.2432 14.6828 24.9652C15.3908 24.8132 16.1078 24.8142 16.8138 24.9652C20.0628 25.6632 21.1688 25.1542 21.2828 25.0942C21.4328 25.0172 21.5158 24.8542 21.4928 24.6882C21.4708 24.5222 21.3458 24.3882 21.1818 24.3532" fill="black"/></g></g></g></g></g><g id="Object" transform="translate(554 220) scale(1 1)"><g id="Object/Table"><g id="Group 18"><path id="Chair" fill-rule="evenodd" clip-rule="evenodd" d="M190.796 257.326L199.509 214.684C200.173 211.43 197.688 208.386 194.367 208.386H94.1008C90.7798 208.386 88.2948 211.43 88.9588 214.684L97.6718 257.326H82.5488C82.5488 265.467 89.1488 272.066 97.2898 272.066H191.178C199.319 272.066 205.919 265.467 205.919 257.326H190.796Z" fill="#EFF2F7"/><path id="Chair Copy" fill-rule="evenodd" clip-rule="evenodd" d="M199.998 214.091C200.518 210.916 198.068 208 194.818 208H94.552L94.3412 208.004C91.1267 208.13 88.7601 211.113 89.41 214.298L98.123 256.94H83L83.0033 257.257C83.1717 265.252 89.7057 271.68 97.741 271.68H191.629L191.945 271.677C199.94 271.509 206.37 264.976 206.37 256.94H191.247L199.96 214.298L199.998 214.091ZM94.552 209H194.818L195.013 209.005C197.603 209.121 199.505 211.528 198.98 214.098L190.022 257.94H205.333L205.315 258.174C204.691 265.184 198.802 270.68 191.629 270.68H97.741L97.4299 270.677C90.3983 270.521 84.6695 265.083 84.0546 258.174L84.036 257.94H99.348L90.3898 214.098L90.3549 213.906C89.9508 211.345 91.9293 209 94.552 209Z" fill="black"/><path id="Fill 5" fill-rule="evenodd" clip-rule="evenodd" d="M188.811 272.066H176.618L144.918 311.665L114.357 272.066H102.168L138.51 318.983L138.777 319.337L105.189 367.62H111.721L144.683 327.191L175.173 367.705L182.176 367.62L150.825 319.519L188.811 272.066Z" fill="#E5AB78"/><path id="Fill 5 Copy" fill-rule="evenodd" clip-rule="evenodd" d="M101 271H114.454L144.776 310.29L176.23 271H189.703L151.293 318.983L183.145 367.934H174.825L144.52 327.439L111.778 368.034H104.062L138.012 318.784L101 271ZM187.621 272H176.71L144.763 311.908L113.963 272H103.04L138.761 318.116L139.245 318.758L105.966 367.033H111.3L144.55 325.81L175.325 366.934H181.301L150.061 318.923L187.621 272Z" fill="black"/><path id="Table" fill-rule="evenodd" clip-rule="evenodd" d="M225.028 228.74C225.028 221.09 218.827 214.888 211.176 214.888H74.351C66.702 214.888 60.501 221.09 60.501 228.74H86.761L69.025 368.1H78.338L96.074 228.74H195.71L213.446 368.1H222.758L205.022 228.74H225.028Z" fill="#DCAD7F"/><path id="Fill 11" fill-rule="evenodd" clip-rule="evenodd" d="M61.009 228.24C61.274 221.109 67.156 215.389 74.351 215.389H211.176C218.37 215.389 224.253 221.109 224.518 228.24H61.009ZM222.191 367.6H213.886L196.277 229.24H204.581L222.191 367.6ZM77.897 367.6H69.592L87.201 229.24H95.506L77.897 367.6ZM211.176 214.389H74.351C66.438 214.389 60 220.827 60 228.74C60 229.016 60.224 229.24 60.5 229.24H86.194L68.529 368.037C68.511 368.179 68.555 368.323 68.65 368.43C68.744 368.539 68.881 368.6 69.025 368.6H78.337C78.589 368.6 78.801 368.413 78.833 368.164L96.514 229.24H195.269L212.949 368.164C212.982 368.413 213.194 368.6 213.446 368.6H222.758C222.902 368.6 223.038 368.539 223.133 368.43C223.228 368.323 223.272 368.179 223.254 368.037L205.59 229.24H225.027C225.303 229.24 225.527 229.016 225.527 228.74C225.527 220.827 219.089 214.389 211.176 214.389V214.389Z" fill="black"/><path id="Plate" fill-rule="evenodd" clip-rule="evenodd" d="M162.706 214.889H120.487C112.391 214.889 105.827 208.325 105.827 200.228H177.366C177.366 208.325 170.803 214.889 162.706 214.889" fill="#409B81"/><path id="Fill 16" fill-rule="evenodd" clip-rule="evenodd" d="M106.336 200.728C106.6 208.306 112.847 214.389 120.487 214.389H162.706C170.347 214.389 176.594 208.306 176.857 200.728H106.336ZM162.706 215.389H120.487C112.128 215.389 105.327 208.588 105.327 200.228C105.327 199.952 105.551 199.728 105.827 199.728H177.366C177.643 199.728 177.866 199.952 177.866 200.228C177.866 208.588 171.065 215.389 162.706 215.389V215.389Z" fill="black"/></g><path id="Path 3" d="M198.817 256.826V257.826H92.7695V256.826H198.817Z" fill="black"/></g></g></g></svg>