<svg viewBox="134.85576923076917 52.85000000000002 634.6153846153846 964.5124999999999" xmlns="http://www.w3.org/2000/svg" xmlns:xlink="http://www.w3.org/1999/xlink" overflow="visible" width="634.6153846153846px" height="964.5124999999999px"><defs><path d="M642.944213,0 L642.944213,1053 L131.02602,1053 L131.02602,902.717955 L39.2422987,906.134272 C31.6560495,906.399443 25.2914211,900.458648 25.0265035,892.865133 L0.265466928,183.122784 C0.000549267379,175.52927 5.93566118,169.158547 13.5219104,168.893376 L25.7990012,0 L642.944213,0 Z" id="mastercompsphone-path-1"/></defs><g id="Master/Comps/Phone" stroke="none" stroke-width="1" fill="none" fill-rule="evenodd"><g id="Small Elements" opacity=".739" transform="translate(510.000000, 281.000000) scale(0.5481481481481482 0.5481481481481482)"><g id="Small Elements/Squares" stroke="none" stroke-width="1" fill="none" fill-rule="evenodd"><rect id="Rectangle" fill="#902EE9" x="29" y="29" width="106" height="106"/><rect id="Rectangle" fill="#FF9F00" x="135" y="135" width="106" height="106"/></g></g><g id="Small Elements" transform="translate(58.000000, 759.000000) scale(0.9481481481481482 0.9481481481481482)"><g id="Small Elements/Dots" stroke="none" stroke-width="1" fill="none" fill-rule="evenodd"><g id="Group" transform="translate(87.000000, 86.000000)"><ellipse id="Oval" fill="#B7CFF6" cx="10.789" cy="11" rx="10.789" ry="11"/><ellipse id="Oval" fill="#D7E6FF" cx="48.368" cy="11" rx="10.789" ry="11"/><ellipse id="Oval" fill="#D7E6FF" cx="85.947" cy="11" rx="10.789" ry="11"/><ellipse id="Oval" fill="#B7CFF6" cx="85.947" cy="49" rx="10.789" ry="11"/><ellipse id="Oval" fill="#D7E6FF" cx="10.789" cy="49" rx="10.789" ry="11"/><ellipse id="Oval" fill="#D7E6FF" cx="48.368" cy="49" rx="10.789" ry="11"/><ellipse id="Oval" fill="#B7CFF6" cx="48.368" cy="87" rx="10.789" ry="11"/><ellipse id="Oval" fill="#D7E6FF" cx="10.789" cy="87" rx="10.789" ry="11"/><ellipse id="Oval" fill="#D7E6FF" cx="85.947" cy="87" rx="10.789" ry="11"/></g></g></g><path d="M623.765826,605.166321 C638.695353,600.281758 650.273803,592.740736 660.608276,583.080394 C662.404744,581.401153 662.614639,579.966695 661.899664,577.800335 C657.633267,564.877318 651.238559,553.185882 642.000253,543.145002 C632.541894,532.862812 621.251119,525.448433 607.547407,522.20566 C593.848768,518.961238 581.067134,521.15042 569.670133,529.690145 C551.959328,542.960564 547.081271,566.690447 558.227,585.355562 C564.062505,595.127404 572.800653,601.345638 583.424966,604.95213 C597.342341,609.6769 611.288835,609.134775 623.765826,605.166321 Z M716.412404,495.266205 C714.466836,499.506282 712.606032,503.787421 710.562686,507.980865 C703.937201,521.56641 697.477412,535.239521 690.507078,548.647303 C684.396866,560.400768 676.705684,571.146068 667.496669,580.724085 C666.267355,582.003353 666.385921,583.14441 666.704659,584.564279 L666.749256,584.759665 C670.387763,600.466224 670.53222,616.160029 666.52093,631.843271 C661.52229,651.379644 650.892147,667.329017 635.680799,680.367962 C622.303138,691.835273 607.074064,699.940608 590.164502,704.748834 C558.102171,713.867272 525.912268,714.365063 493.761824,705.277903 C475.854412,700.217999 459.009177,692.530895 442.704897,683.616587 C427.153924,675.111338 412.677445,665.008121 398.679016,654.190958 C397.758716,653.479146 396.890966,652.670458 396.145111,651.784362 C395.920543,651.519917 396.061512,650.768489 396.280164,650.376834 C396.4151,650.136984 397.102916,649.969501 397.391692,650.099679 C398.155618,650.442285 398.872626,650.916339 399.54517,651.421642 C413.66535,662.070441 428.112404,672.22102 443.656155,680.734216 C461.270986,690.38474 479.52277,698.482859 498.985643,703.649184 C514.958535,707.888601 531.245138,709.119587 547.711384,708.511343 C558.58566,708.109984 569.349339,706.807929 579.943785,704.342818 C605.844876,698.316926 628.395495,686.358426 645.638618,665.750079 C661.252813,647.089252 667.774603,625.284116 666.179226,601.077634 C665.86492,596.317391 664.901227,591.601541 664.20765,586.867927 C664.133122,586.371325 663.850732,585.90306 663.513338,585.028452 L661.699952,586.560009 C661.47823,586.749021 661.262561,586.935147 661.050581,587.122218 L660.73508,587.404013 C649.744311,597.329949 637.332936,604.780167 622.959069,608.634291 C605.975226,613.188043 589.329356,612.450403 573.665146,603.937145 C558.342776,595.609626 549.772485,582.499536 549.461811,564.975273 C549.148195,547.230759 557.271374,533.595399 572.512173,524.621025 C585.730138,516.838728 599.833405,516.522245 614.114475,521.519976 C630.172809,527.13868 642.476992,537.603307 652.054913,551.461236 C656.852941,558.403516 660.691595,565.836147 663.444666,573.811336 L663.769816,574.770967 C664.099148,575.762998 664.504072,576.729068 665.078325,578.24214 C666.378233,576.962945 667.470735,576.03675 668.39296,574.961474 C674.993462,567.26425 680.763672,558.981375 685.870391,550.221057 C693.33985,537.414125 699.441877,523.92866 705.738604,510.538139 L712.826575,495.52268 C713.307396,494.502622 713.726946,493.45347 714.458889,491.762398 C710.44342,492.791293 707.220941,493.997946 703.997315,495.244172 C701.599985,496.170117 699.165901,497.006889 696.720051,497.801464 L694.648933,498.466839 C693.6843,498.761526 692.588926,498.956183 692.158566,497.78037 C691.627905,496.330036 693.045582,495.958556 694.118168,495.578319 L694.235808,495.535979 C700.534199,493.231899 706.835058,490.935417 713.140443,488.652865 C713.939966,488.363683 714.76437,488.125219 715.597502,487.956722 L715.981218,487.884416 C717.754118,487.580788 718.366181,487.961871 718.86829,489.894281 C719.9111,493.905402 720.821792,497.95385 721.722383,502.001379 C722.460408,505.315836 723.16412,508.637709 723.87514,511.958451 L724.952357,516.937647 C725.199779,518.065497 725.330197,519.182361 723.95241,519.523628 C722.56431,519.868299 722.170072,518.780724 721.939679,517.760294 L721.912765,517.638261 C720.904987,512.959135 719.938124,508.272316 718.970848,503.584231 C718.399514,500.812967 717.856427,498.038125 717.299438,495.2636 L716.412404,495.266205 L716.412404,495.266205 Z" id="arrow" fill="#55B0EB"/><g id="Phone" transform="translate(153.256932, 151.000000)"><path d="M24.0378358,18.3137908 L349.500243,6.93237522 C362.909824,6.46105422 374.18224,16.8419689 374.865952,30.1924464 L374.88342,30.5979071 C374.883448,30.5987103 374.883476,30.5995134 374.881095,30.6004006 L400.056668,752.550537 C400.526568,766.094842 389.930408,777.457833 376.386317,777.933883 L50.9239098,789.315298 C37.5143289,789.786619 26.241913,779.405704 25.5582017,766.055227 L25.540733,765.649766 C25.5407049,765.648963 25.5406768,765.64816 25.5430582,765.647273 L0.367485065,43.697136 C-0.102414332,30.1528309 10.4937455,18.7898399 24.0378358,18.3137908 Z" id="base" fill="#3F8FD4"/><path d="M33.2868154,11.5876761 L358.749223,0.206260571 C372.158804,-0.265060427 383.43122,10.1158543 384.114931,23.4663317 L384.1324,23.8717925 C384.132428,23.8725956 384.132456,23.8733988 384.130075,23.874286 L409.305648,745.824423 C409.775547,759.368728 399.179387,770.731719 385.635297,771.207768 L60.1728894,782.589183 C46.7633084,783.060504 35.4908926,772.67959 34.8071813,759.329112 L34.7897126,758.923652 C34.7896845,758.922848 34.7896564,758.922045 34.7920378,758.921158 L9.61646466,36.9710213 C9.14656526,23.4267163 19.7427251,12.0637253 33.2868154,11.5876761 Z" id="base" fill="#0A1B45"/><path d="M105.922433,44.4963838 C106.069881,48.7227923 109.552741,52.0454665 113.750399,52.0182944 L113.975942,52.0136203 L281.6821,46.1515638 C285.904451,46.0039743 289.223935,42.5177666 289.196789,38.3160747 L289.192119,38.0903146 L288.534964,19.2537599 L352.767903,17.0085405 C360.352167,16.7434376 366.71513,22.6826989 366.979978,30.2742519 L391.734535,739.833293 C391.999384,747.424846 386.065825,753.793924 378.481561,754.059027 L65.718232,764.99146 C58.133968,765.256562 51.7710052,759.317301 51.5061569,751.725748 L26.7515999,42.1667072 C26.4867516,34.5751542 32.4203103,28.2060762 40.0045744,27.9409733 L105.265277,25.6598291 L105.922433,44.4963838 Z" id="Path" fill="#281883"/></g><g id="Character" transform="translate(180.000000, 10.000000)"><mask id="mastercompsphone-mask-2" fill="#ffffff"><use xlink:href="#mastercompsphone-path-1" fill="#ffffff"/></mask><g id="Mask"/><g mask="url(#mastercompsphone-mask-2)"><g transform="translate(-304.000000, 66.000000) scale(1.081858407079646 1.081490104772992)" id="Master/Character/Standing"><g id="Master/Character/Standing" stroke="none" stroke-width="1" fill="none" fill-rule="evenodd"><g id="Legs" transform="translate(50.000000, 263.000000) scale(1 1)"><g id="Legs/Pants Stride" stroke="none" stroke-width="1" fill="none" fill-rule="evenodd"><g id="Right-leg" transform="translate(340.912300, 0.000075)"><path d="M351.570952,557.400568 L292.421642,588.268621 C289.23919,589.928579 285.361168,588.667216 283.759463,585.45079 C246.439243,510.875624 199.230368,417.989682 161.287429,343.131708 C156.535206,333.763189 159.73662,322.39145 168.445702,317.732295 L207.213943,296.98589 C215.92103,292.326735 226.838569,296.144639 231.593785,305.518281 C251.975853,345.704643 292.982488,426.593799 313.314658,466.827296 C327.03044,493.982986 340.71828,521.075146 354.368197,548.438842 C356.005828,551.729043 354.753405,555.740609 351.570952,557.400568" id="SKIN-DARKER" fill="#dcb284"/><path d="M86.3018681,0.553047184 L3.58722884,44.8848046 C0.925720594,46.310596 0.289077427,50.4516434 2.16502598,54.1345105 C47.1498124,143.092204 210.139458,465.665446 251.855077,548.999925 L347.0877,498.490422 C306.772296,419.027412 139.536031,92.5806506 95.7585677,7.05572162 C94.3243715,3.06432593 89.8698682,-1.62510275 86.3018681,0.553047184" id="Fill-3" fill="#051026"/><polygon id="Fill-5" fill="#FFF" points="351.0877 540.556344 280.284523 577.999925 267.0877 551.628227 337.798704 513.999925"/><path d="M343.719319,525.999925 C338.839171,528.596035 321.243031,537.953385 304.83617,546.680031 C313.20814,560.743411 282.702962,576.912582 276.474497,561.764307 C274.326992,562.907008 273.0877,563.566616 273.0877,563.566616 L289.211494,595.999925 L392.0877,542.206257 L386.757446,531.444014 C382.48344,522.799949 353.425603,535.562693 343.719319,525.999925" id="Fill-7" fill="#0A1B45"/></g><path d="M243,0 C243,55.228475 289.562386,100 347,100 C404.437614,100 451,55.228475 451,0" id="Path" fill="#0A1B45"/><g id="Left-Leg" transform="translate(15.000400, 0.000075)"><path d="M30.239127,557.161414 L6.48321118,491.091216 C5.21392545,487.532681 6.52914914,483.643194 9.42224179,482.410903 C17.7749608,479.121599 25.640338,474.891582 33.6914643,471.031892 C59.328839,457.46285 83.4372787,440.300156 104.929252,420.190817 C135.662744,390.774378 160.646002,356.076536 180.175626,316.548494 C182.322726,312.342953 185.979787,309.372897 190.199089,307.916068 C200.492187,302.022777 233.664385,326.382352 243.12361,329.170438 C247.552628,331.433896 250.627475,335.548984 251.969663,340.466445 C253.653389,376.004969 183.860649,458.895203 157.588132,483.422914 C141.92229,498.068881 124.074395,512.379639 106.514112,524.333293 C94.3745071,532.319777 81.4759276,540.045543 68.7441229,546.868906 C60.3704323,549.247293 34.5433138,569.214035 30.239127,557.161414" id="SKIN" fill="#ffdbb4"/><path d="M327.589239,-7.48875118e-05 L234.263966,2.49908329 C229.168425,2.66739829 228.517611,9.87191949 228.971481,14.5112349 C230.778964,179.189353 185.88582,369.76348 39.9996,452.672467 L91.3448955,552.999925 C227.004045,476.171584 302.743354,318.80132 323.872303,161.436382 C326.849451,141.283324 342.647926,1.01301097 327.589239,-7.48875118e-05" id="Fill-12" fill="#0A1B45"/><path d="M44.8850906,557.999925 L13.9996,479.217498 C21.9808145,475.635354 30.8073943,471.323017 38.4599114,466.999925 L74.9996,542.961589 C65.5638745,548.266517 54.7138457,553.5865 44.8850906,557.999925" id="Fill-14" fill="#FFF"/><path d="M62.9996,549.37113 C60.6360448,544.095785 52.1153883,525.069219 44.1695419,507.327972 C31.6000913,515.152677 16.6218644,483.646376 30.4343923,476.662236 C29.3943075,474.338445 28.7933695,472.999925 28.7933695,472.999925 C20.8193856,477.171895 8.37755891,482.485544 -0.00040000003,485.956334 L40.2423423,600.999925 L52.6550265,595.76714 C63.0086442,589.458645 52.9112793,557.402253 62.9996,549.37113" id="Fill-16" fill="#0A1B45"/><path d="M281.629623,1.99992511 L279.631892,2.05201959 C285.059729,189.839841 231.3627,406.728274 64.9996,501.133029 L65.9555146,502.999925 C233.003836,408.206056 287.085428,190.604248 281.629623,1.99992511" id="Fill-18" fill="#FFF"/></g></g></g><g id="Body" transform="translate(17.000000, -31.000000) scale(1 1)"><g id="Body/Sweats Grab Up" stroke="none" stroke-width="1" fill="none" fill-rule="evenodd"><g id="Right-Arm" transform="translate(419.000000, 39.000000)"><path d="M351.9107,74.8252 C336.7217,80.5792 317.0057,80.9132 302.4357,88.5162 C263.8207,111.3102 224.3037,131.6642 181.8237,148.2092 C164.9427,154.9732 145.6647,161.1192 128.1407,166.0712 C114.9227,169.6592 99.6917,172.9812 86.1507,175.3942 C73.6657,177.8342 58.9327,180.4122 48.8577,170.6292 C27.3007,155.1672 37.4937,116.5342 62.9547,112.1392 C74.4747,110.6702 87.6287,108.1722 98.8917,105.3472 C118.6297,100.7112 139.1377,94.0792 158.0007,86.6592 C209.7897,68.1512 257.2237,35.9292 306.7027,11.7412 C325.4037,1.9022 361.0887,-2.5508 374.0117,3.3322 C379.5987,4.3672 382.2467,13.4502 376.6737,16.0302 C374.8387,16.8792 367.8407,18.4152 359.6637,20.9352 C363.5887,22.7232 366.5347,25.2032 368.6497,27.5302 C373.4157,32.7402 367.2647,41.8072 359.7097,39.6192 C353.0907,37.6662 346.3067,31.2492 332.7967,33.4442 C317.9347,46.6412 329.0507,63.1312 346.0567,58.7652 C355.8037,57.6422 359.9737,71.6772 351.9107,74.8252" id="SKIN" fill="#ffdbb4"/><path d="M351.9107,74.8252 C336.7217,80.5792 317.0057,80.9132 302.4357,88.5162 C263.8207,111.3102 224.3037,131.6642 181.8237,148.2092 C164.9427,154.9732 145.6647,161.1192 128.1407,166.0712 C114.9227,169.6592 99.6917,172.9812 86.1507,175.3942 C73.6657,177.8342 58.9327,180.4122 48.8577,170.6292 C27.3007,155.1672 37.4937,116.5342 62.9547,112.1392 C74.4747,110.6702 87.6287,108.1722 98.8917,105.3472 C118.6297,100.7112 139.1377,94.0792 158.0007,86.6592 C209.7897,68.1512 257.2237,35.9292 306.7027,11.7412 C325.4037,1.9022 361.0887,-2.5508 374.0117,3.3322 C379.5987,4.3672 382.2467,13.4502 376.6737,16.0302 C374.8387,16.8792 367.8407,18.4152 359.6637,20.9352 C363.5887,22.7232 366.5347,25.2032 368.6497,27.5302 C373.4157,32.7402 367.2647,41.8072 359.7097,39.6192 C353.0907,37.6662 346.3067,31.2492 332.7967,33.4442 C317.9347,46.6412 329.0507,63.1312 346.0567,58.7652 C355.8037,57.6422 359.9737,71.6772 351.9107,74.8252" id="SHADOW" fill="#000" opacity=".12"/><path d="M272.5688,22.5511 C265.4068,26.7281 254.4908,33.3281 247.2708,37.2101 C224.3858,35.7111 77.1596165,109.999229 3.26537045,110 C-9.02562955,128.498 17.4238,171.2811 37.4168,183.3081 C51.4398,192.9841 68.4678,190.3621 84.6238,189.7831 C133.2568,185.9861 180.6488,169.5801 223.4138,146.6421 C244.4018,134.3541 268.7578,121.0861 283.9598,102.6251 C291.8508,98.4221 303.2958,91.4131 311.0718,86.9131 L272.5688,22.5511 Z" id="Fill-4" fill="#2DB386"/><path d="M248.2848,38.3662 L284.9948,103.7672 C292.6258,99.6472 304.2718,92.6232 311.8438,88.2022 L273.3408,23.8392 C266.2458,27.9772 255.4328,34.5132 248.2848,38.3662" id="Fill-6" fill="#25996F"/></g><g id="Body" transform="translate(238.000000, 149.000000)"><path d="M278.106708,192.298647 C205.538716,197.378937 1.44114734,174.139406 3.75109927,161.20524 C8.33256874,135.552114 16.2642525,95.4663653 27.5461506,40.9479927 C27.5461506,18.3333745 47.7038086,-0.000770909091 72.5687342,-0.000770909091 L211.895593,-0.000770909091 C236.760519,-0.000770909091 256.917117,18.3333745 256.917117,40.9479927 C266.870755,93.2351517 274.102974,132.007446 278.613775,157.264876 C280.224412,166.283349 280.055389,177.961273 278.106708,192.298647 Z" id="Sweat-Body" fill="#34D1A1"/><path d="M0.000317843866,195.189749 C100.650875,230.844295 209.77727,197.117022 284.463162,195.189749 L279.673255,156.30124 C206.510894,158.917513 101.819481,190.863022 3.67459294,157.11744 L0.000317843866,195.189749 Z" id="Bottom" fill="#2DB386"/></g><g id="Left-Arm" transform="translate(198.000000, 149.000000)"><path d="M177.57385,226.420558 C127.98385,225.145558 79.4318501,188.409558 82.5628501,136.018558 C83.2928501,111.918558 92.0658501,89.6515577 105.28885,68.4875577 C114.12185,54.5405577 109.60685,34.5275577 96.9808501,24.0665577 C46.3648501,-12.3554423 16.7258501,98.4425577 16.5818501,134.350558 C15.8278501,159.619558 21.4828501,185.784558 33.4108501,208.300558 C57.1378501,254.397558 105.65185,283.332558 155.53085,290.349558 C166.92685,292.717558 249.01785,299.185558 220.59485,273.841558 C224.16585,272.100558 226.22185,268.304558 225.55085,264.450558 C225.01485,261.358558 222.93385,258.909558 220.28985,257.720558 C226.42185,254.768558 226.17385,245.142558 220.42485,241.988558 C224.68585,241.300558 229.57085,240.349558 233.78185,239.366558 C239.95085,238.848558 246.10185,234.623558 243.95985,227.502558 C239.06385,213.816558 222.69485,225.480558 212.70185,224.966558 C210.42685,211.465558 194.19585,219.400558 185.15085,217.737558 C181.31785,217.626558 177.93685,221.497558 177.57385,226.420558" id="SKIN" fill="#ffdbb4"/><path d="M154.62905,296.283458 C142.35005,294.401458 130.03805,291.488458 117.98605,287.128458 C86.1400501,287.753458 54.5780501,263.995458 33.8180501,239.276458 C0.493050112,198.821458 -8.05194989,140.559458 7.51605011,91.1434577 C14.6090501,66.4494577 29.7740501,39.3344577 45.5890501,20.9284577 C61.4040501,2.52245772 88.7834603,-1.76547303e-07 123.93805,-1.76547303e-07 C159.09264,-1.76547303e-07 127.35205,40.9564577 123.93805,57.5644577 C119.74605,70.8244577 111.46705,82.9254577 107.60705,96.2894577 C89.2090501,148.567458 101.99605,182.184458 143.22005,216.501458 C150.37905,219.114458 158.02605,220.924458 165.90005,222.135458 L154.62905,296.283458 Z" id="Fill-12" fill="#34D1A1"/><path d="M118.88245,285.857058 L143.95545,215.172058 C150.94645,217.711058 158.42845,219.460058 166.12545,220.651058 L154.85545,294.798058 C142.79845,292.943058 130.71145,290.109058 118.88245,285.857058" id="Fill-15" fill="#2DB386"/></g></g></g><g id="Head" transform="translate(338.000000, -61.000000) scale(1 1)"><g id="Head/Short Hair" stroke="none" stroke-width="1" fill="none" fill-rule="evenodd"><g id="Head" transform="translate(22.000000, 72.000000)"><g id="head" transform="translate(0.000000, 0.000100)" fill="#ffdbb4"><path d="M13,62 L58,62 L58,113.633 C58,127.538 47.926,138.81 35.5,138.81 C23.074,138.81 13,127.538 13,113.633 L13,62 Z" id="SKIN"/><path d="M60.0525,94 L55.0655,94 C31.8335,94 13.0005,75.167 13.0005,51.935 L13.0005,32.203 C13.0005,14.418 27.4175,0 45.2035,0 L50.7965,0 C68.5825,0 83.0005,14.418 83.0005,32.203 L83.0005,71.052 C83.0005,83.726 72.7265,94 60.0525,94" id="SKIN"/><path d="M25,58.5 C25,65.403 19.404,71 12.5,71 C5.596,71 0,65.403 0,58.5 C0,51.597 5.596,46 12.5,46 C19.404,46 25,51.597 25,58.5" id="SKIN"/></g><path d="M10.067,53.1685 C10.9718309,53.1685 12.2239875,53.3771928 13.5088204,54.0196092 C15.6553998,55.0928989 17.0130325,57.055328 17.10411,59.9021045 L17.109,60.2105 L14.109,60.2105 C14.109,58.3751144 13.4076866,57.3231443 12.1671796,56.7028908 C11.7065142,56.4725581 11.1976823,56.3199085 10.686339,56.2346846 C10.4347302,56.1927498 10.2385731,56.1747448 10.1250097,56.169908 L10.067,56.1685 L10.067,53.1685 Z" id="ear-line" fill="#000"/><path d="M34.7507501,96.3317762 C25.4557924,93.0436693 20.8185822,84.7387742 18.9822222,73.5681961 C26.2532122,85.6702724 39.4406226,93.8133264 54.5439426,93.9968331 L55.0655,94 L58,94 C50.0632106,98.2298391 42.3134606,99.0070978 34.7507501,96.3317762 Z" id="SHADOW" fill="#000" opacity=".12"/><path d="M50.8086245,0 C64.717064,0 76.5752072,8.73752555 81.1464316,20.9990758 L25.3655574,20.9997374 L17.109,46.0001 L12.8420404,46 L12.8420404,32.2025974 C12.8420404,14.4178197 27.3241084,0 45.1903817,0 L50.8086245,0 Z" id="Combined-Shape" fill="#000"/></g></g></g><g id="Expression" transform="translate(385.000000, 34.000000) scale(1 1)" fill="#000"><g id="Expression/Happy" stroke="none" stroke-width="1" fill="none" fill-rule="evenodd"><path d="M20.5607,22 C20.5607,20.343 19.2177,19 17.5607,19 C15.9037,19 14.5607,20.343 14.5607,22 C14.5607,23.657 15.9037,25 17.5607,25 C19.2177,25 20.5607,23.657 20.5607,22" id="Fill-1" fill="#000"/><path d="M46.5607,22 C46.5607,20.343 45.2177,19 43.5607,19 C41.9037,19 40.5607,20.343 40.5607,22 C40.5607,23.657 41.9037,25 43.5607,25 C45.2177,25 46.5607,23.657 46.5607,22" id="Fill-3" fill="#000"/><polygon id="Stroke-5" fill="#000" points="33.1977829 19.396766 36.1476171 18.850434 40.4350211 41.9996 30.5607 41.9996 30.5607 38.9996 36.828 38.999"/><path d="M21.9219,41.586 C21.9219,45.2602625 25.6639817,48.6581933 29.6815435,48.7900329 L29.9229,48.794 L29.9229,51.794 C24.3252295,51.794 19.0961019,47.2280163 18.9261594,41.8552911 L18.9219,41.586 L21.9219,41.586 Z" id="Stroke-7" fill="#000"/><path d="M23.0607,9 L23.0607,12 C19.8342736,12 16.8913939,12.8655529 14.2891644,14.3112359 C13.508469,14.7449556 12.8086718,15.2043948 12.1956619,15.6654963 L11.8964164,15.8960741 C11.548672,16.1706093 11.3051282,16.3844813 11.1717567,16.5115787 L11.1213602,16.5606602 L9.00003983,14.4393398 C9.71719288,13.7221868 11.0118484,12.7000903 12.8322356,11.6887641 C15.7235813,10.0824609 18.9894549,9.08904431 22.5704367,9.00569674 L23.0607,9 Z" id="Stroke-9" fill="#000"/><path d="M37.0607,9 C40.8342736,9 44.2663939,10.0094471 47.2891644,11.6887641 C48.9957774,12.6368824 50.2403215,13.5944668 50.980139,14.3013772 L51.1213602,14.4393398 L49.0000398,16.5606602 L48.8084832,16.3819961 C48.6965748,16.2822525 48.549249,16.1566104 48.3676199,16.0099419 L48.2249836,15.8960741 C47.5437467,15.3582556 46.7430469,14.8172422 45.8322356,14.3112359 C43.3601176,12.937837 40.5805627,12.0880056 37.5425302,12.006456 L37.0607,12 L37.0607,9 Z" id="Stroke-11" fill="#000"/></g></g><g id="Accessories" transform="translate(372.000000, 56.000000) scale(1 1)" fill="#000"><g id="Accessories/None" stroke="none" stroke-width="1" fill="none" fill-rule="evenodd" fill-opacity="0"/></g><g id="Glasses" transform="translate(364.000000, 42.000000) scale(1 1)" fill="#000"><g id="Glasses/Thick" stroke="none" stroke-width="1" fill="none" fill-rule="evenodd"><path d="M43.5452664,3.00012344 C49.2894512,3.02462661 55.021427,4.35163303 57.0857956,6.97405047 C58.0938547,8.25461237 58.6772219,10.0147386 58.9068842,11.9996703 L62.1143968,11.9996703 C62.3440591,10.0147386 62.9274264,8.25461237 63.9354854,6.97405047 C65.9529365,4.41123343 71.4731799,3.0856142 77.0844275,3.00401411 L77.4760146,3.00012344 L77.8967218,3.00012344 L80.8146938,3.0378718 C91.0822714,3.2070925 94.9796428,3.73089949 95.893837,5.69362755 C96.9046181,7.86372269 97.4724619,10.8486323 96.5699433,12.3975628 L96.4345265,12.6077971 C96.2607766,12.8804731 95.8187885,13.7026763 95.3317143,14.6775352 L95.2267324,14.8886255 L94.7966033,15.7746065 C94.1772527,17.0747485 93.6217104,18.3482986 93.2115536,19.4320065 L93.1438986,19.6872046 L93.1438986,19.6872046 C92.2530855,22.9637972 90.4857872,26.1972123 88.6985341,28.3365739 C85.3492115,32.34575 71.1131799,32.6082999 67.0329763,28.4576053 C64.4038322,25.7830393 62.5077693,20.7417692 62.087653,15.9998009 L58.933628,15.9998009 C58.5135117,20.7417692 56.6174488,25.7830393 53.9883048,28.4576053 C49.9081011,32.6082999 35.6720695,32.34575 32.3227469,28.3365739 C30.5354938,26.1972123 28.7681955,22.9637972 27.8773824,19.6872046 L27.8097274,19.4320065 C27.4233065,18.4110132 26.9078403,17.2215143 26.331547,16.0000268 L0,16 L0,12 L24.2628445,12.0004643 C23.6422666,10.3774347 24.1973223,7.69055104 25.127444,5.69362755 C26.0970439,3.61194627 30.4223758,3.14888604 42.1443686,3.0107703 L43.1245592,3.00012344 L43.5452664,3.00012344 Z M32.8542992,9.57832836 C31.1333273,11.9393787 30.7976239,14.9040914 31.4059083,17.8533932 L31.6334165,18.4663592 L31.5539327,18.4983688 C32.1949786,21.035914 33.5135424,23.5284501 35.226974,25.5794466 C37.0849603,27.8034767 48.7860935,28.0192764 51.3034638,25.4584151 C54.5060095,22.2005411 56.3804317,12.9591713 54.2303847,9.80770023 L54.1067801,9.63896051 L53.9809214,9.49277664 C51.015179,6.32545056 35.1904568,6.373287 32.8542992,9.57832836 Z M88.1669819,9.57832836 C85.8662205,6.42184823 70.4825425,6.32762495 67.1839305,9.35102137 L67.0403596,9.49277664 L66.9145009,9.63896051 L66.7908963,9.80770023 C64.6408493,12.9591713 66.5152715,22.2005411 69.7178172,25.4584151 C72.2351876,28.0192764 83.9363207,27.8034767 85.794307,25.5794466 C87.4069485,23.6490969 88.669811,21.3276257 89.347247,18.9456229 L89.4673483,18.4983688 L89.3878645,18.4663592 L89.6153727,17.8533932 L89.6153727,17.8533932 C90.2236571,14.9040914 89.8879537,11.9393787 88.1669819,9.57832836 Z" id="Shape" fill="#000"/></g></g></g></g></g></g></g></svg>