<svg viewBox="29.086538461538453 184.97500000000002 780.0480769230769 726.6875000000001" xmlns="http://www.w3.org/2000/svg" overflow="visible" xmlns:xlink="http://www.w3.org/1999/xlink" width="780.0480769230769px" height="726.6875000000001px"><g id="Master/Comps/Desk" stroke="none" stroke-width="1" fill="none" fill-rule="evenodd"><g id="Blob" opacity=".288" transform="translate(8.500000, 153.891534) scale(1.5086372360844529 1.5089820359281436)"><g id="Blob/6" stroke="none" stroke-width="1" fill="none" fill-rule="evenodd"><path d="M412.81247,152.226785 C457.029881,177.065348 499.903297,222.311811 503.532082,271.183361 C507.295266,320.054911 471.545019,372.685812 427.462007,405.3116 C383.378996,437.937387 330.694422,450.826588 278.009848,450.96192 C225.190874,451.095113 172.3719,438.6087 129.095286,405.982912 C85.8186711,373.222862 52.3532144,320.457699 32.7308985,247.955948 C12.9741831,175.454198 7.3294073,83.3501217 50.6060219,58.511559 C93.7482371,33.6729963 185.946242,76.0999467 254.758747,99.5958844 C323.436853,122.95756 368.729459,127.388222 412.81247,152.226785 Z" id="blobs-burgers" fill="#CCA4FF"/></g></g><g id="Chair" transform="translate(35.000000, 285.000000) scale(1 1)"><g id="Chair/Office" stroke="none" stroke-width="1" fill="none" fill-rule="evenodd"><g id="Group-21" transform="translate(17.000000, 0.000000)"><path d="M103.2542,227.355 L103.2542,293.645 C103.2542,299.474876 108.026017,304.340723 113.823279,304.496169 L114.1092,304.5 L180.3992,304.5 L180.3992,343.5 L114.1092,343.5 C86.9192929,343.5 64.7025164,321.555123 64.2608998,294.467397 L64.2542,293.645 L64.2542,227.355 L103.2542,227.355 Z" id="Stroke-1" fill="#0A1B45" fill-rule="nonzero"/><path d="M120.6111,258 L96.1921,258 C43.2861,258 0.0001,214.713 0.0001,161.808 L0.0001,96.192 C0.0001,43.287 43.2861,0 96.1921,0 L120.6111,0 C153.6901,0 180.7541,27.064 180.7541,60.143 L180.7541,197.857 C180.7541,230.936 153.6901,258 120.6111,258" id="Fill-3" fill="#5A328E"/><path d="M253.7542,571 L243.7542,571 C239.3542,571 235.7542,566.352 235.7542,560.67 L235.7542,346.33 C235.7542,340.648 239.3542,336 243.7542,336 L253.7542,336 C258.1542,336 261.7542,340.648 261.7542,346.33 L261.7542,560.67 C261.7542,566.352 258.1542,571 253.7542,571" id="Fill-5" fill="#55B0EB"/><path d="M261.7542,586 L248.7542,586 L235.7542,586 C235.7542,586 145.7542,600.6 145.7542,594 L145.7542,591 C145.7542,584.4 151.1542,579 157.7542,579 L235.7542,559 L248.7542,559 L261.7542,559 L339.7542,579 C346.3542,579 351.7542,584.4 351.7542,591 L351.7542,594 C351.7542,600.6 261.7542,586 261.7542,586" id="Fill-7" fill="#0A1B45"/><path d="M256.8313,475 L240.6773,475 C233.5693,475 227.7543,472.25 227.7543,468.89 L227.7543,342.11 C227.7543,338.75 233.5693,336 240.6773,336 L256.8313,336 C263.9383,336 269.7543,338.75 269.7543,342.11 L269.7543,468.89 C269.7543,472.25 263.9383,475 256.8313,475" id="Fill-9" fill="#55B0EB"/><path d="M344.011,356 L153.497,356 C138.239,356 125.754,343.516 125.754,328.257 L125.754,313.743 C125.754,298.484 138.239,286 153.497,286 L344.011,286 C359.27,286 371.754,298.484 371.754,313.743 L371.754,328.257 C371.754,343.516 359.27,356 344.011,356" id="Fill-11" fill="#5A328E"/><path d="M161.7542,608 C161.7542,615.732 155.4862,622 147.7542,622 C140.0222,622 133.7542,615.732 133.7542,608 C133.7542,600.268 140.0222,594 147.7542,594 C155.4862,594 161.7542,600.268 161.7542,608" id="Fill-13" fill="#0A1B45"/><path d="M365.7542,608 C365.7542,615.732 359.4862,622 351.7542,622 C344.0222,622 337.7542,615.732 337.7542,608 C337.7542,600.268 344.0222,594 351.7542,594 C359.4862,594 365.7542,600.268 365.7542,608" id="Fill-15" fill="#0A1B45"/><path d="M263.7542,608 C263.7542,615.732 257.4862,622 249.7542,622 C242.0222,622 235.7542,615.732 235.7542,608 C235.7542,600.268 242.0222,594 249.7542,594 C257.4862,594 263.7542,600.268 263.7542,608" id="Fill-17" fill="#0A1B45"/><path d="M253.7542,596 L245.7542,596 L235.7542,571 C235.7542,564.4 241.1542,559 247.7542,559 L251.7542,559 C258.3542,559 263.7542,564.4 263.7542,571 L253.7542,596 Z" id="Fill-19" fill="#0A1B45"/></g></g></g><g transform="translate(-111.000000, 211.000000) scale(1 1)" id="Master/Character/Sitting"><g id="Master/Character/Sitting" stroke="none" stroke-width="1" fill="none" fill-rule="evenodd"><g id="Legs Sitting" transform="translate(317.000000, 266.000000) scale(1 1)"><g id="Legs Sitting/Pants Relaxed" stroke="none" stroke-width="1" fill="none" fill-rule="evenodd"><g id="Group-23" transform="translate(-1.000000, -1.700000)"><path d="M556.886975,296.245695 L497.711003,316.351904 C494.527923,317.432076 491.242132,315.921835 490.294398,312.88135 C482.230719,287.177247 472.158591,261.208102 460.895025,236.814209 C449.763114,212.783374 437.013053,189.332631 422.289089,168.032231 C409.437251,149.437263 395.231507,132.853616 380.12098,120.187595 C374.05548,114.505688 375.391645,104.944162 379.584086,97.814024 C386.209823,90.8499125 401.414657,53.4559442 412.884577,53.8520074 C428.812116,50.9175391 458.699829,91.2929832 469.547886,103.833985 C501.796065,145.833688 525.889059,194.093391 545.337688,243.997356 C550.878433,258.355647 555.998066,272.827957 560.655503,287.729335 C561.775044,291.319908 560.07379,295.169523 556.886975,296.245695" id="Fill-1" fill="#ffdbb4"/><g id="Group-5" transform="translate(111.000000, 0.700000)" fill="#051026"><path d="M45.7488549,0.553 L1.27478914,52.5093 C-0.363824635,55.7703 3.90106054,60.2373 6.58438413,62.2643 C68.2662213,99.5903 140.163207,80.4493 205.607683,100.1333 C284.843825,118.9203 324.373511,201.7523 355.166731,276.5313 L447.767115,235.2433 C400.734597,117.6583 353.305785,26.3103966 226.566678,5.90539664 C197.465377,0.808508626 137.19277,-0.975623587 45.7488549,0.553 Z" id="Fill-3"/></g><path d="M559,279.63804 L488.781733,305.7 C486.05682,297.476167 483.101474,289.212691 480,281.025527 L549.057673,251.7 C552.551632,260.920842 555.875108,270.208084 559,279.63804" id="Fill-6" fill="#FFF"/><path d="M553.332783,263.7 C548.543421,265.646483 531.270909,272.664408 515.165396,279.207947 C521.401836,293.21783 491.271801,304.811838 487.325479,290.51932 C485.217413,291.376212 484,291.870573 484,291.870573 C487.49446,301.735816 490.789131,311.657985 493.672084,321.7 L597,289.42074 C596.495857,287.648033 595.482902,284.085639 594.950751,282.339897 L593.040607,276.106957 C588.156018,265.90415 559.643911,274.05461 553.332783,263.7" id="Fill-8" fill="#0A1B45"/><path d="M344.969099,419.644081 L282.888523,419.7 C279.549573,419.7 276.839943,416.896105 276.826872,413.40322 C276.051891,337.998637 274.768973,261.77725 265.314215,187.263363 C263.991147,173.519489 255.752081,156.396563 271.614897,149.622482 C271.780164,148.664884 312.362978,136.394852 313.825169,135.391321 C318.229484,133.999359 322.81774,134.735282 326.604872,137.36543 C341.685238,146.246426 343.218391,230.622871 345.942026,251.586173 C349.369679,305.600079 350.702085,359.099738 351,413.08169 C351.014878,416.697396 348.308983,419.643082 344.969099,419.644081" id="Fill-10" fill="#ffdbb4"/><path d="M95.1549088,1.88522518 L-4.00177669e-11,1.7 C1.09038743,87.3033904 9.26356621,100.826578 66.5784467,100.826578 C155.325585,100.826578 223.554398,103.609091 246.79046,158.299767 C253.86651,174.954653 271.137522,274.787279 264.551131,368.7 L365,366.529705 C361.752856,296.239148 362.911413,159.350535 332.262566,99.826442 C313.947624,72.2926983 284.534134,53.4191321 256.392529,39.4562336 C223.759993,22.8246389 170.01412,10.3009695 95.1549088,1.88522518 Z" id="Fill-12" fill="#0A1B45"/><path d="M351,407.166044 L276.343963,407.7 C276.281937,397.512447 276.161644,387.292594 276,377.079806 L350.647578,375.7 C350.812982,386.184307 350.935154,396.666596 351,407.166044" id="Fill-14" fill="#FFF"/><g id="Group-18" transform="translate(276.000000, 387.700000)" fill="#0A1B45"><path d="M75.0476276,0.7012 C69.8908,0.7732 51.2959638,1.0312 33.9574466,1.2712 C35.286119,17.1102 3.06910172,17.4232 3.98714483,1.6882 C1.71693793,1.7192 0.407058621,1.7372 0.407058621,1.7372 C0.515118966,10.4102 0.622239655,27.8562 0.618481034,36.5222 L108.959783,37.0002 L108.946628,24.9572 C108.897766,15.4902 79.3080241,13.4002 75.0476276,0.7012" id="Fill-16"/></g><path d="M103.1875,100.7 L93.8125,100.7 C42.55375,100.7 1,56.376 1,1.7 L196,1.7 C196,56.376 154.44625,100.7 103.1875,100.7" id="Fill-21" fill="#0A1B45"/></g><path d="M63.3505084,-2 L63.4598782,-1.99438517 C63.9746713,-1.93611049 64.3477147,-1.4436302 64.2930939,-0.894399665 C61.2277125,29.9290464 74.9334179,46.4234766 105.760152,48.9429992 L108.030568,49.1188556 C112.151868,49.4200278 116.479685,49.6369242 123.234238,49.9038938 L134.39334,50.3385055 C157.090922,51.2752422 168.394624,52.2633243 182.615624,54.9607542 L183.090758,55.0513039 C221.206353,62.3492275 249.991838,79.8011418 270.64245,113.063616 C299.287685,159.203234 311.865881,243.506378 308.454121,366.029636 C308.438748,366.581706 308.006806,367.015951 307.489352,367 C306.971897,366.983149 306.56488,366.522312 306.580253,365.970242 C309.981432,243.826931 297.455493,159.874024 269.079517,114.168109 C248.739197,81.4054305 220.406761,64.2281883 182.75961,57.0199568 L181.350984,56.7540674 C166.57757,54.0064458 154.649303,53.1064431 128.812461,52.1187489 L121.598808,51.8398446 C114.522561,51.5517817 110.198787,51.3117407 105.616957,50.9372598 C73.7617865,48.3336813 59.2491079,30.8680816 62.428863,-1.10543097 C62.4795823,-1.61543075 62.8812184,-1.99503136 63.3505084,-2 Z" id="Path-6" fill="#FFF" fill-rule="nonzero"/></g></g><g id="Body" transform="translate(41.000000, -31.000000) scale(1 1)"><g id="Body/Tee Shake Hand" stroke="none" stroke-width="1" fill="none" fill-rule="evenodd"><path d="M312,149 L448,149 C470.09139,149 488,166.90861 488,189 L488,300 L488,300 L272,300 L272,189 C272,166.90861 289.90861,149 312,149 Z" id="body" fill="#55B0EB"/><g id="Left-Arm" transform="translate(260.000000, 149.000000)"><polygon id="Rectangle" fill="#3F8FD4" points="12 82.8627594 74.9161 53 95 151 12 151"/><path d="M294.9928,230.7898 C298.1738,259.0898 275.1528,269.4808 250.2658,269.1938 C222.7918,271.1428 195.0058,271.0458 167.4538,267.5168 C138.1528,263.5998 108.7318,255.3528 83.4818,239.5968 C44.5358,215.5168 21.6198,172.5088 11.9418,129.3648 C7.8328,102.9278 -5.8852,52.7328 13.8558,33.4328 C33.2038,13.6638 70.0368,30.5648 69.7828,57.4898 C70.9938,100.5948 77.7628,149.8478 111.2578,178.4528 C116.8768,182.9468 123.3408,186.6998 129.8488,189.7358 C164.5488,204.8368 203.6318,205.6278 241.0988,203.6448 C246.8258,203.3038 253.1768,202.7828 258.8838,202.2068 C276.3358,200.5518 292.1168,213.3568 294.9928,230.7898" id="SKIN" fill="#ffdbb4"/><path d="M318.4088,250.9934 C319.3848,255.8704 315.9198,260.6674 310.6908,261.5974 C289.0368,265.4434 267.3118,268.1404 245.1848,269.5174 C238.5628,270.8384 229.6278,267.9124 229.6788,261.2544 C229.3158,254.6504 237.4868,251.1034 244.0708,251.5534 C265.4278,250.2254 286.5438,247.6054 307.5258,243.8774 C312.5578,242.9834 317.4298,246.1234 318.4088,250.9934" id="SKIN" fill="#ffdbb4"/><path d="M326.3658,232.9719 C327.4918,237.8119 324.1808,242.7029 319.0958,243.7229 C308.6198,244.0259 281.7208,256.4239 279.1318,241.1559 C277.2128,226.6969 305.7028,229.9849 315.5408,226.0769 C320.4018,225.1029 325.2308,228.1309 326.3658,232.9719" id="SKIN" fill="#ffdbb4"/><path d="M324.6715,216.9387 C327.9435,232.0337 298.8045,229.5437 289.1895,232.6957 C284.2305,233.4177 279.6865,229.9727 279.0455,225.0387 C276.9505,210.6887 304.6205,213.8607 314.2715,210.0037 C318.9605,209.0447 323.5465,212.1017 324.6715,216.9387" id="SKIN" fill="#ffdbb4"/><path d="M286.9791,198.6365 C287.7511,203.5415 284.5431,208.1385 279.7941,208.7825 C269.6441,208.4465 244.4501,218.8195 242.9671,203.5305 C242.2441,188.8175 267.4171,194.2825 277.3301,190.9505 C281.8941,190.3335 286.2051,193.7205 286.9791,198.6365" id="SKIN" fill="#ffdbb4"/><path d="M313.7848,202.9578 C314.8218,207.8188 311.8258,212.5708 307.0448,213.4658 C291.0728,216.4448 274.9058,218.7808 258.7248,220.3058 C253.8848,220.8058 249.6538,217.0288 249.2828,212.0938 C248.9118,207.1158 252.3648,202.8688 257.0098,202.3878 C272.6178,200.9188 288.3058,198.6508 303.7088,195.7778 C308.2848,194.9218 312.7528,198.0958 313.7848,202.9578" id="SKIN" fill="#ffdbb4"/><path d="M5.1021,121.3852 C0.3511,83.0982 -14.7300954,2.27373675e-13 51.3998262,2.27373675e-13 C68.8078262,2.596 75.3101,24.1352 74.9161,41.6912 C74.2301,63.8442 75.5911,86.0132 79.6471,106.5832 L5.1021,121.3852 Z" id="Fill-16" fill="#55B0EB"/></g><path d="M334,149 C334,167.225397 354.594902,182 380,182 C405.405098,182 426,167.225397 426,149" id="SKIN" fill="#ffdbb4"/></g></g><g id="Head" transform="translate(362.000000, -61.000000) scale(1 1)"><g id="Head/Short Hair" stroke="none" stroke-width="1" fill="none" fill-rule="evenodd"><g id="Head" transform="translate(22.000000, 72.000000)"><g id="head" transform="translate(0.000000, 0.000100)" fill="#ffdbb4"><path d="M13,62 L58,62 L58,113.633 C58,127.538 47.926,138.81 35.5,138.81 C23.074,138.81 13,127.538 13,113.633 L13,62 Z" id="SKIN"/><path d="M60.0525,94 L55.0655,94 C31.8335,94 13.0005,75.167 13.0005,51.935 L13.0005,32.203 C13.0005,14.418 27.4175,0 45.2035,0 L50.7965,0 C68.5825,0 83.0005,14.418 83.0005,32.203 L83.0005,71.052 C83.0005,83.726 72.7265,94 60.0525,94" id="SKIN"/><path d="M25,58.5 C25,65.403 19.404,71 12.5,71 C5.596,71 0,65.403 0,58.5 C0,51.597 5.596,46 12.5,46 C19.404,46 25,51.597 25,58.5" id="SKIN"/></g><path d="M10.067,53.1685 C10.9718309,53.1685 12.2239875,53.3771928 13.5088204,54.0196092 C15.6553998,55.0928989 17.0130325,57.055328 17.10411,59.9021045 L17.109,60.2105 L14.109,60.2105 C14.109,58.3751144 13.4076866,57.3231443 12.1671796,56.7028908 C11.7065142,56.4725581 11.1976823,56.3199085 10.686339,56.2346846 C10.4347302,56.1927498 10.2385731,56.1747448 10.1250097,56.169908 L10.067,56.1685 L10.067,53.1685 Z" id="ear-line" fill="#000"/><path d="M34.7507501,96.3317762 C25.4557924,93.0436693 20.8185822,84.7387742 18.9822222,73.5681961 C26.2532122,85.6702724 39.4406226,93.8133264 54.5439426,93.9968331 L55.0655,94 L58,94 C50.0632106,98.2298391 42.3134606,99.0070978 34.7507501,96.3317762 Z" id="SHADOW" fill="#000" opacity=".12"/><path d="M50.8086245,0 C64.717064,0 76.5752072,8.73752555 81.1464316,20.9990758 L25.3655574,20.9997374 L17.109,46.0001 L12.8420404,46 L12.8420404,32.2025974 C12.8420404,14.4178197 27.3241084,0 45.1903817,0 L50.8086245,0 Z" id="Combined-Shape" fill="#000"/></g></g></g><g id="Expression" transform="translate(409.000000, 34.000000) scale(1 1)" fill="#000"><g id="Expression/Happy 2" stroke="none" stroke-width="1" fill="none" fill-rule="evenodd"><polygon id="Stroke-5" fill="#000" points="33.1977829 19.396766 36.1476171 18.850434 40.4350211 41.9996 30.5607 41.9996 30.5607 38.9996 36.828 38.999"/><path d="M21.9219,41.586 C21.9219,45.2602625 25.6639817,48.6581933 29.6815435,48.7900329 L29.9229,48.794 L29.9229,51.794 C24.3252295,51.794 19.0961019,47.2280163 18.9261594,41.8552911 L18.9219,41.586 L21.9219,41.586 Z" id="Stroke-7" fill="#000"/><path d="M24.8347,7.0006 L24.8347,10.0006 C20.8614229,10.0006 17.2383573,11.0660474 14.0359527,12.8448841 C12.9150836,13.4674922 11.9293314,14.1334356 11.0897152,14.7961842 L10.7861407,15.040601 C10.5074069,15.2697737 10.3035438,15.4516564 10.1776864,15.572233 L10.1212727,15.6273476 L8.00012725,13.5058524 C8.85065801,12.6554618 10.3987207,11.4335033 12.5791973,10.2223159 C16.0571889,8.29039915 19.9861553,7.09862919 24.2942223,7.00637866 L24.8347,7.0006 Z" id="Stroke-4" fill="#000"/><path d="M36.8954,7.3444 C40.8877089,7.3444 44.5189484,8.41234066 47.7173411,10.1891511 C49.5298313,11.196048 50.8489395,12.2124881 51.6282721,12.9590003 L51.7680602,13.0957398 L49.6467398,15.2170602 C49.5206826,15.0910029 49.2403474,14.8394225 48.8151324,14.5037331 C48.0875713,13.9293541 47.2327349,13.3517796 46.2604589,12.8116489 C43.6148805,11.3419446 40.6390044,10.4338096 37.3855011,10.3506532 L36.8954,10.3444 L36.8954,7.3444 Z" id="Stroke-6" fill="#000"/><path d="M12.441685,23.929414 C14.9313631,17.7052186 25.7247131,17.6293138 27.2529395,23.9551094 L27.305271,24.1923258 L24.363529,24.7806742 C23.6883751,21.4049049 16.9493145,21.3456809 15.3099937,24.8523178 L15.227115,25.043586 L12.441685,23.929414 Z" id="Stroke-8" fill="#000"/><path d="M37.441685,23.929414 C39.9313631,17.7052186 50.7247131,17.6293138 52.2529395,23.9551094 L52.305271,24.1923258 L49.363529,24.7806742 C48.6883751,21.4049049 41.9493145,21.3456809 40.3099937,24.8523178 L40.227115,25.043586 L37.441685,23.929414 Z" id="Stroke-10" fill="#000"/></g></g><g id="Accessories" transform="translate(396.000000, 56.000000) scale(1 1)" fill="#000"><g id="Accessories/None" stroke="none" stroke-width="1" fill="none" fill-rule="evenodd" fill-opacity="0"/></g><g id="Glasses" transform="translate(388.000000, 42.000000) scale(1 1)" fill="#000"><g id="Glasses/Thick" stroke="none" stroke-width="1" fill="none" fill-rule="evenodd"><path d="M43.5452664,3.00012344 C49.2894512,3.02462661 55.021427,4.35163303 57.0857956,6.97405047 C58.0938547,8.25461237 58.6772219,10.0147386 58.9068842,11.9996703 L62.1143968,11.9996703 C62.3440591,10.0147386 62.9274264,8.25461237 63.9354854,6.97405047 C65.9529365,4.41123343 71.4731799,3.0856142 77.0844275,3.00401411 L77.4760146,3.00012344 L77.8967218,3.00012344 L80.8146938,3.0378718 C91.0822714,3.2070925 94.9796428,3.73089949 95.893837,5.69362755 C96.9046181,7.86372269 97.4724619,10.8486323 96.5699433,12.3975628 L96.4345265,12.6077971 C96.2607766,12.8804731 95.8187885,13.7026763 95.3317143,14.6775352 L95.2267324,14.8886255 L94.7966033,15.7746065 C94.1772527,17.0747485 93.6217104,18.3482986 93.2115536,19.4320065 L93.1438986,19.6872046 L93.1438986,19.6872046 C92.2530855,22.9637972 90.4857872,26.1972123 88.6985341,28.3365739 C85.3492115,32.34575 71.1131799,32.6082999 67.0329763,28.4576053 C64.4038322,25.7830393 62.5077693,20.7417692 62.087653,15.9998009 L58.933628,15.9998009 C58.5135117,20.7417692 56.6174488,25.7830393 53.9883048,28.4576053 C49.9081011,32.6082999 35.6720695,32.34575 32.3227469,28.3365739 C30.5354938,26.1972123 28.7681955,22.9637972 27.8773824,19.6872046 L27.8097274,19.4320065 C27.4233065,18.4110132 26.9078403,17.2215143 26.331547,16.0000268 L0,16 L0,12 L24.2628445,12.0004643 C23.6422666,10.3774347 24.1973223,7.69055104 25.127444,5.69362755 C26.0970439,3.61194627 30.4223758,3.14888604 42.1443686,3.0107703 L43.1245592,3.00012344 L43.5452664,3.00012344 Z M32.8542992,9.57832836 C31.1333273,11.9393787 30.7976239,14.9040914 31.4059083,17.8533932 L31.6334165,18.4663592 L31.5539327,18.4983688 C32.1949786,21.035914 33.5135424,23.5284501 35.226974,25.5794466 C37.0849603,27.8034767 48.7860935,28.0192764 51.3034638,25.4584151 C54.5060095,22.2005411 56.3804317,12.9591713 54.2303847,9.80770023 L54.1067801,9.63896051 L53.9809214,9.49277664 C51.015179,6.32545056 35.1904568,6.373287 32.8542992,9.57832836 Z M88.1669819,9.57832836 C85.8662205,6.42184823 70.4825425,6.32762495 67.1839305,9.35102137 L67.0403596,9.49277664 L66.9145009,9.63896051 L66.7908963,9.80770023 C64.6408493,12.9591713 66.5152715,22.2005411 69.7178172,25.4584151 C72.2351876,28.0192764 83.9363207,27.8034767 85.794307,25.5794466 C87.4069485,23.6490969 88.669811,21.3276257 89.347247,18.9456229 L89.4673483,18.4983688 L89.3878645,18.4663592 L89.6153727,17.8533932 L89.6153727,17.8533932 C90.2236571,14.9040914 89.8879537,11.9393787 88.1669819,9.57832836 Z" id="Shape" fill="#000"/></g></g></g></g><g id="Desk" transform="translate(171.000000, 207.000000)"><rect id="Rectangle" fill="#BE6FFB" x="290" y="0" width="257" height="217"/><rect id="Rectangle" fill="#CCA4FF" x="290" y="0" width="26" height="217"/><g id="keyboard" transform="translate(185.000000, 258.000000)"><rect id="Rectangle" fill="#C67BFF" x="0" y="0" width="203" height="15"/><rect id="Rectangle" fill="#F2E7FF" x="0" y="0" width="68" height="15"/></g><rect id="Rectangle" fill="#BE6FFB" x="56" y="272" width="520" height="38"/><rect id="Rectangle" fill="#CCA4FF" x="56" y="272" width="174" height="38"/><rect id="Rectangle" fill="#E4CEFF" x="56" y="272" width="257" height="38"/><polygon id="Rectangle" fill="#CCA4FF" points="72 310 106 310 18 700 -6.36626862e-12 700"/><polygon id="Rectangle" fill="#CCA4FF" transform="translate(330.000000, 505.000000) scale(-1, 1) translate(-330.000000, -505.000000)" points="349 310 383 310 295 700 277 700"/><polygon id="Rectangle" fill="#CCA4FF" transform="translate(584.000000, 505.000000) scale(-1, 1) translate(-584.000000, -505.000000)" points="603 310 637 310 549 700 531 700"/><rect id="Rectangle" fill="#870CF7" x="425" y="83" width="63" height="189"/><rect id="Rectangle" fill="#CCA4FF" x="425" y="83" width="18" height="189"/></g></g></svg>