<svg viewBox="29.086538461538453 26.424999999999955 793.2692307692307 1030.5749999999998" xmlns="http://www.w3.org/2000/svg" overflow="visible" xmlns:xlink="http://www.w3.org/1999/xlink" width="793.2692307692307px" height="1030.5749999999998px"><g id="Master/Comps/User Interface" stroke="none" stroke-width="1" fill="none" fill-rule="evenodd"><g id="UI" transform="translate(31.000000, 36.000000)"><g id="Cards" transform="translate(414.000000, 209.000000)"><g id="Group"><g id="Group-7"><path d="M26.638852,45 L80.361148,45 C89.2763354,45 92.5091978,45.9282561 95.768457,47.671327 C99.0277163,49.414398 101.585602,51.9722837 103.328673,55.231543 C105.071744,58.4908022 106,61.7236646 106,70.638852 L106,163.361148 C106,172.276335 105.071744,175.509198 103.328673,178.768457 C101.585602,182.027716 99.0277163,184.585602 95.768457,186.328673 C92.5091978,188.071744 89.2763354,189 80.361148,189 L26.638852,189 C17.7236646,189 14.4908022,188.071744 11.231543,186.328673 C7.97228371,184.585602 5.41439796,182.027716 3.67132704,178.768457 C1.92825611,175.509198 1,172.276335 1,163.361148 L1,70.638852 C1,61.7236646 1.92825611,58.4908022 3.67132704,55.231543 C5.41439796,51.9722837 7.97228371,49.414398 11.231543,47.671327 C14.4908022,45.9282561 17.7236646,45 26.638852,45 Z" id="Rectangle-2" fill="#BAEBFF"/><path d="M26.638852,544 L80.361148,544 C89.2763354,544 92.5091978,544.928256 95.768457,546.671327 C99.0277163,548.414398 101.585602,550.972284 103.328673,554.231543 C105.071744,557.490802 106,560.723665 106,569.638852 L106,707.361148 C106,716.276335 105.071744,719.509198 103.328673,722.768457 C101.585602,726.027716 99.0277163,728.585602 95.768457,730.328673 C92.5091978,732.071744 89.2763354,733 80.361148,733 L26.638852,733 C17.7236646,733 14.4908022,732.071744 11.231543,730.328673 C7.97228371,728.585602 5.41439796,726.027716 3.67132704,722.768457 C1.92825611,719.509198 1,716.276335 1,707.361148 L1,569.638852 C1,560.723665 1.92825611,557.490802 3.67132704,554.231543 C5.41439796,550.972284 7.97228371,548.414398 11.231543,546.671327 C14.4908022,544.928256 17.7236646,544 26.638852,544 Z" id="Rectangle-2-Copy-9" fill="#B8DBE9"/><path d="M270.638852,367 L324.361148,367 C333.276335,367 336.509198,367.928256 339.768457,369.671327 C343.027716,371.414398 345.585602,373.972284 347.328673,377.231543 C349.071744,380.490802 350,383.723665 350,392.638852 L350,485.361148 C350,494.276335 349.071744,497.509198 347.328673,500.768457 C345.585602,504.027716 343.027716,506.585602 339.768457,508.328673 C336.509198,510.071744 333.276335,511 324.361148,511 L270.638852,511 C261.723665,511 258.490802,510.071744 255.231543,508.328673 C251.972284,506.585602 249.414398,504.027716 247.671327,500.768457 C245.928256,497.509198 245,494.276335 245,485.361148 L245,392.638852 C245,383.723665 245.928256,380.490802 247.671327,377.231543 C249.414398,373.972284 251.972284,371.414398 255.231543,369.671327 C258.490802,367.928256 261.723665,367 270.638852,367 Z" id="Rectangle-2-Copy-8" fill="#B8DBE9"/><path d="M148.638852,45 L202.361148,45 C211.276335,45 214.509198,45.9282561 217.768457,47.671327 C221.027716,49.414398 223.585602,51.9722837 225.328673,55.231543 C227.071744,58.4908022 228,61.7236646 228,70.638852 L228,230.361148 C228,239.276335 227.071744,242.509198 225.328673,245.768457 C223.585602,249.027716 221.027716,251.585602 217.768457,253.328673 C214.509198,255.071744 211.276335,256 202.361148,256 L148.638852,256 C139.723665,256 136.490802,255.071744 133.231543,253.328673 C129.972284,251.585602 127.414398,249.027716 125.671327,245.768457 C123.928256,242.509198 123,239.276335 123,230.361148 L123,70.638852 C123,61.7236646 123.928256,58.4908022 125.671327,55.231543 C127.414398,51.9722837 129.972284,49.414398 133.231543,47.671327 C136.490802,45.9282561 139.723665,45 148.638852,45 Z" id="Rectangle-2-Copy" fill="#8AB8F1"/><path d="M270.638852,178 L324.361148,178 C333.276335,178 336.509198,178.928256 339.768457,180.671327 C343.027716,182.414398 345.585602,184.972284 347.328673,188.231543 C349.071744,191.490802 350,194.723665 350,203.638852 L350,318.361148 C350,327.276335 349.071744,330.509198 347.328673,333.768457 C345.585602,337.027716 343.027716,339.585602 339.768457,341.328673 C336.509198,343.071744 333.276335,344 324.361148,344 L270.638852,344 C261.723665,344 258.490802,343.071744 255.231543,341.328673 C251.972284,339.585602 249.414398,337.027716 247.671327,333.768457 C245.928256,330.509198 245,327.276335 245,318.361148 L245,203.638852 C245,194.723665 245.928256,191.490802 247.671327,188.231543 C249.414398,184.972284 251.972284,182.414398 255.231543,180.671327 C258.490802,178.928256 261.723665,178 270.638852,178 Z" id="Rectangle-2-Copy-4" fill="#B8DBE9"/><path d="M148.638852,278 L202.361148,278 C211.276335,278 214.509198,278.928256 217.768457,280.671327 C221.027716,282.414398 223.585602,284.972284 225.328673,288.231543 C227.071744,291.490802 228,294.723665 228,303.638852 L228,363.361148 C228,372.276335 227.071744,375.509198 225.328673,378.768457 C223.585602,382.027716 221.027716,384.585602 217.768457,386.328673 C214.509198,388.071744 211.276335,389 202.361148,389 L148.638852,389 C139.723665,389 136.490802,388.071744 133.231543,386.328673 C129.972284,384.585602 127.414398,382.027716 125.671327,378.768457 C123.928256,375.509198 123,372.276335 123,363.361148 L123,303.638852 C123,294.723665 123.928256,291.490802 125.671327,288.231543 C127.414398,284.972284 129.972284,282.414398 133.231543,280.671327 C136.490802,278.928256 139.723665,278 148.638852,278 Z" id="Rectangle-2-Copy-5" fill="#B8DBE9"/><path d="M270.638852,45 L324.361148,45 C333.276335,45 336.509198,45.9282561 339.768457,47.671327 C343.027716,49.414398 345.585602,51.9722837 347.328673,55.231543 C349.071744,58.4908022 350,61.7236646 350,70.638852 L350,130.361148 C350,139.276335 349.071744,142.509198 347.328673,145.768457 C345.585602,149.027716 343.027716,151.585602 339.768457,153.328673 C336.509198,155.071744 333.276335,156 324.361148,156 L270.638852,156 C261.723665,156 258.490802,155.071744 255.231543,153.328673 C251.972284,151.585602 249.414398,149.027716 247.671327,145.768457 C245.928256,142.509198 245,139.276335 245,130.361148 L245,70.638852 C245,61.7236646 245.928256,58.4908022 247.671327,55.231543 C249.414398,51.9722837 251.972284,49.414398 255.231543,47.671327 C258.490802,45.9282561 261.723665,45 270.638852,45 Z" id="Rectangle-2-Copy-2" fill="#B8DBE9"/><path d="M26.638852,345 L80.361148,345 C89.2763354,345 92.5091978,345.928256 95.768457,347.671327 C99.0277163,349.414398 101.585602,351.972284 103.328673,355.231543 C105.071744,358.490802 106,361.723665 106,370.638852 L106,496.361148 C106,505.276335 105.071744,508.509198 103.328673,511.768457 C101.585602,515.027716 99.0277163,517.585602 95.768457,519.328673 C92.5091978,521.071744 89.2763354,522 80.361148,522 L26.638852,522 C17.7236646,522 14.4908022,521.071744 11.231543,519.328673 C7.97228371,517.585602 5.41439796,515.027716 3.67132704,511.768457 C1.92825611,508.509198 1,505.276335 1,496.361148 L1,370.638852 C1,361.723665 1.92825611,358.490802 3.67132704,355.231543 C5.41439796,351.972284 7.97228371,349.414398 11.231543,347.671327 C14.4908022,345.928256 17.7236646,345 26.638852,345 Z" id="Rectangle-2-Copy-6" fill="#8AB8F1"/><path d="M26.638852,211 L80.361148,211 C89.2763354,211 92.5091978,211.928256 95.768457,213.671327 C99.0277163,215.414398 101.585602,217.972284 103.328673,221.231543 C105.071744,224.490802 106,227.723665 106,236.638852 L106,296.361148 C106,305.276335 105.071744,308.509198 103.328673,311.768457 C101.585602,315.027716 99.0277163,317.585602 95.768457,319.328673 C92.5091978,321.071744 89.2763354,322 80.361148,322 L26.638852,322 C17.7236646,322 14.4908022,321.071744 11.231543,319.328673 C7.97228371,317.585602 5.41439796,315.027716 3.67132704,311.768457 C1.92825611,308.509198 1,305.276335 1,296.361148 L1,236.638852 C1,227.723665 1.92825611,224.490802 3.67132704,221.231543 C5.41439796,217.972284 7.97228371,215.414398 11.231543,213.671327 C14.4908022,211.928256 17.7236646,211 26.638852,211 Z" id="Rectangle-2-Copy-3" fill="#B8DBE9"/><path d="M270.638852,666 L324.361148,666 C333.276335,666 336.509198,666.928256 339.768457,668.671327 C343.027716,670.414398 345.585602,672.972284 347.328673,676.231543 C349.071744,679.490802 350,682.723665 350,691.638852 L350,751.361148 C350,760.276335 349.071744,763.509198 347.328673,766.768457 C345.585602,770.027716 343.027716,772.585602 339.768457,774.328673 C336.509198,776.071744 333.276335,777 324.361148,777 L270.638852,777 C261.723665,777 258.490802,776.071744 255.231543,774.328673 C251.972284,772.585602 249.414398,770.027716 247.671327,766.768457 C245.928256,763.509198 245,760.276335 245,751.361148 L245,691.638852 C245,682.723665 245.928256,679.490802 247.671327,676.231543 C249.414398,672.972284 251.972284,670.414398 255.231543,668.671327 C258.490802,666.928256 261.723665,666 270.638852,666 Z" id="Rectangle-2-Copy-12" fill="#8AB8F1"/><path d="M6,0 L39,0 C42.3137085,-6.08718376e-16 45,2.6862915 45,6 C45,9.3137085 42.3137085,12 39,12 L6,12 C2.6862915,12 4.05812251e-16,9.3137085 0,6 C-4.05812251e-16,2.6862915 2.6862915,6.08718376e-16 6,0 Z" id="Rectangle" fill="#B8DBE9"/><path d="M73,0 L106,0 C109.313708,-6.08718376e-16 112,2.6862915 112,6 C112,9.3137085 109.313708,12 106,12 L73,12 C69.6862915,12 67,9.3137085 67,6 C67,2.6862915 69.6862915,6.08718376e-16 73,0 Z" id="Rectangle-Copy" fill="#B8DBE9" opacity=".3"/><path d="M139,0 L172,0 C175.313708,-6.08718376e-16 178,2.6862915 178,6 C178,9.3137085 175.313708,12 172,12 L139,12 C135.686292,12 133,9.3137085 133,6 C133,2.6862915 135.686292,6.08718376e-16 139,0 Z" id="Rectangle-Copy-2" fill="#B8DBE9" opacity=".3"/><path d="M206,0 L239,0 C242.313708,-6.08718376e-16 245,2.6862915 245,6 C245,9.3137085 242.313708,12 239,12 L206,12 C202.686292,12 200,9.3137085 200,6 C200,2.6862915 202.686292,6.08718376e-16 206,0 Z" id="Rectangle-Copy-3" fill="#B8DBE9" opacity=".3"/><path d="M272,0 L305,0 C308.313708,-6.08718376e-16 311,2.6862915 311,6 C311,9.3137085 308.313708,12 305,12 L272,12 C268.686292,12 266,9.3137085 266,6 C266,2.6862915 268.686292,6.08718376e-16 272,0 Z" id="Rectangle-Copy-4" fill="#B8DBE9" opacity=".3"/></g></g></g><g id="Profile"><g id="Group-6"><path d="M170,0 L181,0 C208.614237,-5.07265313e-15 231,22.3857625 231,50 L231,61 C231,88.6142375 208.614237,111 181,111 L170,111 C142.385763,111 120,88.6142375 120,61 L120,50 C120,22.3857625 142.385763,5.07265313e-15 170,0 Z" id="Rectangle" fill="#B8DBE9"/><path d="M171.5595,42.18 C169.903657,42.18 168.5625,43.5046 168.5625,45.14 L168.5625,46.62 L164.067,46.62 C162.411157,46.62 161.07,47.9446 161.07,49.58 L161.07,65.86 C161.07,67.4954 162.411157,68.82 164.067,68.82 L188.043,68.82 C189.698842,68.82 191.04,67.4954 191.04,65.86 L191.04,49.58 C191.04,47.9446 189.698842,46.62 188.043,46.62 L183.5475,46.62 L183.5475,45.14 C183.5475,43.5046 182.206342,42.18 180.5505,42.18 L171.5595,42.18 Z M176.61,49.95 C180.894378,49.95 184.38,53.186649 184.38,57.165 C184.38,61.143351 180.894378,64.38 176.61,64.38 C172.325622,64.38 168.84,61.143351 168.84,57.165 C168.84,53.186649 172.325622,49.95 176.61,49.95 Z M186.045,49.95 C186.96408,49.95 187.71,50.69592 187.71,51.615 C187.71,52.53408 186.96408,53.28 186.045,53.28 C185.12592,53.28 184.38,52.53408 184.38,51.615 C184.38,50.69592 185.12592,49.95 186.045,49.95 Z M176.61,52.17 C174.157856,52.17 172.17,54.1578557 172.17,56.61 C172.17,59.0621443 174.157856,61.05 176.61,61.05 C179.062144,61.05 181.05,59.0621443 181.05,56.61 C181.05,54.1578557 179.062144,52.17 176.61,52.17 Z" id="Shape" fill="#70A2DE" fill-rule="nonzero"/><path d="M92.5,144 L125.75,144 C128.787566,144 131.25,146.462434 131.25,149.5 C131.25,152.537566 128.787566,155 125.75,155 L92.5,155 C89.4624339,155 87,152.537566 87,149.5 C87,146.462434 89.4624339,144 92.5,144 Z" id="Rectangle" fill="#8AB8F1"/><path d="M158.875,144 L192.125,144 C195.162566,144 197.625,146.462434 197.625,149.5 C197.625,152.537566 195.162566,155 192.125,155 L158.875,155 C155.837434,155 153.375,152.537566 153.375,149.5 C153.375,146.462434 155.837434,144 158.875,144 Z" id="Rectangle-Copy" fill="#B8DBE9" opacity=".3"/><path d="M225.25,144 L258.5,144 C261.537566,144 264,146.462434 264,149.5 C264,152.537566 261.537566,155 258.5,155 L225.25,155 C222.212434,155 219.75,152.537566 219.75,149.5 C219.75,146.462434 222.212434,144 225.25,144 Z" id="Rectangle-Copy-2" fill="#B8DBE9" opacity=".3"/><path d="M321.310292,266 L343.451613,266 C346.515902,266 349,268.484098 349,271.548387 C349,274.612677 346.515902,277.096774 343.451613,277.096774 L321.310292,277.096774 C318.246002,277.096774 315.761905,274.612677 315.761905,271.548387 C315.761905,268.484098 318.246002,266 321.310292,266 Z" id="Rectangle" fill="#B8DBE9"/><path d="M310.230927,299.290323 L343.451613,299.290323 C346.515902,299.290323 349,301.77442 349,304.83871 C349,307.902999 346.515902,310.387097 343.451613,310.387097 L310.230927,310.387097 C307.166637,310.387097 304.68254,307.902999 304.68254,304.83871 C304.68254,301.77442 307.166637,299.290323 310.230927,299.290323 Z" id="Rectangle" fill="#B8DBE9"/><path d="M332.389657,332.580645 L343.451613,332.580645 C346.515902,332.580645 349,335.064743 349,338.129032 C349,341.193322 346.515902,343.677419 343.451613,343.677419 L332.389657,343.677419 C329.325367,343.677419 326.84127,341.193322 326.84127,338.129032 C326.84127,335.064743 329.325367,332.580645 332.389657,332.580645 Z" id="Rectangle" fill="#B8DBE9"/><path d="M343.460317,365.870968 C346.5198,365.870968 349,368.351168 349,371.41065 L349,371.428059 C349,374.487542 346.5198,376.967742 343.460317,376.967742 C340.400835,376.967742 337.920635,374.487542 337.920635,371.428059 L337.920635,371.41065 C337.920635,368.351168 340.400835,365.870968 343.460317,365.870968 Z" id="Rectangle" fill="#B8DBE9"/><path d="M321.310292,399.16129 L343.451613,399.16129 C346.515902,399.16129 349,401.645388 349,404.709677 C349,407.773967 346.515902,410.258065 343.451613,410.258065 L321.310292,410.258065 C318.246002,410.258065 315.761905,407.773967 315.761905,404.709677 C315.761905,401.645388 318.246002,399.16129 321.310292,399.16129 Z" id="Rectangle" fill="#B8DBE9"/><path d="M332.389657,432.451613 L343.451613,432.451613 C346.515902,432.451613 349,434.93571 349,438 C349,441.06429 346.515902,443.548387 343.451613,443.548387 L332.389657,443.548387 C329.325367,443.548387 326.84127,441.06429 326.84127,438 C326.84127,434.93571 329.325367,432.451613 332.389657,432.451613 Z" id="Rectangle" fill="#B8DBE9"/><path d="M343.460317,465.741935 C346.5198,465.741935 349,468.222136 349,471.281618 L349,471.299027 C349,474.358509 346.5198,476.83871 343.460317,476.83871 C340.400835,476.83871 337.920635,474.358509 337.920635,471.299027 L337.920635,471.281618 C337.920635,468.222136 340.400835,465.741935 343.460317,465.741935 Z" id="Rectangle" fill="#8AB8F1"/><path d="M5.5483871,598.903226 L193.880184,598.903226 C196.944474,598.903226 199.428571,601.387323 199.428571,604.451613 C199.428571,607.515902 196.944474,610 193.880184,610 L5.5483871,610 C2.48409752,610 3.75267243e-16,607.515902 0,604.451613 C-3.75267243e-16,601.387323 2.48409752,598.903226 5.5483871,598.903226 Z" id="Rectangle" fill="#B8DBE9"/><path d="M332.389657,499.032258 L343.451613,499.032258 C346.515902,499.032258 349,501.516356 349,504.580645 C349,507.644935 346.515902,510.129032 343.451613,510.129032 L332.389657,510.129032 C329.325367,510.129032 326.84127,507.644935 326.84127,504.580645 C326.84127,501.516356 329.325367,499.032258 332.389657,499.032258 Z" id="Rectangle" fill="#8AB8F1"/><path d="M321.310292,532.322581 L343.451613,532.322581 C346.515902,532.322581 349,534.806678 349,537.870968 C349,540.935257 346.515902,543.419355 343.451613,543.419355 L321.310292,543.419355 C318.246002,543.419355 315.761905,540.935257 315.761905,537.870968 C315.761905,534.806678 318.246002,532.322581 321.310292,532.322581 Z" id="Rectangle" fill="#B8DBE9"/><path d="M5.5483871,565.612903 L83.0865335,565.612903 C86.1508231,565.612903 88.6349206,568.097001 88.6349206,571.16129 C88.6349206,574.22558 86.1508231,576.709677 83.0865335,576.709677 L5.5483871,576.709677 C2.48409752,576.709677 3.75267243e-16,574.22558 0,571.16129 C-3.75267243e-16,568.097001 2.48409752,565.612903 5.5483871,565.612903 Z" id="Rectangle" fill="#BAEBFF"/><path d="M5.5483871,532.322581 L49.8484383,532.322581 C52.9127279,532.322581 55.3968254,534.806678 55.3968254,537.870968 C55.3968254,540.935257 52.9127279,543.419355 49.8484383,543.419355 L5.5483871,543.419355 C2.48409752,543.419355 3.75267243e-16,540.935257 0,537.870968 C-3.75267243e-16,534.806678 2.48409752,532.322581 5.5483871,532.322581 Z" id="Rectangle" fill="#8AB8F1"/><path d="M5.5483871,499.032258 L38.7690732,499.032258 C41.8333628,499.032258 44.3174603,501.516356 44.3174603,504.580645 C44.3174603,507.644935 41.8333628,510.129032 38.7690732,510.129032 L5.5483871,510.129032 C2.48409752,510.129032 3.75267243e-16,507.644935 0,504.580645 C-3.75267243e-16,501.516356 2.48409752,499.032258 5.5483871,499.032258 Z" id="Rectangle" fill="#B8DBE9"/><path d="M5.5483871,332.580645 L83.0865335,332.580645 C86.1508231,332.580645 88.6349206,335.064743 88.6349206,338.129032 C88.6349206,341.193322 86.1508231,343.677419 83.0865335,343.677419 L5.5483871,343.677419 C2.48409752,343.677419 3.75267243e-16,341.193322 0,338.129032 C-3.75267243e-16,335.064743 2.48409752,332.580645 5.5483871,332.580645 Z" id="Rectangle" fill="#B8DBE9"/><path d="M5.5483871,299.290323 L127.403994,299.290323 C130.468283,299.290323 132.952381,301.77442 132.952381,304.83871 C132.952381,307.902999 130.468283,310.387097 127.403994,310.387097 L5.5483871,310.387097 C2.48409752,310.387097 3.75267243e-16,307.902999 0,304.83871 C-3.75267243e-16,301.77442 2.48409752,299.290323 5.5483871,299.290323 Z" id="Rectangle" fill="#BAEBFF"/><path d="M5.5483871,266 L49.8484383,266 C52.9127279,266 55.3968254,268.484098 55.3968254,271.548387 C55.3968254,274.612677 52.9127279,277.096774 49.8484383,277.096774 L5.5483871,277.096774 C2.48409752,277.096774 3.75267243e-16,274.612677 0,271.548387 C-3.75267243e-16,268.484098 2.48409752,266 5.5483871,266 Z" id="Rectangle" fill="#B8DBE9"/><path d="M22,200 L327,200 C339.150264,200 349,209.849736 349,222 C349,234.150264 339.150264,244 327,244 L22,244 C9.8497355,244 1.48797825e-15,234.150264 0,222 C-1.48797825e-15,209.849736 9.8497355,200 22,200 Z" id="Rectangle-2" fill="#8AB8F1"/><rect id="Rectangle-2" fill="#B8DBE9" x="0" y="701" width="161" height="56" rx="28"/></g><g id="Group-3" transform="translate(0.000000, 266.000000)"/></g></g><g transform="translate(0.000000, 180.000000) scale(1 1)" id="Master/Character/Standing"><g id="Master/Character/Standing" stroke="none" stroke-width="1" fill="none" fill-rule="evenodd"><g id="Legs" transform="translate(50.000000, 263.000000) scale(1 1)"><g id="Legs/Pants Stand Forward" stroke="none" stroke-width="1" fill="none" fill-rule="evenodd"><g id="Right-leg" transform="translate(345.827400, 6.000000)"><path d="M17.1726,538.794079 C16.7282355,482.562693 14.6318827,368.338742 14.1735382,314.254612 C14.073681,304.520186 21.9574059,296.547228 31.783353,296.447541 L75.5247949,295.999074 C85.3507421,295.901257 93.3962356,303.710729 93.4960928,313.444157 C94.1581459,366.840448 96.2255359,482.493338 96.8770986,538 C96.9125533,541.563807 17.2085486,542.359879 17.1726,538.794079 Z" id="SKIN-DARKER" fill="#dcb284"/><path d="M5.53383916,1.34842064 C2.5315175,1.3793098 0.132657491,4.68046396 0.1726,8.72196148 C0.92894713,105.459828 3.29783387,438.016485 4.0012064,529 L111.1726,527.907919 C110.034615,440.845333 105.594576,95.5842655 104.371667,2.33488083 C104.697376,-0.404622091 71.7514338,-0.733442155 5.53383916,1.34842064 Z" id="Fill-3" fill="#051026"/><polygon id="Fill-5" fill="#FFF" points="97.1726 566.206898 17.4675919 567 17.1726 538.794079 96.8766047 538"/><path d="M52.8126594,553.452382 C54.170628,569.630627 19.7881481,569.981578 20.82217,553.783047 C18.3990887,553.808405 17,553.82362 17,553.82362 L17.3670727,590 L133,590 L132.880651,577.134492 C132.787379,567.798783 101.399314,565.830865 96.8770986,553.040416 C79.8381941,553.187933 65.1500477,553.325255 52.8126594,553.452382 Z" id="Fill-7" fill="#0A1B45"/></g><path d="M243,0 C243,55.228475 289.562386,100 347,100 C404.437614,100 451,55.228475 451,0" id="Waist" fill="#0A1B45"/><g id="Left-Leg" transform="translate(126.999300, 0.000000)"><path d="M13.3051835,561.440501 C11.1111953,546.184832 10.3220497,537.037999 10.9377469,534 C20.1472456,485.625024 25.5921475,459.483817 35.7421653,411.454867 L57.0516115,312.169384 C59.1423194,302.49757 68.6283827,296.334735 78.231262,298.397962 L120.98594,307.584544 C130.590817,309.64976 136.676234,319.144584 134.591517,328.795516 C120.348943,394.794928 106.123343,460.863942 92.6555495,526.806677 C89.8749278,540.410057 86.5002416,557.386193 83.9572458,570.940851" id="SKIN" fill="#ffdbb4"/><path d="M116.006418,0 C113.763854,3.4799207 112.459231,6.70044364 112.092549,9.66156882 C74.6759301,177.729367 34.9662125,354.281468 0.000699999971,523.074582 L105.209251,544 C139.099717,375.548093 177.579381,199.923839 213.937954,32.0675491 C215.254011,28.0708282 216.244054,20.0484537 211.194835,19.2203762 L116.006418,0 Z" id="Fill-14" fill="#0A1B45"/><path d="M83.3601048,579 L5.0007,565.282628 C6.56007619,556.358409 9.17706398,543 10.9377469,534 L89.0007,549.308775 C87.3371651,557.831154 84.8263391,570.583315 83.3601048,579" id="Fill-17" fill="#FFF"/><path d="M48.0722194,554.707883 C46.3286593,554.3746 44.5836836,554.041064 42.8507073,553.709842 C40.9286966,569.772161 7.239981,563.569099 11.507225,547.716275 C9.13297646,547.262368 7.76225565,547 7.76225565,547 C3.25455188,560.989671 1.0007,577.323004 1.0007,596 L116.379373,596 C116.688869,593.100316 116.895978,591.364496 117.0007,590.79254 C114.31929,579.591514 87.0769642,574.709272 85.8223045,561.925058 C80.9448767,560.993029 64.5719354,557.861817 48.0722194,554.707883 Z" id="Fill-19" fill="#0A1B45"/><path d="M167.0007,9.42973949 L165.045098,9 C127.197745,180.886821 87.3156843,360.037335 52.0007,532.611141 L53.9643125,533 C89.2843034,360.409244 129.149341,181.339493 167.0007,9.42973949" id="Fill-21" fill="#FFF"/></g></g></g><g id="Body" transform="translate(17.000000, -31.000000) scale(1 1)"><g id="Body/Sweats Grab Up" stroke="none" stroke-width="1" fill="none" fill-rule="evenodd"><g id="Right-Arm" transform="translate(419.000000, 39.000000)"><path d="M351.9107,74.8252 C336.7217,80.5792 317.0057,80.9132 302.4357,88.5162 C263.8207,111.3102 224.3037,131.6642 181.8237,148.2092 C164.9427,154.9732 145.6647,161.1192 128.1407,166.0712 C114.9227,169.6592 99.6917,172.9812 86.1507,175.3942 C73.6657,177.8342 58.9327,180.4122 48.8577,170.6292 C27.3007,155.1672 37.4937,116.5342 62.9547,112.1392 C74.4747,110.6702 87.6287,108.1722 98.8917,105.3472 C118.6297,100.7112 139.1377,94.0792 158.0007,86.6592 C209.7897,68.1512 257.2237,35.9292 306.7027,11.7412 C325.4037,1.9022 361.0887,-2.5508 374.0117,3.3322 C379.5987,4.3672 382.2467,13.4502 376.6737,16.0302 C374.8387,16.8792 367.8407,18.4152 359.6637,20.9352 C363.5887,22.7232 366.5347,25.2032 368.6497,27.5302 C373.4157,32.7402 367.2647,41.8072 359.7097,39.6192 C353.0907,37.6662 346.3067,31.2492 332.7967,33.4442 C317.9347,46.6412 329.0507,63.1312 346.0567,58.7652 C355.8037,57.6422 359.9737,71.6772 351.9107,74.8252" id="SKIN" fill="#ffdbb4"/><path d="M351.9107,74.8252 C336.7217,80.5792 317.0057,80.9132 302.4357,88.5162 C263.8207,111.3102 224.3037,131.6642 181.8237,148.2092 C164.9427,154.9732 145.6647,161.1192 128.1407,166.0712 C114.9227,169.6592 99.6917,172.9812 86.1507,175.3942 C73.6657,177.8342 58.9327,180.4122 48.8577,170.6292 C27.3007,155.1672 37.4937,116.5342 62.9547,112.1392 C74.4747,110.6702 87.6287,108.1722 98.8917,105.3472 C118.6297,100.7112 139.1377,94.0792 158.0007,86.6592 C209.7897,68.1512 257.2237,35.9292 306.7027,11.7412 C325.4037,1.9022 361.0887,-2.5508 374.0117,3.3322 C379.5987,4.3672 382.2467,13.4502 376.6737,16.0302 C374.8387,16.8792 367.8407,18.4152 359.6637,20.9352 C363.5887,22.7232 366.5347,25.2032 368.6497,27.5302 C373.4157,32.7402 367.2647,41.8072 359.7097,39.6192 C353.0907,37.6662 346.3067,31.2492 332.7967,33.4442 C317.9347,46.6412 329.0507,63.1312 346.0567,58.7652 C355.8037,57.6422 359.9737,71.6772 351.9107,74.8252" id="SHADOW" fill="#000" opacity=".12"/><path d="M272.5688,22.5511 C265.4068,26.7281 254.4908,33.3281 247.2708,37.2101 C224.3858,35.7111 77.1596165,109.999229 3.26537045,110 C-9.02562955,128.498 17.4238,171.2811 37.4168,183.3081 C51.4398,192.9841 68.4678,190.3621 84.6238,189.7831 C133.2568,185.9861 180.6488,169.5801 223.4138,146.6421 C244.4018,134.3541 268.7578,121.0861 283.9598,102.6251 C291.8508,98.4221 303.2958,91.4131 311.0718,86.9131 L272.5688,22.5511 Z" id="Fill-4" fill="#2DB386"/><path d="M248.2848,38.3662 L284.9948,103.7672 C292.6258,99.6472 304.2718,92.6232 311.8438,88.2022 L273.3408,23.8392 C266.2458,27.9772 255.4328,34.5132 248.2848,38.3662" id="Fill-6" fill="#25996F"/></g><g id="Body" transform="translate(238.000000, 149.000000)"><path d="M278.106708,192.298647 C205.538716,197.378937 1.44114734,174.139406 3.75109927,161.20524 C8.33256874,135.552114 16.2642525,95.4663653 27.5461506,40.9479927 C27.5461506,18.3333745 47.7038086,-0.000770909091 72.5687342,-0.000770909091 L211.895593,-0.000770909091 C236.760519,-0.000770909091 256.917117,18.3333745 256.917117,40.9479927 C266.870755,93.2351517 274.102974,132.007446 278.613775,157.264876 C280.224412,166.283349 280.055389,177.961273 278.106708,192.298647 Z" id="Sweat-Body" fill="#34D1A1"/><path d="M0.000317843866,195.189749 C100.650875,230.844295 209.77727,197.117022 284.463162,195.189749 L279.673255,156.30124 C206.510894,158.917513 101.819481,190.863022 3.67459294,157.11744 L0.000317843866,195.189749 Z" id="Bottom" fill="#2DB386"/></g><g id="Left-Arm" transform="translate(198.000000, 149.000000)"><path d="M177.57385,226.420558 C127.98385,225.145558 79.4318501,188.409558 82.5628501,136.018558 C83.2928501,111.918558 92.0658501,89.6515577 105.28885,68.4875577 C114.12185,54.5405577 109.60685,34.5275577 96.9808501,24.0665577 C46.3648501,-12.3554423 16.7258501,98.4425577 16.5818501,134.350558 C15.8278501,159.619558 21.4828501,185.784558 33.4108501,208.300558 C57.1378501,254.397558 105.65185,283.332558 155.53085,290.349558 C166.92685,292.717558 249.01785,299.185558 220.59485,273.841558 C224.16585,272.100558 226.22185,268.304558 225.55085,264.450558 C225.01485,261.358558 222.93385,258.909558 220.28985,257.720558 C226.42185,254.768558 226.17385,245.142558 220.42485,241.988558 C224.68585,241.300558 229.57085,240.349558 233.78185,239.366558 C239.95085,238.848558 246.10185,234.623558 243.95985,227.502558 C239.06385,213.816558 222.69485,225.480558 212.70185,224.966558 C210.42685,211.465558 194.19585,219.400558 185.15085,217.737558 C181.31785,217.626558 177.93685,221.497558 177.57385,226.420558" id="SKIN" fill="#ffdbb4"/><path d="M154.62905,296.283458 C142.35005,294.401458 130.03805,291.488458 117.98605,287.128458 C86.1400501,287.753458 54.5780501,263.995458 33.8180501,239.276458 C0.493050112,198.821458 -8.05194989,140.559458 7.51605011,91.1434577 C14.6090501,66.4494577 29.7740501,39.3344577 45.5890501,20.9284577 C61.4040501,2.52245772 88.7834603,-1.76547303e-07 123.93805,-1.76547303e-07 C159.09264,-1.76547303e-07 127.35205,40.9564577 123.93805,57.5644577 C119.74605,70.8244577 111.46705,82.9254577 107.60705,96.2894577 C89.2090501,148.567458 101.99605,182.184458 143.22005,216.501458 C150.37905,219.114458 158.02605,220.924458 165.90005,222.135458 L154.62905,296.283458 Z" id="Fill-12" fill="#34D1A1"/><path d="M118.88245,285.857058 L143.95545,215.172058 C150.94645,217.711058 158.42845,219.460058 166.12545,220.651058 L154.85545,294.798058 C142.79845,292.943058 130.71145,290.109058 118.88245,285.857058" id="Fill-15" fill="#2DB386"/></g></g></g><g id="Head" transform="translate(338.000000, -61.000000) scale(1 1)"><g id="Head/Short Hair" stroke="none" stroke-width="1" fill="none" fill-rule="evenodd"><g id="Head" transform="translate(22.000000, 72.000000)"><g id="head" transform="translate(0.000000, 0.000100)" fill="#ffdbb4"><path d="M13,62 L58,62 L58,113.633 C58,127.538 47.926,138.81 35.5,138.81 C23.074,138.81 13,127.538 13,113.633 L13,62 Z" id="SKIN"/><path d="M60.0525,94 L55.0655,94 C31.8335,94 13.0005,75.167 13.0005,51.935 L13.0005,32.203 C13.0005,14.418 27.4175,0 45.2035,0 L50.7965,0 C68.5825,0 83.0005,14.418 83.0005,32.203 L83.0005,71.052 C83.0005,83.726 72.7265,94 60.0525,94" id="SKIN"/><path d="M25,58.5 C25,65.403 19.404,71 12.5,71 C5.596,71 0,65.403 0,58.5 C0,51.597 5.596,46 12.5,46 C19.404,46 25,51.597 25,58.5" id="SKIN"/></g><path d="M10.067,53.1685 C10.9718309,53.1685 12.2239875,53.3771928 13.5088204,54.0196092 C15.6553998,55.0928989 17.0130325,57.055328 17.10411,59.9021045 L17.109,60.2105 L14.109,60.2105 C14.109,58.3751144 13.4076866,57.3231443 12.1671796,56.7028908 C11.7065142,56.4725581 11.1976823,56.3199085 10.686339,56.2346846 C10.4347302,56.1927498 10.2385731,56.1747448 10.1250097,56.169908 L10.067,56.1685 L10.067,53.1685 Z" id="ear-line" fill="#000"/><path d="M34.7507501,96.3317762 C25.4557924,93.0436693 20.8185822,84.7387742 18.9822222,73.5681961 C26.2532122,85.6702724 39.4406226,93.8133264 54.5439426,93.9968331 L55.0655,94 L58,94 C50.0632106,98.2298391 42.3134606,99.0070978 34.7507501,96.3317762 Z" id="SHADOW" fill="#000" opacity=".12"/><path d="M50.8086245,0 C64.717064,0 76.5752072,8.73752555 81.1464316,20.9990758 L25.3655574,20.9997374 L17.109,46.0001 L12.8420404,46 L12.8420404,32.2025974 C12.8420404,14.4178197 27.3241084,0 45.1903817,0 L50.8086245,0 Z" id="Combined-Shape" fill="#000"/></g></g></g><g id="Expression" transform="translate(385.000000, 34.000000) scale(1 1)" fill="#000"><defs><filter id="expressionwink-filter-1"><feColorMatrix in="SourceGraphic" values="0 0 0 0 0.000000 0 0 0 0 0.000000 0 0 0 0 0.000000 0 0 0 1.000000 0"/></filter></defs><g id="Expression/Wink" stroke="none" stroke-width="1" fill="none" fill-rule="evenodd"><g filter="url(#expressionwink-filter-1)" id="Group-17"><g transform="translate(9.000000, 3.000000)"><path d="M37.6862,19.0627 C37.6862,17.4057 36.3432,16.0627 34.6862,16.0627 C33.0292,16.0627 31.6862,17.4057 31.6862,19.0627 C31.6862,20.7197 33.0292,22.0627 34.6862,22.0627 C36.3432,22.0627 37.6862,20.7197 37.6862,19.0627" id="Fill-1" fill="#000"/><path d="M13.0473,38.6487 C13.0473,42.3229625 16.7893817,45.7208933 20.8069435,45.8527329 L21.0483,45.8567 L21.0483,48.8567 C15.4506295,48.8567 10.2215019,44.2907163 10.0515594,38.9179911 L10.0473,38.6487 L13.0473,38.6487 Z" id="Stroke-5" fill="#000" fill-rule="nonzero"/><path d="M2.57564697,9.21147847 C6.2616177,8.06796663 10.3535814,7.81561498 14.5680667,8.99954871 L15.0368326,9.13703524 L14.1597674,12.0059648 C10.4145271,10.8610011 6.75307649,11.056551 3.46455381,12.0767611 C2.87639473,12.2592278 2.35407493,12.4536573 1.90571976,12.6462124 L1.67798076,12.7466018 L1.40843093,12.875962 L0.000169065366,10.227038 C0.505632486,9.95831572 1.38329457,9.5813862 2.57564697,9.21147847 Z" id="Stroke-7" fill="#000" fill-rule="nonzero"/><path d="M27.4327673,1.61074391 C31.7294847,0.539609121 35.85137,0.927023851 39.5454285,2.22070874 C40.6627133,2.61198958 41.5287224,3.00892816 42.1054952,3.32415386 L42.3911858,3.48746626 L40.8460142,6.05893374 L40.6830708,5.96779273 C40.5848397,5.91521377 40.4526078,5.84736079 40.2880352,5.76752086 C39.7889686,5.52540617 39.2078998,5.28115198 38.5538553,5.05210108 C35.5067759,3.98499275 32.1271224,3.6348104 28.6169983,4.41363387 L28.1584327,4.52165609 L27.4327673,1.61074391 Z" id="Stroke-9" fill="#000" fill-rule="nonzero"/><path d="M2.29348496,21.505614 C4.78316311,15.2814186 15.5765131,15.2055138 17.1047395,21.5313094 L17.157071,21.7685258 L14.215329,22.3568742 C13.5401751,18.9811049 6.8011145,18.9218809 5.16179365,22.4285178 L5.07891504,22.619786 L2.29348496,21.505614 Z" id="Stroke-15" fill="#000" fill-rule="nonzero"/></g></g><polygon id="Stroke-5" fill="#000" fill-rule="nonzero" points="33.1977829 19.396766 36.1476171 18.850434 40.4350211 41.9996 30.5607 41.9996 30.5607 38.9996 36.828 38.999"/></g></g><g id="Accessories" transform="translate(372.000000, 56.000000) scale(1 1)" fill="#000"><g id="Accessories/None" stroke="none" stroke-width="1" fill="none" fill-rule="evenodd" fill-opacity="0"/></g><g id="Glasses" transform="translate(364.000000, 42.000000) scale(1 1)" fill="#000"><g id="Glasses/Thick" stroke="none" stroke-width="1" fill="none" fill-rule="evenodd"><path d="M43.5452664,3.00012344 C49.2894512,3.02462661 55.021427,4.35163303 57.0857956,6.97405047 C58.0938547,8.25461237 58.6772219,10.0147386 58.9068842,11.9996703 L62.1143968,11.9996703 C62.3440591,10.0147386 62.9274264,8.25461237 63.9354854,6.97405047 C65.9529365,4.41123343 71.4731799,3.0856142 77.0844275,3.00401411 L77.4760146,3.00012344 L77.8967218,3.00012344 L80.8146938,3.0378718 C91.0822714,3.2070925 94.9796428,3.73089949 95.893837,5.69362755 C96.9046181,7.86372269 97.4724619,10.8486323 96.5699433,12.3975628 L96.4345265,12.6077971 C96.2607766,12.8804731 95.8187885,13.7026763 95.3317143,14.6775352 L95.2267324,14.8886255 L94.7966033,15.7746065 C94.1772527,17.0747485 93.6217104,18.3482986 93.2115536,19.4320065 L93.1438986,19.6872046 L93.1438986,19.6872046 C92.2530855,22.9637972 90.4857872,26.1972123 88.6985341,28.3365739 C85.3492115,32.34575 71.1131799,32.6082999 67.0329763,28.4576053 C64.4038322,25.7830393 62.5077693,20.7417692 62.087653,15.9998009 L58.933628,15.9998009 C58.5135117,20.7417692 56.6174488,25.7830393 53.9883048,28.4576053 C49.9081011,32.6082999 35.6720695,32.34575 32.3227469,28.3365739 C30.5354938,26.1972123 28.7681955,22.9637972 27.8773824,19.6872046 L27.8097274,19.4320065 C27.4233065,18.4110132 26.9078403,17.2215143 26.331547,16.0000268 L0,16 L0,12 L24.2628445,12.0004643 C23.6422666,10.3774347 24.1973223,7.69055104 25.127444,5.69362755 C26.0970439,3.61194627 30.4223758,3.14888604 42.1443686,3.0107703 L43.1245592,3.00012344 L43.5452664,3.00012344 Z M32.8542992,9.57832836 C31.1333273,11.9393787 30.7976239,14.9040914 31.4059083,17.8533932 L31.6334165,18.4663592 L31.5539327,18.4983688 C32.1949786,21.035914 33.5135424,23.5284501 35.226974,25.5794466 C37.0849603,27.8034767 48.7860935,28.0192764 51.3034638,25.4584151 C54.5060095,22.2005411 56.3804317,12.9591713 54.2303847,9.80770023 L54.1067801,9.63896051 L53.9809214,9.49277664 C51.015179,6.32545056 35.1904568,6.373287 32.8542992,9.57832836 Z M88.1669819,9.57832836 C85.8662205,6.42184823 70.4825425,6.32762495 67.1839305,9.35102137 L67.0403596,9.49277664 L66.9145009,9.63896051 L66.7908963,9.80770023 C64.6408493,12.9591713 66.5152715,22.2005411 69.7178172,25.4584151 C72.2351876,28.0192764 83.9363207,27.8034767 85.794307,25.5794466 C87.4069485,23.6490969 88.669811,21.3276257 89.347247,18.9456229 L89.4673483,18.4983688 L89.3878645,18.4663592 L89.6153727,17.8533932 L89.6153727,17.8533932 C90.2236571,14.9040914 89.8879537,11.9393787 88.1669819,9.57832836 Z" id="Shape" fill="#000"/></g></g></g></g><g id="Foreground" transform="translate(31.000000, 401.870968)"><path d="M562.638852,254.129032 L616.361148,254.129032 C625.276335,254.129032 628.509198,255.057288 631.768457,256.800359 C635.027716,258.54343 637.585602,261.101316 639.328673,264.360575 C641.071744,267.619834 642,270.852697 642,279.767884 L642,372.49018 C642,381.405368 641.071744,384.63823 639.328673,387.897489 C637.585602,391.156749 635.027716,393.714634 631.768457,395.457705 C628.509198,397.200776 625.276335,398.129032 616.361148,398.129032 L562.638852,398.129032 C553.723665,398.129032 550.490802,397.200776 547.231543,395.457705 C543.972284,393.714634 541.414398,391.156749 539.671327,387.897489 C537.928256,384.63823 537,381.405368 537,372.49018 L537,279.767884 C537,270.852697 537.928256,267.619834 539.671327,264.360575 C541.414398,261.101316 543.972284,258.54343 547.231543,256.800359 C550.490802,255.057288 553.723665,254.129032 562.638852,254.129032 Z" id="Rectangle-2-Copy-7" fill="#B8DBE9" opacity=".906"/><path d="M562.638852,420.129032 L616.361148,420.129032 C625.276335,420.129032 628.509198,421.057288 631.768457,422.800359 C635.027716,424.54343 637.585602,427.101316 639.328673,430.360575 C641.071744,433.619834 642,436.852697 642,445.767884 L642,538.49018 C642,547.405368 641.071744,550.63823 639.328673,553.897489 C637.585602,557.156749 635.027716,559.714634 631.768457,561.457705 C628.509198,563.200776 625.276335,564.129032 616.361148,564.129032 L562.638852,564.129032 C553.723665,564.129032 550.490802,563.200776 547.231543,561.457705 C543.972284,559.714634 541.414398,557.156749 539.671327,553.897489 C537.928256,550.63823 537,547.405368 537,538.49018 L537,445.767884 C537,436.852697 537.928256,433.619834 539.671327,430.360575 C541.414398,427.101316 543.972284,424.54343 547.231543,422.800359 C550.490802,421.057288 553.723665,420.129032 562.638852,420.129032 Z" id="Rectangle-2-Copy-10" fill="#B8DBE9" opacity=".866"/><path d="M684.638852,376.129032 L738.361148,376.129032 C747.276335,376.129032 750.509198,377.057288 753.768457,378.800359 C757.027716,380.54343 759.585602,383.101316 761.328673,386.360575 C763.071744,389.619834 764,392.852697 764,401.767884 L764,461.49018 C764,470.405368 763.071744,473.63823 761.328673,476.897489 C759.585602,480.156749 757.027716,482.714634 753.768457,484.457705 C750.509198,486.200776 747.276335,487.129032 738.361148,487.129032 L684.638852,487.129032 C675.723665,487.129032 672.490802,486.200776 669.231543,484.457705 C665.972284,482.714634 663.414398,480.156749 661.671327,476.897489 C659.928256,473.63823 659,470.405368 659,461.49018 L659,401.767884 C659,392.852697 659.928256,389.619834 661.671327,386.360575 C663.414398,383.101316 665.972284,380.54343 669.231543,378.800359 C672.490802,377.057288 675.723665,376.129032 684.638852,376.129032 Z" id="Rectangle-2-Copy-11" fill="#BAEBFF"/><path d="M343.460317,233.032258 C346.5198,233.032258 349,235.512458 349,238.571941 L349,238.58935 C349,241.648832 346.5198,244.129032 343.460317,244.129032 C340.400835,244.129032 337.920635,241.648832 337.920635,238.58935 L337.920635,238.571941 C337.920635,235.512458 340.400835,233.032258 343.460317,233.032258 Z" id="Rectangle" fill="#B8DBE9"/><path d="M321.310292,199.741935 L343.451613,199.741935 C346.515902,199.741935 349,202.226033 349,205.290323 C349,208.354612 346.515902,210.83871 343.451613,210.83871 L321.310292,210.83871 C318.246002,210.83871 315.761905,208.354612 315.761905,205.290323 C315.761905,202.226033 318.246002,199.741935 321.310292,199.741935 Z" id="Rectangle" fill="#B8DBE9"/><path d="M5.5483871,99.8709677 L193.880184,99.8709677 C196.944474,99.8709677 199.428571,102.355065 199.428571,105.419355 C199.428571,108.483644 196.944474,110.967742 193.880184,110.967742 L5.5483871,110.967742 C2.48409752,110.967742 5.40387746e-13,108.483644 5.40012479e-13,105.419355 C5.39637212e-13,102.355065 2.48409752,99.8709677 5.5483871,99.8709677 Z" id="Rectangle" fill="#B8DBE9" opacity=".89"/><path d="M5.5483871,66.5806452 L72.0071685,66.5806452 C75.071458,66.5806452 77.5555556,69.0647427 77.5555556,72.1290323 C77.5555556,75.1933218 75.071458,77.6774194 72.0071685,77.6774194 L5.5483871,77.6774194 C2.48409752,77.6774194 -4.04634092e-13,75.1933218 -4.05009359e-13,72.1290323 C-4.05384627e-13,69.0647427 2.48409752,66.5806452 5.5483871,66.5806452 Z" id="Rectangle" fill="#B8DBE9"/><path d="M5.5483871,33.2903226 L38.7690732,33.2903226 C41.8333628,33.2903226 44.3174603,35.7744201 44.3174603,38.8387097 C44.3174603,41.9029993 41.8333628,44.3870968 38.7690732,44.3870968 L5.5483871,44.3870968 C2.48409752,44.3870968 1.32553747e-12,41.9029993 1.3251622e-12,38.8387097 C1.32478693e-12,35.7744201 2.48409752,33.2903226 5.5483871,33.2903226 Z" id="Rectangle" fill="#B8DBE9"/><path d="M5.5483871,3.99680289e-13 L160.642089,3.99680289e-13 C163.706379,3.73157243e-13 166.190476,2.48409752 166.190476,5.5483871 C166.190476,8.61267668 163.706379,11.0967742 160.642089,11.0967742 L5.5483871,11.0967742 C2.48409752,11.0967742 -1.39228849e-12,8.61267668 -1.39266376e-12,5.5483871 C-1.39303903e-12,2.48409752 2.48409752,4.0024319e-13 5.5483871,3.99680289e-13 Z" id="Rectangle" fill="#8AB8F1" opacity=".89"/><rect id="Rectangle-2" fill="#BAEBFF" opacity=".908" x="188" y="335.129" width="161" height="56" rx="28"/></g></g></svg>