<?xml version="1.0" encoding="utf-8"?>
<!-- Generator: Adobe Illustrator 27.0.0, SVG Export Plug-In . SVG Version: 6.00 Build 0)  -->
<svg version="1.1" id="Layer_1" xmlns="http://www.w3.org/2000/svg" xmlns:xlink="http://www.w3.org/1999/xlink" x="0px" y="0px"
	 viewBox="0 0 1213.9 1149.6" style="enable-background:new 0 0 1213.9 1149.6;" xml:space="preserve">
<style type="text/css">
	.st0{fill-rule:evenodd;clip-rule:evenodd;fill:#BAEBFF;}
	.st1{fill-rule:evenodd;clip-rule:evenodd;fill:#B8DBE9;}
	.st2{fill-rule:evenodd;clip-rule:evenodd;fill:#8AB8F1;}
	.st3{opacity:0.3;fill-rule:evenodd;clip-rule:evenodd;fill:#B8DBE9;enable-background:new    ;}
	.st4{fill:#70A2DE;}
	.st5{fill-rule:evenodd;clip-rule:evenodd;fill:#DCB284;}
	.st6{fill-rule:evenodd;clip-rule:evenodd;fill:#051026;}
	.st7{fill-rule:evenodd;clip-rule:evenodd;fill:#FFFFFF;}
	.st8{fill-rule:evenodd;clip-rule:evenodd;fill:#0A1B45;}
	.st9{fill-rule:evenodd;clip-rule:evenodd;fill:#FFDBB4;}
	.st10{opacity:0.12;fill-rule:evenodd;clip-rule:evenodd;enable-background:new    ;}
	.st11{fill-rule:evenodd;clip-rule:evenodd;fill:#2DB386;}
	.st12{fill-rule:evenodd;clip-rule:evenodd;fill:#25996F;}
	.st13{fill-rule:evenodd;clip-rule:evenodd;fill:#34D1A1;}
	.st14{fill-rule:evenodd;clip-rule:evenodd;}
	.st15{opacity:0.906;fill-rule:evenodd;clip-rule:evenodd;fill:#B8DBE9;enable-background:new    ;}
	.st16{opacity:0.866;fill-rule:evenodd;clip-rule:evenodd;fill:#B8DBE9;enable-background:new    ;}
	.st17{opacity:0.89;fill-rule:evenodd;clip-rule:evenodd;fill:#B8DBE9;enable-background:new    ;}
	.st18{opacity:0.89;fill-rule:evenodd;clip-rule:evenodd;fill:#8AB8F1;enable-background:new    ;}
	.st19{opacity:0.908;fill-rule:evenodd;clip-rule:evenodd;fill:#BAEBFF;enable-background:new    ;}
	.st20{fill:none;}
	.st21{font-family:'Roboto-Medium';}
	.st22{font-size:48px;}
</style>
<g id="Master_x2F_Comps_x2F_User_Interface">
	<g id="UI" transform="translate(31.000000, 36.000000)">
		<g id="Cards" transform="translate(414.000000, 209.000000)">
			<g id="Group">
				<g id="Group-7">
					<path id="Rectangle-2" class="st0" d="M224.5,137.6h53.7c8.9,0,12.1,0.9,15.4,2.7c3.3,1.7,5.8,4.3,7.6,7.6s2.7,6.5,2.7,15.4
						v92.7c0,8.9-0.9,12.1-2.7,15.4s-4.3,5.8-7.6,7.6c-3.3,1.7-6.5,2.7-15.4,2.7h-53.7c-8.9,0-12.1-0.9-15.4-2.7
						c-3.3-1.7-5.8-4.3-7.6-7.6s-2.7-6.5-2.7-15.4v-92.7c0-8.9,0.9-12.1,2.7-15.4s4.3-5.8,7.6-7.6
						C212.3,138.5,215.6,137.6,224.5,137.6z"/>
					<path id="Rectangle-2-Copy-9" class="st1" d="M224.5,636.6h53.7c8.9,0,12.1,0.9,15.4,2.7c3.3,1.7,5.8,4.3,7.6,7.6
						c1.7,3.3,2.7,6.5,2.7,15.4v137.7c0,8.9-0.9,12.1-2.7,15.4c-1.7,3.3-4.3,5.8-7.6,7.6c-3.3,1.7-6.5,2.7-15.4,2.7h-53.7
						c-8.9,0-12.1-0.9-15.4-2.7c-3.3-1.7-5.8-4.3-7.6-7.6c-1.7-3.3-2.7-6.5-2.7-15.4V662.2c0-8.9,0.9-12.1,2.7-15.4
						c1.7-3.3,4.3-5.8,7.6-7.6C212.3,637.5,215.6,636.6,224.5,636.6z"/>
					<path id="Rectangle-2-Copy-8" class="st1" d="M468.5,459.6h53.7c8.9,0,12.1,0.9,15.4,2.7c3.3,1.7,5.8,4.3,7.6,7.6
						c1.7,3.3,2.7,6.5,2.7,15.4v92.7c0,8.9-0.9,12.1-2.7,15.4c-1.7,3.3-4.3,5.8-7.6,7.6c-3.3,1.7-6.5,2.7-15.4,2.7h-53.7
						c-8.9,0-12.1-0.9-15.4-2.7c-3.3-1.7-5.8-4.3-7.6-7.6s-2.7-6.5-2.7-15.4v-92.7c0-8.9,0.9-12.1,2.7-15.4c1.7-3.3,4.3-5.8,7.6-7.6
						C456.3,460.5,459.6,459.6,468.5,459.6z"/>
					<path id="Rectangle-2-Copy" class="st2" d="M346.5,137.6h53.7c8.9,0,12.1,0.9,15.4,2.7c3.3,1.7,5.8,4.3,7.6,7.6
						s2.7,6.5,2.7,15.4v159.7c0,8.9-0.9,12.1-2.7,15.4s-4.3,5.8-7.6,7.6c-3.3,1.7-6.5,2.7-15.4,2.7h-53.7c-8.9,0-12.1-0.9-15.4-2.7
						s-5.8-4.3-7.6-7.6s-2.7-6.5-2.7-15.4V163.2c0-8.9,0.9-12.1,2.7-15.4s4.3-5.8,7.6-7.6C334.3,138.5,337.6,137.6,346.5,137.6z"/>
					<path id="Rectangle-2-Copy-4" class="st1" d="M468.5,270.6h53.7c8.9,0,12.1,0.9,15.4,2.7c3.3,1.7,5.8,4.3,7.6,7.6
						c1.7,3.3,2.7,6.5,2.7,15.4v114.7c0,8.9-0.9,12.1-2.7,15.4c-1.7,3.3-4.3,5.8-7.6,7.6c-3.3,1.7-6.5,2.7-15.4,2.7h-53.7
						c-8.9,0-12.1-0.9-15.4-2.7c-3.3-1.7-5.8-4.3-7.6-7.6c-1.7-3.3-2.7-6.5-2.7-15.4V296.2c0-8.9,0.9-12.1,2.7-15.4
						c1.7-3.3,4.3-5.8,7.6-7.6C456.3,271.5,459.6,270.6,468.5,270.6z"/>
					<path id="Rectangle-2-Copy-5" class="st1" d="M346.5,370.6h53.7c8.9,0,12.1,0.9,15.4,2.7c3.3,1.7,5.8,4.3,7.6,7.6
						c1.7,3.3,2.7,6.5,2.7,15.4v59.7c0,8.9-0.9,12.1-2.7,15.4c-1.7,3.3-4.3,5.8-7.6,7.6c-3.3,1.7-6.5,2.7-15.4,2.7h-53.7
						c-8.9,0-12.1-0.9-15.4-2.7s-5.8-4.3-7.6-7.6c-1.7-3.3-2.7-6.5-2.7-15.4v-59.7c0-8.9,0.9-12.1,2.7-15.4c1.7-3.3,4.3-5.8,7.6-7.6
						S337.6,370.6,346.5,370.6z"/>
					<path id="Rectangle-2-Copy-2" class="st1" d="M468.5,137.6h53.7c8.9,0,12.1,0.9,15.4,2.7c3.3,1.7,5.8,4.3,7.6,7.6
						c1.7,3.3,2.7,6.5,2.7,15.4v59.7c0,8.9-0.9,12.1-2.7,15.4c-1.7,3.3-4.3,5.8-7.6,7.6c-3.3,1.7-6.5,2.7-15.4,2.7h-53.7
						c-8.9,0-12.1-0.9-15.4-2.7c-3.3-1.7-5.8-4.3-7.6-7.6s-2.7-6.5-2.7-15.4v-59.7c0-8.9,0.9-12.1,2.7-15.4s4.3-5.8,7.6-7.6
						C456.3,138.5,459.6,137.6,468.5,137.6z"/>
					<path id="Rectangle-2-Copy-6" class="st2" d="M224.5,437.6h53.7c8.9,0,12.1,0.9,15.4,2.7c3.3,1.7,5.8,4.3,7.6,7.6
						c1.7,3.3,2.7,6.5,2.7,15.4v125.7c0,8.9-0.9,12.1-2.7,15.4s-4.3,5.8-7.6,7.6c-3.3,1.7-6.5,2.7-15.4,2.7h-53.7
						c-8.9,0-12.1-0.9-15.4-2.7c-3.3-1.7-5.8-4.3-7.6-7.6s-2.7-6.5-2.7-15.4V463.2c0-8.9,0.9-12.1,2.7-15.4c1.7-3.3,4.3-5.8,7.6-7.6
						C212.3,438.5,215.6,437.6,224.5,437.6z"/>
					<path id="Rectangle-2-Copy-3" class="st1" d="M224.5,303.6h53.7c8.9,0,12.1,0.9,15.4,2.7c3.3,1.7,5.8,4.3,7.6,7.6
						c1.7,3.3,2.7,6.5,2.7,15.4v59.7c0,8.9-0.9,12.1-2.7,15.4c-1.7,3.3-4.3,5.8-7.6,7.6c-3.3,1.7-6.5,2.7-15.4,2.7h-53.7
						c-8.9,0-12.1-0.9-15.4-2.7c-3.3-1.7-5.8-4.3-7.6-7.6c-1.7-3.3-2.7-6.5-2.7-15.4v-59.7c0-8.9,0.9-12.1,2.7-15.4
						c1.7-3.3,4.3-5.8,7.6-7.6C212.3,304.5,215.6,303.6,224.5,303.6z"/>
					<path id="Rectangle-2-Copy-12" class="st2" d="M468.5,758.6h53.7c8.9,0,12.1,0.9,15.4,2.7c3.3,1.7,5.8,4.3,7.6,7.6
						c1.7,3.3,2.7,6.5,2.7,15.4v59.7c0,8.9-0.9,12.1-2.7,15.4c-1.7,3.3-4.3,5.8-7.6,7.6c-3.3,1.7-6.5,2.7-15.4,2.7h-53.7
						c-8.9,0-12.1-0.9-15.4-2.7c-3.3-1.7-5.8-4.3-7.6-7.6c-1.7-3.3-2.7-6.5-2.7-15.4v-59.7c0-8.9,0.9-12.1,2.7-15.4
						c1.7-3.3,4.3-5.8,7.6-7.6C456.3,759.5,459.6,758.6,468.5,758.6z"/>
					<path id="Rectangle" class="st1" d="M203.8,92.6h33c3.3,0,6,2.7,6,6s-2.7,6-6,6h-33c-3.3,0-6-2.7-6-6S200.5,92.6,203.8,92.6z"
						/>
					<path id="Rectangle-Copy" class="st3" d="M270.8,92.6h33c3.3,0,6,2.7,6,6s-2.7,6-6,6h-33c-3.3,0-6-2.7-6-6
						S267.5,92.6,270.8,92.6z"/>
					<path id="Rectangle-Copy-2" class="st3" d="M336.8,92.6h33c3.3,0,6,2.7,6,6s-2.7,6-6,6h-33c-3.3,0-6-2.7-6-6
						S333.5,92.6,336.8,92.6z"/>
					<path id="Rectangle-Copy-3" class="st3" d="M403.8,92.6h33c3.3,0,6,2.7,6,6s-2.7,6-6,6h-33c-3.3,0-6-2.7-6-6
						S400.5,92.6,403.8,92.6z"/>
					<path id="Rectangle-Copy-4" class="st3" d="M469.8,92.6h33c3.3,0,6,2.7,6,6s-2.7,6-6,6h-33c-3.3,0-6-2.7-6-6
						S466.5,92.6,469.8,92.6z"/>
				</g>
			</g>
		</g>
		<g id="Profile">
			<g id="Group-6">
				<path id="Rectangle_00000041288856730002529470000003462285482681563280_" class="st1" d="M367.8,92.6h11c27.6,0,50,22.4,50,50
					v11c0,27.6-22.4,50-50,50h-11c-27.6,0-50-22.4-50-50v-11C317.8,115,340.2,92.6,367.8,92.6z"/>
				<path id="Shape" class="st4" d="M369.4,134.8c-1.7,0-3,1.3-3,3v1.5h-4.5c-1.7,0-3,1.3-3,3v16.3c0,1.6,1.3,3,3,3h24
					c1.7,0,3-1.3,3-3v-16.3c0-1.6-1.3-3-3-3h-4.5v-1.5c0-1.6-1.3-3-3-3H369.4z M374.4,142.5c4.3,0,7.8,3.2,7.8,7.2s-3.5,7.2-7.8,7.2
					c-4.3,0-7.8-3.2-7.8-7.2S370.2,142.5,374.4,142.5z M383.9,142.5c0.9,0,1.7,0.7,1.7,1.7s-0.7,1.7-1.7,1.7c-0.9,0-1.7-0.7-1.7-1.7
					S383,142.5,383.9,142.5z M374.4,144.7c-2.5,0-4.4,2-4.4,4.4c0,2.5,2,4.4,4.4,4.4s4.4-2,4.4-4.4
					C378.9,146.7,376.9,144.7,374.4,144.7z"/>
				<path id="Rectangle_00000074431513604448539810000014318181003069300651_" class="st2" d="M290.3,236.6h33.2
					c3,0,5.5,2.5,5.5,5.5s-2.5,5.5-5.5,5.5h-33.2c-3,0-5.5-2.5-5.5-5.5S287.3,236.6,290.3,236.6z"/>
				<path id="Rectangle-Copy_00000064351516764487959380000017584212586274831258_" class="st3" d="M356.7,236.6H390
					c3,0,5.5,2.5,5.5,5.5s-2.5,5.5-5.5,5.5h-33.2c-3,0-5.5-2.5-5.5-5.5S353.7,236.6,356.7,236.6z"/>
				<path id="Rectangle-Copy-2_00000039850111684701162170000016846046254329236891_" class="st3" d="M423.1,236.6h33.2
					c3,0,5.5,2.5,5.5,5.5s-2.5,5.5-5.5,5.5h-33.2c-3,0-5.5-2.5-5.5-5.5S420,236.6,423.1,236.6z"/>
				<path id="Rectangle_00000010989930958220472040000005842221717334302140_" class="st1" d="M519.1,358.6h22.1
					c3.1,0,5.5,2.5,5.5,5.5c0,3.1-2.5,5.5-5.5,5.5h-22.1c-3.1,0-5.5-2.5-5.5-5.5C513.6,361.1,516.1,358.6,519.1,358.6z"/>
				<path id="Rectangle_00000034807218227042397700000006093587529014954382_" class="st1" d="M508.1,391.9h33.2
					c3.1,0,5.5,2.5,5.5,5.5c0,3.1-2.5,5.5-5.5,5.5h-33.2c-3.1,0-5.5-2.5-5.5-5.5C502.5,394.3,505,391.9,508.1,391.9z"/>
				<path id="Rectangle_00000101093357027263890980000001622723820216048811_" class="st1" d="M530.2,425.2h11.1
					c3.1,0,5.5,2.5,5.5,5.5s-2.5,5.5-5.5,5.5h-11.1c-3.1,0-5.5-2.5-5.5-5.5S527.2,425.2,530.2,425.2z"/>
				<path id="Rectangle_00000013175550249446527280000005050898632816023938_" class="st1" d="M541.3,458.4c3.1,0,5.5,2.5,5.5,5.5v0
					c0,3.1-2.5,5.5-5.5,5.5c-3.1,0-5.5-2.5-5.5-5.5v0C535.7,460.9,538.2,458.4,541.3,458.4z"/>
				<path id="Rectangle_00000086673404085072194440000016964531752593342380_" class="st1" d="M519.1,491.7h22.1
					c3.1,0,5.5,2.5,5.5,5.5c0,3.1-2.5,5.5-5.5,5.5h-22.1c-3.1,0-5.5-2.5-5.5-5.5C513.6,494.2,516.1,491.7,519.1,491.7z"/>
				<path id="Rectangle_00000149348203390162618930000008665202022592811439_" class="st1" d="M530.2,525h11.1
					c3.1,0,5.5,2.5,5.5,5.5c0,3.1-2.5,5.5-5.5,5.5h-11.1c-3.1,0-5.5-2.5-5.5-5.5C524.7,527.5,527.2,525,530.2,525z"/>
				<path id="Rectangle_00000033344147656317611670000003837189748139772310_" class="st2" d="M541.3,558.3c3.1,0,5.5,2.5,5.5,5.5v0
					c0,3.1-2.5,5.5-5.5,5.5c-3.1,0-5.5-2.5-5.5-5.5v0C535.7,560.8,538.2,558.3,541.3,558.3z"/>
				<path id="Rectangle_00000056394884221369322520000003955225486118618513_" class="st1" d="M203.4,691.5h188.3
					c3.1,0,5.5,2.5,5.5,5.5c0,3.1-2.5,5.5-5.5,5.5H203.4c-3.1,0-5.5-2.5-5.5-5.5C197.8,694,200.3,691.5,203.4,691.5z"/>
				<path id="Rectangle_00000024002454959930632020000008123879997252384948_" class="st2" d="M530.2,591.6h11.1
					c3.1,0,5.5,2.5,5.5,5.5s-2.5,5.5-5.5,5.5h-11.1c-3.1,0-5.5-2.5-5.5-5.5S527.2,591.6,530.2,591.6z"/>
				<path id="Rectangle_00000031886800634025669440000015427051501197543851_" class="st1" d="M519.1,624.9h22.1
					c3.1,0,5.5,2.5,5.5,5.5s-2.5,5.5-5.5,5.5h-22.1c-3.1,0-5.5-2.5-5.5-5.5S516.1,624.9,519.1,624.9z"/>
				<path id="Rectangle_00000101798553629955164000000015792202613114947465_" class="st0" d="M203.4,658.2h77.5
					c3.1,0,5.5,2.5,5.5,5.5c0,3.1-2.5,5.5-5.5,5.5h-77.5c-3.1,0-5.5-2.5-5.5-5.5C197.8,660.7,200.3,658.2,203.4,658.2z"/>
				<path id="Rectangle_00000107547507810592085770000012740711044928716980_" class="st2" d="M203.4,624.9h44.3
					c3.1,0,5.5,2.5,5.5,5.5s-2.5,5.5-5.5,5.5h-44.3c-3.1,0-5.5-2.5-5.5-5.5S200.3,624.9,203.4,624.9z"/>
				<path id="Rectangle_00000038379223166883455920000010377199503358772908_" class="st1" d="M203.4,591.6h33.2
					c3.1,0,5.5,2.5,5.5,5.5s-2.5,5.5-5.5,5.5h-33.2c-3.1,0-5.5-2.5-5.5-5.5S200.3,591.6,203.4,591.6z"/>
				<path id="Rectangle_00000147213270598795478090000010381590439461759933_" class="st1" d="M203.4,425.2h77.5
					c3.1,0,5.5,2.5,5.5,5.5s-2.5,5.5-5.5,5.5h-77.5c-3.1,0-5.5-2.5-5.5-5.5S200.3,425.2,203.4,425.2z"/>
				<path id="Rectangle_00000127740364840255603430000017824524339428326277_" class="st0" d="M203.4,391.9h121.9
					c3.1,0,5.5,2.5,5.5,5.5c0,3.1-2.5,5.5-5.5,5.5H203.4c-3.1,0-5.5-2.5-5.5-5.5C197.8,394.3,200.3,391.9,203.4,391.9z"/>
				<path id="Rectangle_00000048462999868667569620000009635033349699276467_" class="st1" d="M203.4,358.6h44.3
					c3.1,0,5.5,2.5,5.5,5.5c0,3.1-2.5,5.5-5.5,5.5h-44.3c-3.1,0-5.5-2.5-5.5-5.5C197.8,361.1,200.3,358.6,203.4,358.6z"/>
				<path id="Rectangle-2_00000170265044371155414860000005530274573951736497_" class="st2" d="M219.8,292.6h305
					c12.2,0,22,9.8,22,22s-9.8,22-22,22h-305c-12.2,0-22-9.8-22-22S207.7,292.6,219.8,292.6z"/>
				<path id="Rectangle-2_00000112619242095429389250000000850787138454343864_" class="st1" d="M225.8,793.6h105
					c15.5,0,28,12.5,28,28l0,0c0,15.5-12.5,28-28,28h-105c-15.5,0-28-12.5-28-28l0,0C197.8,806.1,210.4,793.6,225.8,793.6z"/>
			</g>
			<g id="Group-3" transform="translate(0.000000, 266.000000)">
			</g>
		</g>
	</g>
	
		<g id="Master_x2F_Character_x2F_Standing_00000130646323199455604480000007733748674878348166_" transform="translate(0.000000, 180.000000) scale(1 1)">
		<g id="Master_x2F_Character_x2F_Standing">
			<g id="Legs" transform="translate(50.000000, 263.000000) scale(1 1)">
				<g id="Legs_x2F_Pants_Stand_Forward">
					<g id="Right-leg" transform="translate(345.827400, 6.000000)">
						<path id="SKIN-DARKER" class="st5" d="M215,631.4c-0.4-56.2-2.5-170.5-3-224.5c-0.1-9.7,7.8-17.7,17.6-17.8l43.7-0.4
							c9.8-0.1,17.9,7.7,18,17.4c0.7,53.4,2.7,169,3.4,224.6C294.7,634.1,215,634.9,215,631.4z"/>
						<path id="Fill-3" class="st6" d="M203.4,93.9c-3,0-5.4,3.3-5.4,7.4c0.8,96.7,3.1,429.3,3.8,520.3l107.2-1.1
							c-1.1-87.1-5.6-432.3-6.8-525.6C302.5,92.2,269.6,91.8,203.4,93.9z"/>
						<polygon id="Fill-5" class="st7" points="295,658.8 215.3,659.6 215,631.4 294.7,630.6 						"/>
						<path id="Fill-7" class="st8" d="M250.6,646c1.4,16.2-33,16.5-32,0.3c-2.4,0-3.8,0-3.8,0l0.4,36.2h115.6l-0.1-12.9
							c-0.1-9.3-31.5-11.3-36-24.1C277.7,645.8,263,645.9,250.6,646z"/>
					</g>
					<path id="Waist" class="st8" d="M440.8,92.6c0,55.2,46.6,100,104,100s104-44.8,104-100"/>
					<g id="Left-Leg" transform="translate(126.999300, 0.000000)">
						<path id="SKIN" class="st9" d="M211.1,654c-2.2-15.3-3-24.4-2.4-27.4c9.2-48.4,14.7-74.5,24.8-122.5l21.3-99.3
							c2.1-9.7,11.6-15.8,21.2-13.8l42.8,9.2c9.6,2.1,15.7,11.6,13.6,21.2c-14.2,66-28.5,132.1-41.9,198
							c-2.8,13.6-6.2,30.6-8.7,44.1"/>
						<path id="Fill-14" class="st8" d="M313.8,92.6c-2.2,3.5-3.5,6.7-3.9,9.7c-37.4,168.1-77.1,344.6-112.1,513.4L303,636.6
							c33.9-168.5,72.4-344.1,108.7-511.9c1.3-4,2.3-12-2.7-12.8L313.8,92.6z"/>
						<path id="Fill-17" class="st7" d="M281.2,671.6l-78.4-13.7c1.6-8.9,4.2-22.3,5.9-31.3l78.1,15.3
							C285.2,650.4,282.7,663.2,281.2,671.6"/>
						<path id="Fill-19" class="st8" d="M245.9,647.3c-1.7-0.3-3.5-0.7-5.2-1c-1.9,16.1-35.6,9.9-31.3-6c-2.4-0.5-3.7-0.7-3.7-0.7
							c-4.5,14-6.8,30.3-6.8,49h115.4c0.3-2.9,0.5-4.6,0.6-5.2c-2.7-11.2-29.9-16.1-31.2-28.9C278.8,653.6,262.4,650.4,245.9,647.3z
							"/>
						<path id="Fill-21" class="st7" d="M364.8,102l-2-0.4c-37.8,171.9-77.7,351-113,523.6l2,0.4C287.1,453,327,273.9,364.8,102"/>
					</g>
				</g>
			</g>
			<g id="Body_00000050630077304658855730000002066583873070465923_" transform="translate(17.000000, -31.000000) scale(1 1)">
				<g id="Body_x2F_Sweats_Grab_Up">
					<g id="Right-Arm" transform="translate(419.000000, 39.000000)">
						<path id="SKIN_00000013157707570366302010000011347208525751520169_" class="st9" d="M549.7,167.4
							c-15.2,5.8-34.9,6.1-49.5,13.7c-38.6,22.8-78.1,43.1-120.6,59.7c-16.9,6.8-36.2,12.9-53.7,17.9c-13.2,3.6-28.4,6.9-42,9.3
							c-12.5,2.4-27.2,5-37.3-4.8c-21.6-15.5-11.4-54.1,14.1-58.5c11.5-1.5,24.7-4,35.9-6.8c19.7-4.6,40.2-11.3,59.1-18.7
							c51.8-18.5,99.2-50.7,148.7-74.9c18.7-9.8,54.4-14.3,67.3-8.4c5.6,1,8.2,10.1,2.7,12.7c-1.8,0.8-8.8,2.4-17,4.9
							c3.9,1.8,6.9,4.3,9,6.6c4.8,5.2-1.4,14.3-8.9,12.1c-6.6-2-13.4-8.4-26.9-6.2c-14.9,13.2-3.7,29.7,13.3,25.3
							C553.6,150.2,557.8,164.3,549.7,167.4"/>
						<path id="SHADOW" class="st10" d="M549.7,167.4c-15.2,5.8-34.9,6.1-49.5,13.7c-38.6,22.8-78.1,43.1-120.6,59.7
							c-16.9,6.8-36.2,12.9-53.7,17.9c-13.2,3.6-28.4,6.9-42,9.3c-12.5,2.4-27.2,5-37.3-4.8c-21.6-15.5-11.4-54.1,14.1-58.5
							c11.5-1.5,24.7-4,35.9-6.8c19.7-4.6,40.2-11.3,59.1-18.7c51.8-18.5,99.2-50.7,148.7-74.9c18.7-9.8,54.4-14.3,67.3-8.4
							c5.6,1,8.2,10.1,2.7,12.7c-1.8,0.8-8.8,2.4-17,4.9c3.9,1.8,6.9,4.3,9,6.6c4.8,5.2-1.4,14.3-8.9,12.1c-6.6-2-13.4-8.4-26.9-6.2
							c-14.9,13.2-3.7,29.7,13.3,25.3C553.6,150.2,557.8,164.3,549.7,167.4"/>
						<path id="Fill-4" class="st11" d="M470.4,115.1c-7.2,4.2-18.1,10.8-25.3,14.7c-22.9-1.5-170.1,72.8-244,72.8
							c-12.3,18.5,14.2,61.3,34.2,73.3c14,9.7,31.1,7.1,47.2,6.5c48.6-3.8,96-20.2,138.8-43.1c21-12.3,45.3-25.6,60.5-44
							c7.9-4.2,19.3-11.2,27.1-15.7L470.4,115.1z"/>
						<path id="Fill-6" class="st12" d="M446.1,130.9l36.7,65.4c7.6-4.1,19.3-11.1,26.8-15.6l-38.5-64.4
							C464.1,120.6,453.3,127.1,446.1,130.9"/>
					</g>
					<g id="Body" transform="translate(238.000000, 149.000000)">
						<path id="Sweat-Body" class="st13" d="M475.9,284.9c-72.6,5.1-276.7-18.2-274.4-31.1c4.6-25.7,12.5-65.7,23.8-120.3
							c0-22.6,20.2-40.9,45-40.9h139.3c24.9,0,45,18.3,45,40.9c10,52.3,17.2,91.1,21.7,116.3C478.1,258.9,477.9,270.5,475.9,284.9z"
							/>
						<path id="Bottom" class="st11" d="M197.8,287.8c100.7,35.7,209.8,1.9,284.5,0l-4.8-38.9c-73.2,2.6-177.9,34.6-276,0.8
							L197.8,287.8z"/>
					</g>
					<g id="Left-Arm" transform="translate(198.000000, 149.000000)">
						<path id="SKIN_00000154396643204111081880000010760492022959428754_" class="st9" d="M375.4,319c-49.6-1.3-98.1-38-95-90.4
							c0.7-24.1,9.5-46.4,22.7-67.5c8.8-13.9,4.3-34-8.3-44.4c-50.6-36.4-80.3,74.4-80.4,110.3c-0.8,25.3,4.9,51.4,16.8,74
							c23.7,46.1,72.2,75,122.1,82c11.4,2.4,93.5,8.8,65.1-16.5c3.6-1.7,5.6-5.5,5-9.4c-0.5-3.1-2.6-5.5-5.3-6.7
							c6.1-3,5.9-12.6,0.1-15.7c4.3-0.7,9.1-1.6,13.4-2.6c6.2-0.5,12.3-4.7,10.2-11.9c-4.9-13.7-21.3-2-31.3-2.5
							c-2.3-13.5-18.5-5.6-27.6-7.2C379.1,310.2,375.8,314.1,375.4,319"/>
						<path id="Fill-12" class="st13" d="M352.5,388.9c-12.3-1.9-24.6-4.8-36.6-9.2c-31.8,0.6-63.4-23.1-84.2-47.9
							c-33.3-40.5-41.9-98.7-26.3-148.1c7.1-24.7,22.3-51.8,38.1-70.2s43.2-20.9,78.3-20.9s3.4,41,0,57.6
							c-4.2,13.3-12.5,25.4-16.3,38.7c-18.4,52.3-5.6,85.9,35.6,120.2c7.2,2.6,14.8,4.4,22.7,5.6L352.5,388.9z"/>
						<path id="Fill-15" class="st11" d="M316.7,378.4l25.1-70.7c7,2.5,14.5,4.3,22.2,5.5l-11.3,74.1
							C340.6,385.5,328.5,382.7,316.7,378.4"/>
					</g>
				</g>
			</g>
			<g id="Head_00000018920478495065372160000002492406786290971304_" transform="translate(338.000000, -61.000000) scale(1 1)">
				<g id="Head_x2F_Short_Hair">
					<g id="Head" transform="translate(22.000000, 72.000000)">
						<g id="head" transform="translate(0.000000, 0.000100)">
							<path id="SKIN_00000012464191404148823330000006901372020888975506_" class="st9" d="M210.8,154.6h45v51.6
								c0,13.9-10.1,25.2-22.5,25.2c-12.4,0-22.5-11.3-22.5-25.2V154.6z"/>
							<path id="SKIN_00000024711873766365336580000004845977821148339374_" class="st9" d="M257.9,186.6h-5
								c-23.2,0-42.1-18.8-42.1-42.1v-19.7c0-17.8,14.4-32.2,32.2-32.2h5.6c17.8,0,32.2,14.4,32.2,32.2v38.8
								C280.8,176.3,270.6,186.6,257.9,186.6"/>
							<path id="SKIN_00000004530644040821186580000006606315466613949866_" class="st9" d="M222.8,151.1c0,6.9-5.6,12.5-12.5,12.5
								c-6.9,0-12.5-5.6-12.5-12.5s5.6-12.5,12.5-12.5C217.2,138.6,222.8,144.2,222.8,151.1"/>
						</g>
						<path id="ear-line" class="st14" d="M207.9,145.7c0.9,0,2.2,0.2,3.4,0.9c2.1,1.1,3.5,3,3.6,5.9l0,0.3h-3
							c0-1.8-0.7-2.9-1.9-3.5c-0.5-0.2-1-0.4-1.5-0.5c-0.3,0-0.4-0.1-0.6-0.1l-0.1,0V145.7z"/>
						<path id="SHADOW_00000053526010618903739760000009982406310051634346_" class="st10" d="M232.6,188.9
							c-9.3-3.3-13.9-11.6-15.8-22.8c7.3,12.1,20.5,20.2,35.6,20.4l0.5,0h2.9C247.9,190.8,240.1,191.6,232.6,188.9z"/>
						<path id="Combined-Shape" class="st14" d="M248.6,92.6c13.9,0,25.8,8.7,30.3,21l-55.8,0l-8.3,25l-4.3,0v-13.8
							c0-17.8,14.5-32.2,32.3-32.2H248.6z"/>
					</g>
				</g>
			</g>
			<g id="Expression" transform="translate(385.000000, 34.000000) scale(1 1)">
				<g id="Expression_x2F_Wink">
					<g id="Group-17">
						<g transform="translate(9.000000, 3.000000)">
							<path id="Fill-1" class="st14" d="M235.5,111.6c0-1.7-1.3-3-3-3s-3,1.3-3,3c0,1.7,1.3,3,3,3S235.5,113.3,235.5,111.6"/>
							<path id="Stroke-5" d="M210.9,131.2c0,3.7,3.7,7.1,7.8,7.2l0.2,0v3c-5.6,0-10.8-4.6-11-9.9l0-0.3H210.9z"/>
							<path id="Stroke-7" d="M200.4,101.8c3.7-1.1,7.8-1.4,12-0.2l0.5,0.1l-0.9,2.9c-3.7-1.1-7.4-0.9-10.7,0.1
								c-0.6,0.2-1.1,0.4-1.6,0.6l-0.2,0.1l-0.3,0.1l-1.4-2.6C198.3,102.5,199.2,102.2,200.4,101.8z"/>
							<path id="Stroke-9" d="M225.3,94.2c4.3-1.1,8.4-0.7,12.1,0.6c1.1,0.4,2,0.8,2.6,1.1l0.3,0.2l-1.5,2.6l-0.2-0.1
								c-0.1-0.1-0.2-0.1-0.4-0.2c-0.5-0.2-1.1-0.5-1.7-0.7c-3-1.1-6.4-1.4-9.9-0.6l-0.5,0.1L225.3,94.2z"/>
							<path id="Stroke-15" d="M200.1,114.1c2.5-6.2,13.3-6.3,14.8,0l0.1,0.2l-2.9,0.6c-0.7-3.4-7.4-3.4-9.1,0.1l-0.1,0.2
								L200.1,114.1z"/>
						</g>
					</g>
					<polygon id="Stroke-5_00000053525669874823522230000003991592204458000516_" points="231,112 234,111.4 238.3,134.6 
						228.4,134.6 228.4,131.6 234.7,131.6 					"/>
				</g>
			</g>
			<g id="Accessories" transform="translate(372.000000, 56.000000) scale(1 1)">
				<g id="Accessories_x2F_None">
				</g>
			</g>
			<g id="Glasses" transform="translate(364.000000, 42.000000) scale(1 1)">
				<g id="Glasses_x2F_Thick">
					<path id="Shape_00000103226715262772410200000012078545580023373500_" class="st14" d="M241.4,95.6c5.7,0,11.5,1.4,13.5,4
						c1,1.3,1.6,3,1.8,5h3.2c0.2-2,0.8-3.7,1.8-5c2-2.6,7.5-3.9,13.1-4l0.4,0h0.4l2.9,0c10.3,0.2,14.2,0.7,15.1,2.7
						c1,2.2,1.6,5.2,0.7,6.7l-0.1,0.2c-0.2,0.3-0.6,1.1-1.1,2.1l-0.1,0.2l-0.4,0.9c-0.6,1.3-1.2,2.6-1.6,3.7l-0.1,0.3l0,0
						c-0.9,3.3-2.7,6.5-4.4,8.6c-3.3,4-17.6,4.3-21.7,0.1c-2.6-2.7-4.5-7.7-4.9-12.5h-3.2c-0.4,4.7-2.3,9.8-4.9,12.5
						c-4.1,4.2-18.3,3.9-21.7-0.1c-1.8-2.1-3.6-5.4-4.4-8.6l-0.1-0.3c-0.4-1-0.9-2.2-1.5-3.4l-26.3,0v-4l24.3,0
						c-0.6-1.6-0.1-4.3,0.9-6.3c1-2.1,5.3-2.5,17-2.7l1,0H241.4z M230.7,102.2c-1.7,2.4-2.1,5.3-1.4,8.3l0.2,0.6l-0.1,0
						c0.6,2.5,2,5,3.7,7.1c1.9,2.2,13.6,2.4,16.1-0.1c3.2-3.3,5.1-12.5,2.9-15.7l-0.1-0.2l-0.1-0.1C248.8,98.9,233,98.9,230.7,102.2
						z M286,102.2c-2.3-3.2-17.7-3.3-21-0.2l-0.1,0.1l-0.1,0.1l-0.1,0.2c-2.2,3.2-0.3,12.4,2.9,15.7c2.5,2.6,14.2,2.3,16.1,0.1
						c1.6-1.9,2.9-4.3,3.6-6.6l0.1-0.4l-0.1,0l0.2-0.6l0,0C288.1,107.5,287.7,104.5,286,102.2z"/>
				</g>
			</g>
		</g>
	</g>
	<g id="Foreground" transform="translate(31.000000, 401.870968)">
		<path id="Rectangle-2-Copy-7" class="st15" d="M760.5,346.7h53.7c8.9,0,12.1,0.9,15.4,2.7c3.3,1.7,5.8,4.3,7.6,7.6
			c1.7,3.3,2.7,6.5,2.7,15.4v92.7c0,8.9-0.9,12.1-2.7,15.4s-4.3,5.8-7.6,7.6c-3.3,1.7-6.5,2.7-15.4,2.7h-53.7
			c-8.9,0-12.1-0.9-15.4-2.7c-3.3-1.7-5.8-4.3-7.6-7.6s-2.7-6.5-2.7-15.4v-92.7c0-8.9,0.9-12.1,2.7-15.4c1.7-3.3,4.3-5.8,7.6-7.6
			C748.3,347.6,751.6,346.7,760.5,346.7z"/>
		<path id="Rectangle-2-Copy-10" class="st16" d="M760.5,512.7h53.7c8.9,0,12.1,0.9,15.4,2.7c3.3,1.7,5.8,4.3,7.6,7.6
			c1.7,3.3,2.7,6.5,2.7,15.4v92.7c0,8.9-0.9,12.1-2.7,15.4c-1.7,3.3-4.3,5.8-7.6,7.6c-3.3,1.7-6.5,2.7-15.4,2.7h-53.7
			c-8.9,0-12.1-0.9-15.4-2.7c-3.3-1.7-5.8-4.3-7.6-7.6c-1.7-3.3-2.7-6.5-2.7-15.4v-92.7c0-8.9,0.9-12.1,2.7-15.4
			c1.7-3.3,4.3-5.8,7.6-7.6C748.3,513.6,751.6,512.7,760.5,512.7z"/>
		<path id="Rectangle-2-Copy-11" class="st0" d="M882.5,468.7h53.7c8.9,0,12.1,0.9,15.4,2.7c3.3,1.7,5.8,4.3,7.6,7.6
			c1.7,3.3,2.7,6.5,2.7,15.4v59.7c0,8.9-0.9,12.1-2.7,15.4c-1.7,3.3-4.3,5.8-7.6,7.6c-3.3,1.7-6.5,2.7-15.4,2.7h-53.7
			c-8.9,0-12.1-0.9-15.4-2.7c-3.3-1.7-5.8-4.3-7.6-7.6c-1.7-3.3-2.7-6.5-2.7-15.4v-59.7c0-8.9,0.9-12.1,2.7-15.4
			c1.7-3.3,4.3-5.8,7.6-7.6C870.3,469.6,873.6,468.7,882.5,468.7z"/>
		<path id="Rectangle_00000160160485251058913880000003002282243488297385_" class="st1" d="M541.3,325.6c3.1,0,5.5,2.5,5.5,5.5v0
			c0,3.1-2.5,5.5-5.5,5.5c-3.1,0-5.5-2.5-5.5-5.5v0C535.7,328.1,538.2,325.6,541.3,325.6z"/>
		<path id="Rectangle_00000183940937552106615620000004218475536593562037_" class="st1" d="M519.1,292.3h22.1
			c3.1,0,5.5,2.5,5.5,5.5c0,3.1-2.5,5.5-5.5,5.5h-22.1c-3.1,0-5.5-2.5-5.5-5.5C513.6,294.8,516.1,292.3,519.1,292.3z"/>
		<path id="Rectangle_00000056406142466439117800000016068604625858817154_" class="st17" d="M203.4,192.4h188.3
			c3.1,0,5.5,2.5,5.5,5.5s-2.5,5.5-5.5,5.5H203.4c-3.1,0-5.5-2.5-5.5-5.5S200.3,192.4,203.4,192.4z"/>
		<path id="Rectangle_00000178890023625766478430000005739888726760384183_" class="st1" d="M203.4,159.2h66.5
			c3.1,0,5.5,2.5,5.5,5.5c0,3.1-2.5,5.5-5.5,5.5h-66.5c-3.1,0-5.5-2.5-5.5-5.5C197.8,161.6,200.3,159.2,203.4,159.2z"/>
		<path id="Rectangle_00000145048513977853787570000009151066121491992706_" class="st1" d="M203.4,125.9h33.2
			c3.1,0,5.5,2.5,5.5,5.5s-2.5,5.5-5.5,5.5h-33.2c-3.1,0-5.5-2.5-5.5-5.5S200.3,125.9,203.4,125.9z"/>
		<path id="Rectangle_00000039852599530561858930000012389553507070676924_" class="st18" d="M203.4,92.6h155.1
			c3.1,0,5.5,2.5,5.5,5.5c0,3.1-2.5,5.5-5.5,5.5H203.4c-3.1,0-5.5-2.5-5.5-5.5C197.8,95.1,200.3,92.6,203.4,92.6z"/>
		<path id="Rectangle-2_00000049913242295622263540000001121945436292696484_" class="st19" d="M413.8,427.7h105
			c15.5,0,28,12.5,28,28l0,0c0,15.5-12.5,28-28,28h-105c-15.5,0-28-12.5-28-28l0,0C385.8,440.2,398.4,427.7,413.8,427.7z"/>
	</g>
</g>
<rect x="252.5" y="40.5" class="st20" width="713" height="92"/>
<text transform="matrix(1 0 0 1 252.484 76.4609)" class="st21 st22">Enter auctions and view parcels!</text>
</svg>
