<?xml version="1.0" encoding="utf-8"?>
<!-- Generator: Adobe Illustrator 27.0.0, SVG Export Plug-In . SVG Version: 6.00 Build 0)  -->
<svg version="1.1" id="Layer_1" xmlns="http://www.w3.org/2000/svg" xmlns:xlink="http://www.w3.org/1999/xlink" x="0px" y="0px"
	 viewBox="0 0 780 831.7" style="enable-background:new 0 0 780 831.7;" xml:space="preserve">
<style type="text/css">
	.st0{opacity:0.288;}
	.st1{fill-rule:evenodd;clip-rule:evenodd;fill:#CCA4FF;}
	.st2{fill:#0A1B45;}
	.st3{fill-rule:evenodd;clip-rule:evenodd;fill:#5A328E;}
	.st4{fill-rule:evenodd;clip-rule:evenodd;fill:#55B0EB;}
	.st5{fill-rule:evenodd;clip-rule:evenodd;fill:#0A1B45;}
	.st6{fill-rule:evenodd;clip-rule:evenodd;fill:#FFDBB4;}
	.st7{fill-rule:evenodd;clip-rule:evenodd;fill:#051026;}
	.st8{fill-rule:evenodd;clip-rule:evenodd;fill:#FFFFFF;}
	.st9{fill:#FFFFFF;}
	.st10{fill-rule:evenodd;clip-rule:evenodd;fill:#3F8FD4;}
	.st11{fill-rule:evenodd;clip-rule:evenodd;}
	.st12{opacity:0.12;fill-rule:evenodd;clip-rule:evenodd;enable-background:new    ;}
	.st13{fill-rule:evenodd;clip-rule:evenodd;fill:#BE6FFB;}
	.st14{fill-rule:evenodd;clip-rule:evenodd;fill:#C67BFF;}
	.st15{fill-rule:evenodd;clip-rule:evenodd;fill:#F2E7FF;}
	.st16{fill-rule:evenodd;clip-rule:evenodd;fill:#E4CEFF;}
	.st17{fill-rule:evenodd;clip-rule:evenodd;fill:#870CF7;}
	.st18{fill:none;}
	.st19{font-family:'Roboto-Medium';}
	.st20{font-size:48px;}
</style>
<g id="Master_x2F_Comps_x2F_Desk">
	<g id="Blob" transform="translate(8.500000, 153.891534) scale(1.5086372360844529 1.5089820359281436)" class="st0">
		<g id="Blob_x2F_6">
			<path id="blobs-burgers" class="st1" d="M393.5,99.2c44.2,24.8,87.1,70.1,90.7,119c3.8,48.9-32,101.5-76.1,134.1
				s-96.8,45.5-149.5,45.7c-52.8,0.1-105.6-12.4-148.9-45c-43.3-32.8-76.7-85.5-96.4-158C-6.3,122.5-12,30.4,31.3,5.5
				c43.1-24.8,135.3,17.6,204.2,41.1C304.2,70,349.4,74.4,393.5,99.2z"/>
		</g>
	</g>
	<g id="Chair" transform="translate(35.000000, 285.000000) scale(1 1)">
		<g id="Chair_x2F_Office">
			<g id="Group-21" transform="translate(17.000000, 0.000000)">
				<path id="Stroke-1" class="st2" d="M74.2,147.4v66.3c0,5.8,4.8,10.7,10.6,10.9l0.3,0h66.3v39H85c-27.2,0-49.4-21.9-49.8-49
					l0-0.8v-66.3H74.2z"/>
				<path id="Fill-3" class="st3" d="M91.5,178H67.1c-52.9,0-96.2-43.3-96.2-96.2V16.2c0-52.9,43.3-96.2,96.2-96.2h24.4
					c33.1,0,60.1,27.1,60.1,60.1v137.7C151.7,151,124.6,178,91.5,178"/>
				<path id="Fill-5" class="st4" d="M224.7,491h-10c-4.4,0-8-4.6-8-10.3V266.4c0-5.7,3.6-10.3,8-10.3h10c4.4,0,8,4.6,8,10.3v214.3
					C232.7,486.4,229.1,491,224.7,491"/>
				<path id="Fill-7" class="st5" d="M232.7,506h-13h-13c0,0-90,14.6-90,8v-3c0-6.6,5.4-12,12-12l78-20h13h13l78,20
					c6.6,0,12,5.4,12,12v3C322.7,520.6,232.7,506,232.7,506"/>
				<path id="Fill-9" class="st4" d="M227.7,395h-16.2c-7.1,0-12.9-2.8-12.9-6.1V262.1c0-3.4,5.8-6.1,12.9-6.1h16.2
					c7.1,0,12.9,2.8,12.9,6.1v126.8C240.7,392.3,234.9,395,227.7,395"/>
				<path id="Fill-11" class="st3" d="M314.9,276H124.4c-15.3,0-27.7-12.5-27.7-27.7v-14.5c0-15.3,12.5-27.7,27.7-27.7h190.5
					c15.3,0,27.7,12.5,27.7,27.7v14.5C342.7,263.5,330.2,276,314.9,276"/>
				<path id="Fill-13" class="st5" d="M132.7,528c0,7.7-6.3,14-14,14c-7.7,0-14-6.3-14-14s6.3-14,14-14
					C126.4,514,132.7,520.3,132.7,528"/>
				<path id="Fill-15" class="st5" d="M336.7,528c0,7.7-6.3,14-14,14c-7.7,0-14-6.3-14-14s6.3-14,14-14
					C330.4,514,336.7,520.3,336.7,528"/>
				<path id="Fill-17" class="st5" d="M234.7,528c0,7.7-6.3,14-14,14c-7.7,0-14-6.3-14-14s6.3-14,14-14
					C228.4,514,234.7,520.3,234.7,528"/>
				<path id="Fill-19" class="st5" d="M224.7,516h-8l-10-25c0-6.6,5.4-12,12-12h4c6.6,0,12,5.4,12,12L224.7,516z"/>
			</g>
		</g>
	</g>
	
		<g id="Master_x2F_Character_x2F_Sitting_00000065758059169084659050000003824996932186223754_" transform="translate(-111.000000, 211.000000) scale(1 1)">
		<g id="Master_x2F_Character_x2F_Sitting">
			<g id="Legs_Sitting" transform="translate(317.000000, 266.000000) scale(1 1)">
				<g id="Legs_Sitting_x2F_Pants_Relaxed">
					<g id="Group-23" transform="translate(-1.000000, -1.700000)">
						<path id="Fill-1" class="st6" d="M527.8,216.3l-59.2,20.1c-3.2,1.1-6.5-0.4-7.4-3.5c-8.1-25.7-18.1-51.7-29.4-76.1
							c-11.1-24-23.9-47.5-38.6-68.8c-12.9-18.6-27.1-35.2-42.2-47.8c-6.1-5.7-4.7-15.2-0.5-22.4c6.6-7,21.8-44.4,33.3-44
							c15.9-2.9,45.8,37.4,56.7,50c32.2,42,56.3,90.3,75.8,140.2c5.5,14.4,10.7,28.8,15.3,43.7C532.7,211.3,531,215.2,527.8,216.3"
							/>
						<g id="Group-5" transform="translate(111.000000, 0.700000)">
							<path id="Fill-3_00000016796145011838281890000013859710606936637318_" class="st7" d="M16.7-79.4l-44.5,52
								c-1.6,3.3,2.6,7.7,5.3,9.8c61.7,37.3,133.6,18.2,199,37.9c79.2,18.8,118.8,101.6,149.6,176.4l92.6-41.3
								c-47-117.6-94.5-208.9-221.2-229.3C168.4-79.2,108.1-81,16.7-79.4z"/>
						</g>
						<path id="Fill-6" class="st8" d="M529.9,199.7l-70.2,26.1c-2.7-8.2-5.7-16.5-8.8-24.7l69.1-29.3
							C523.5,180.9,526.8,190.2,529.9,199.7"/>
						<path id="Fill-8" class="st5" d="M524.2,183.7c-4.8,1.9-22.1,9-38.2,15.5c6.2,14-23.9,25.6-27.8,11.3
							c-2.1,0.9-3.3,1.4-3.3,1.4c3.5,9.9,6.8,19.8,9.7,29.8l103.3-32.3c-0.5-1.8-1.5-5.3-2-7.1l-1.9-6.2
							C559.1,185.9,530.6,194.1,524.2,183.7"/>
						<path id="Fill-10" class="st6" d="M315.9,339.7l-62.1,0.1c-3.3,0-6-2.8-6.1-6.3c-0.8-75.4-2.1-151.6-11.5-226.1
							c-1.3-13.7-9.6-30.9,6.3-37.6c0.2-1,40.7-13.2,42.2-14.2c4.4-1.4,9-0.7,12.8,2c15.1,8.9,16.6,93.3,19.3,114.2
							c3.4,54,4.8,107.5,5.1,161.5C321.9,336.7,319.2,339.7,315.9,339.7"/>
						<path id="Fill-12" class="st5" d="M66.1-78.1l-95.2-0.2c1.1,85.6,9.3,99.1,66.6,99.1c88.7,0,157,2.8,180.2,57.5
							c7.1,16.7,24.3,116.5,17.8,210.4l100.4-2.2c-3.2-70.3-2.1-207.2-32.7-266.7c-18.3-27.5-47.7-46.4-75.9-60.4
							C194.7-57.2,140.9-69.7,66.1-78.1z"/>
						<path id="Fill-14" class="st8" d="M321.9,327.2l-74.7,0.5c-0.1-10.2-0.2-20.4-0.3-30.6l74.6-1.4
							C321.7,306.2,321.8,316.7,321.9,327.2"/>
						<g id="Group-18" transform="translate(276.000000, 387.700000)">
							<path id="Fill-16" class="st5" d="M46-79.3c-5.2,0.1-23.8,0.3-41.1,0.6c1.3,15.8-30.9,16.2-30,0.4c-2.3,0-3.6,0-3.6,0
								c0.1,8.7,0.2,26.1,0.2,34.8L79.9-43l0-12C79.8-64.5,50.2-66.6,46-79.3"/>
						</g>
						<path id="Fill-21" class="st5" d="M74.1,20.7h-9.4c-51.3,0-92.8-44.3-92.8-99h195C166.9-23.6,125.4,20.7,74.1,20.7"/>
					</g>
					<path id="Path-6" class="st9" d="M34.3-82l0.1,0c0.5,0.1,0.9,0.6,0.8,1.1C32.1-50,45.8-33.6,76.7-31l2.3,0.2
						c4.1,0.3,8.4,0.5,15.2,0.8l11.2,0.4c22.7,0.9,34,1.9,48.2,4.6l0.5,0.1c38.1,7.3,66.9,24.7,87.6,58
						c28.6,46.1,41.2,130.4,37.8,253c0,0.6-0.4,1-1,1c-0.5,0-0.9-0.5-0.9-1c3.4-122.1-9.1-206.1-37.5-251.8
						C219.7,1.4,191.3-15.7,153.7-23l-1.4-0.3c-14.8-2.7-26.7-3.6-52.5-4.6l-7.2-0.3c-7.1-0.3-11.4-0.5-16-0.9
						c-31.9-2.6-46.4-20.1-43.2-52C33.4-81.6,33.8-82,34.3-82z"/>
				</g>
			</g>
			<g id="Body" transform="translate(41.000000, -31.000000) scale(1 1)">
				<g id="Body_x2F_Tee_Shake_Hand">
					<path id="body" class="st4" d="M282.9,69h136c22.1,0,40,17.9,40,40v111l0,0h-216V109C242.9,86.9,260.8,69,282.9,69z"/>
					<g id="Left-Arm" transform="translate(260.000000, 149.000000)">
						<polygon id="Rectangle" class="st10" points="-17.1,2.9 45.8,-27 65.9,71 -17.1,71 						"/>
						<path id="SKIN" class="st6" d="M265.9,150.8c3.2,28.3-19.8,38.7-44.7,38.4c-27.5,1.9-55.3,1.9-82.8-1.7
							c-29.3-3.9-58.7-12.2-84-27.9C15.4,135.5-7.5,92.5-17.1,49.4C-21.3,23-35-27.2-15.2-46.5C4.1-66.3,41-49.4,40.7-22.5
							c1.2,43.1,8,92.4,41.5,121c5.6,4.5,12.1,8.2,18.6,11.3c34.7,15.1,73.8,15.9,111.3,13.9c5.7-0.3,12.1-0.9,17.8-1.4
							C247.2,120.6,263,133.4,265.9,150.8"/>
						<path id="SKIN_00000170245821949916727260000012884462258449568899_" class="st6" d="M289.3,171c1,4.9-2.5,9.7-7.7,10.6
							c-21.7,3.8-43.4,6.5-65.5,7.9c-6.6,1.3-15.6-1.6-15.5-8.3c-0.4-6.6,7.8-10.2,14.4-9.7c21.4-1.3,42.5-3.9,63.5-7.7
							C283.5,163,288.3,166.1,289.3,171"/>
						<path id="SKIN_00000109029059759036007060000006615140108480520356_" class="st6" d="M297.3,153c1.1,4.8-2.2,9.7-7.3,10.8
							c-10.5,0.3-37.4,12.7-40-2.6c-1.9-14.5,26.6-11.2,36.4-15.1C291.3,145.1,296.1,148.2,297.3,153"/>
						<path id="SKIN_00000145049216329130922900000011412608802041555589_" class="st6" d="M295.6,137c3.3,15.1-25.9,12.6-35.5,15.8
							c-5,0.7-9.5-2.7-10.1-7.7c-2.1-14.3,25.6-11.2,35.2-15C289.9,129.1,294.5,132.1,295.6,137"/>
						<path id="SKIN_00000048477912845697714200000008156884641393680263_" class="st6" d="M257.9,118.7c0.8,4.9-2.4,9.5-7.2,10.1
							c-10.1-0.3-35.3,10-36.8-5.3c-0.7-14.7,24.5-9.2,34.4-12.6C252.8,110.4,257.1,113.7,257.9,118.7"/>
						<path id="SKIN_00000170961437171229508910000017688572075015173283_" class="st6" d="M284.7,123c1,4.9-2,9.6-6.7,10.5
							c-16,3-32.1,5.3-48.3,6.8c-4.8,0.5-9.1-3.3-9.4-8.2c-0.4-5,3.1-9.2,7.7-9.7c15.6-1.5,31.3-3.7,46.7-6.6
							C279.2,114.9,283.7,118.1,284.7,123"/>
						<path id="Fill-16_00000031207862468788419340000017443707604053065607_" class="st4" d="M-24,41.4C-28.7,3.1-43.8-80,22.3-80
							c17.4,2.6,23.9,24.1,23.5,41.7C45.1-16.1,46.5,6,50.6,26.6L-24,41.4z"/>
					</g>
					<path id="SKIN_00000119818557147159235570000015229700811104919953_" class="st6" d="M304.9,69c0,18.2,20.6,33,46,33
						s46-14.8,46-33"/>
				</g>
			</g>
			<g id="Head_00000084500003748996722430000012237171721825248176_" transform="translate(362.000000, -61.000000) scale(1 1)">
				<g id="Head_x2F_Short_Hair">
					<g id="Head" transform="translate(22.000000, 72.000000)">
						<g id="head" transform="translate(0.000000, 0.000100)">
							<path id="SKIN_00000088842416575610514470000000363955052350058926_" class="st6" d="M-16.1-18h45v51.6
								c0,13.9-10.1,25.2-22.5,25.2s-22.5-11.3-22.5-25.2V-18z"/>
							<path id="SKIN_00000106842773695853164240000003529445989290288521_" class="st6" d="M31,14h-5C2.7,14-16.1-4.8-16.1-28
								v-19.7C-16.1-65.6-1.7-80,16.1-80h5.6c17.8,0,32.2,14.4,32.2,32.2v38.8C53.9,3.8,43.6,14,31,14"/>
							<path id="SKIN_00000036226199998686760550000008027903312448929408_" class="st6" d="M-4.1-21.5C-4.1-14.6-9.7-9-16.6-9
								s-12.5-5.6-12.5-12.5S-23.5-34-16.6-34S-4.1-28.4-4.1-21.5"/>
						</g>
						<path id="ear-line" class="st11" d="M-19-26.8c0.9,0,2.2,0.2,3.4,0.9c2.1,1.1,3.5,3,3.6,5.9l0,0.3h-3c0-1.8-0.7-2.9-1.9-3.5
							c-0.5-0.2-1-0.4-1.5-0.5c-0.3,0-0.4-0.1-0.6-0.1l-0.1,0V-26.8z"/>
						<path id="SHADOW" class="st12" d="M5.7,16.4C-3.6,13.1-8.3,4.8-10.1-6.4C-2.8,5.7,10.4,13.8,25.5,14l0.5,0h2.9
							C21,18.3,13.2,19,5.7,16.4z"/>
						<path id="Combined-Shape" class="st11" d="M21.7-80c13.9,0,25.8,8.7,30.3,21l-55.8,0L-12-34l-4.3,0v-13.8
							C-16.2-65.6-1.8-80,16.1-80H21.7z"/>
					</g>
				</g>
			</g>
			<g id="Expression" transform="translate(409.000000, 34.000000) scale(1 1)">
				<g id="Expression_x2F_Happy_2">
					<polygon id="Stroke-5" class="st11" points="4.1,-60.6 7.1,-61.1 11.3,-38 1.5,-38 1.5,-41 7.7,-41 					"/>
					<path id="Stroke-7" class="st11" d="M-7.2-38.4c0,3.7,3.7,7.1,7.8,7.2l0.2,0v3c-5.6,0-10.8-4.6-11-9.9l0-0.3H-7.2z"/>
					<path id="Stroke-4" class="st11" d="M-4.3-73v3c-4,0-7.6,1.1-10.8,2.8c-1.1,0.6-2.1,1.3-2.9,2l-0.3,0.2
						c-0.3,0.2-0.5,0.4-0.6,0.5l-0.1,0.1l-2.1-2.1c0.9-0.9,2.4-2.1,4.6-3.3c3.5-1.9,7.4-3.1,11.7-3.2L-4.3-73z"/>
					<path id="Stroke-6" class="st11" d="M7.8-72.6c4,0,7.6,1.1,10.8,2.8c1.8,1,3.1,2,3.9,2.8l0.1,0.1l-2.1,2.1
						c-0.1-0.1-0.4-0.4-0.8-0.7c-0.7-0.6-1.6-1.2-2.6-1.7c-2.6-1.5-5.6-2.4-8.9-2.5l-0.5,0V-72.6z"/>
					<path id="Stroke-8" class="st11" d="M-16.6-56c2.5-6.2,13.3-6.3,14.8,0l0.1,0.2l-2.9,0.6c-0.7-3.4-7.4-3.4-9.1,0.1l-0.1,0.2
						L-16.6-56z"/>
					<path id="Stroke-10" class="st11" d="M8.4-56c2.5-6.2,13.3-6.3,14.8,0l0.1,0.2l-2.9,0.6c-0.7-3.4-7.4-3.4-9.1,0.1l-0.1,0.2
						L8.4-56z"/>
				</g>
			</g>
			<g id="Accessories" transform="translate(396.000000, 56.000000) scale(1 1)">
				<g id="Accessories_x2F_None">
				</g>
			</g>
			<g id="Glasses" transform="translate(388.000000, 42.000000) scale(1 1)">
				<g id="Glasses_x2F_Thick">
					<path id="Shape" class="st11" d="M14.5-77c5.7,0,11.5,1.4,13.5,4c1,1.3,1.6,3,1.8,5H33c0.2-2,0.8-3.7,1.8-5
						c2-2.6,7.5-3.9,13.1-4l0.4,0h0.4l2.9,0c10.3,0.2,14.2,0.7,15.1,2.7c1,2.2,1.6,5.2,0.7,6.7l-0.1,0.2c-0.2,0.3-0.6,1.1-1.1,2.1
						l-0.1,0.2l-0.4,0.9c-0.6,1.3-1.2,2.6-1.6,3.7l-0.1,0.3l0,0c-0.9,3.3-2.7,6.5-4.4,8.6c-3.3,4-17.6,4.3-21.7,0.1
						c-2.6-2.7-4.5-7.7-4.9-12.5h-3.2c-0.4,4.7-2.3,9.8-4.9,12.5c-4.1,4.2-18.3,3.9-21.7-0.1c-1.8-2.1-3.6-5.4-4.4-8.6l-0.1-0.3
						c-0.4-1-0.9-2.2-1.5-3.4l-26.3,0v-4l24.3,0c-0.6-1.6-0.1-4.3,0.9-6.3c1-2.1,5.3-2.5,17-2.7l1,0H14.5z M3.8-70.4
						C2-68,1.7-65.1,2.3-62.1l0.2,0.6l-0.1,0c0.6,2.5,2,5,3.7,7.1C8-52.2,19.7-52,22.2-54.5c3.2-3.3,5.1-12.5,2.9-15.7L25-70.3
						l-0.1-0.1C21.9-73.6,6.1-73.6,3.8-70.4z M59.1-70.4c-2.3-3.2-17.7-3.3-21-0.2L38-70.5l-0.1,0.1l-0.1,0.2
						c-2.2,3.2-0.3,12.4,2.9,15.7c2.5,2.6,14.2,2.3,16.1,0.1c1.6-1.9,2.9-4.3,3.6-6.6l0.1-0.4l-0.1,0l0.2-0.6l0,0
						C61.1-65.1,60.8-68,59.1-70.4z"/>
				</g>
			</g>
		</g>
	</g>
	<g id="Desk" transform="translate(171.000000, 207.000000)">
		
			<rect id="Rectangle_00000165223971143684964390000015465675305315477650_" x="260.9" y="-80" class="st13" width="257" height="217"/>
		
			<rect id="Rectangle_00000157275727921076044940000004618384319615483322_" x="260.9" y="-80" class="st1" width="26" height="217"/>
		<g id="keyboard" transform="translate(185.000000, 258.000000)">
			
				<rect id="Rectangle_00000087391049338849862190000008781509174611001492_" x="-29.1" y="-80" class="st14" width="203" height="15"/>
			
				<rect id="Rectangle_00000054976319606722523540000004153498643893588913_" x="-29.1" y="-80" class="st15" width="68" height="15"/>
		</g>
		
			<rect id="Rectangle_00000111889990957085258700000003168315425304986543_" x="26.9" y="192" class="st13" width="520" height="38"/>
		
			<rect id="Rectangle_00000000913957262729959770000002447897332010821050_" x="26.9" y="192" class="st1" width="174" height="38"/>
		
			<rect id="Rectangle_00000062883318224570550330000009897563657975206312_" x="26.9" y="192" class="st16" width="257" height="38"/>
		<polygon id="Rectangle_00000181804343711547957870000000898540334240036744_" class="st1" points="42.9,230 76.9,230 -11.1,620 
			-29.1,620 		"/>
		<polygon id="Rectangle_00000142153239743297971300000007739447238227103394_" class="st1" points="281.9,230 247.9,230 335.9,620 
			353.9,620 		"/>
		<polygon id="Rectangle_00000056430081578395723050000008320451834665843638_" class="st1" points="535.9,230 501.9,230 589.9,620 
			607.9,620 		"/>
		
			<rect id="Rectangle_00000078746407631376747470000017058347298548811196_" x="395.9" y="3" class="st17" width="63" height="189"/>
		<rect id="Rectangle_00000145052284449311319540000011594633571098498961_" x="395.9" y="3" class="st1" width="18" height="189"/>
	</g>
</g>
<rect x="57.4" y="42.4" class="st18" width="675.1" height="92"/>
<text transform="matrix(1 0 0 1 57.3708 78.3955)" class="st19 st20">Register for an account or login</text>
</svg>
