<svg xmlns="http://www.w3.org/2000/svg" height="48" fill="white" width="48"><path d="m16.65 37.05 7.35-4.4 7.4 4.45-2-8.3 6.5-5.65-8.55-.75L24 14.5l-3.3 7.85-8.55.75 6.5 5.6ZM24 36.9l-9.1 5.5q-.55.35-1.1.325-.55-.025-.95-.375-.4-.3-.625-.775Q12 41.1 12.15 40.45l2.4-10.4L6.5 23q-.45-.35-.575-.875Q5.8 21.6 5.95 21.1q.15-.5.575-.85.425-.35 1.025-.4l10.65-.9 4.1-9.85q.25-.55.725-.825Q23.5 8 24 8t.975.275q.475.275.725.825l4.15 9.85 10.6.9q.6.05 1.025.4.425.35.575.85.15.5.025 1.025-.125.525-.575.875l-8.05 7.05 2.4 10.4q.15.65-.075 1.125-.225.475-.625.775-.4.35-.95.375-.55.025-1.05-.325Zm0-10.6Z"/></svg>